URWBookmanL-LighItal.ufo
<glyph name="quotedbl" format="1">
  <advance width="360"/>
  <unicode hex="0022"/>
  <outline>
    <contour>
      <point x="142" y="462" type="line"/>
      <point x="107" y="462" type="line"/>
      <point x="164" y="648" type="line" smooth="yes"/>
      <point x="175" y="684"/>
      <point x="186" y="694"/>
      <point x="213" y="694" type="curve" smooth="yes"/>
      <point x="238" y="694"/>
      <point x="255" y="681"/>
      <point x="255" y="662" type="curve" smooth="yes"/>
      <point x="255" y="651"/>
      <point x="251" y="642"/>
      <point x="237" y="619" type="curve" smooth="yes"/>
    </contour>
    <contour>
      <point x="289" y="462" type="line"/>
      <point x="254" y="462" type="line"/>
      <point x="311" y="648" type="line" smooth="yes"/>
      <point x="322" y="684"/>
      <point x="333" y="694"/>
      <point x="360" y="694" type="curve" smooth="yes"/>
      <point x="385" y="694"/>
      <point x="402" y="681"/>
      <point x="402" y="662" type="curve" smooth="yes"/>
      <point x="402" y="651"/>
      <point x="398" y="642"/>
      <point x="384" y="619" type="curve" smooth="yes"/>
    </contour>
  </outline>
</glyph>
<glyph name="quotesingle" format="1">
  <advance width="200"/>
  <unicode hex="0027"/>
  <outline>
    <contour>
      <point x="134" y="462" type="line"/>
      <point x="99" y="462" type="line"/>
      <point x="156" y="648" type="line" smooth="yes"/>
      <point x="167" y="684"/>
      <point x="178" y="694"/>
      <point x="205" y="694" type="curve" smooth="yes"/>
      <point x="230" y="694"/>
      <point x="247" y="681"/>
      <point x="247" y="662" type="curve" smooth="yes"/>
      <point x="247" y="651"/>
      <point x="243" y="642"/>
      <point x="229" y="619" type="curve" smooth="yes"/>
    </contour>
  </outline>
</glyph>
<glyph name="parenleft" format="1">
  <advance width="280"/>
  <unicode hex="0028"/>
  <outline>
    <contour>
      <point x="237" y="-89" type="curve"/>
      <point x="231" y="-120" type="line"/>
      <point x="148" y="-99"/>
      <point x="96" y="-22"/>
      <point x="96" y="81" type="curve" smooth="yes"/>
      <point x="96" y="165"/>
      <point x="125" y="336"/>
      <point x="160" y="460" type="curve" smooth="yes"/>
      <point x="193" y="578"/>
      <point x="233" y="641"/>
      <point x="303" y="685" type="curve" smooth="yes"/>
      <point x="329" y="701"/>
      <point x="354" y="710"/>
      <point x="383" y="715" type="curve"/>
      <point x="378" y="686" type="line"/>
      <point x="323" y="658"/>
      <point x="295" y="619"/>
      <point x="264" y="524" type="curve" smooth="yes"/>
      <point x="223" y="399"/>
      <point x="178" y="149"/>
      <point x="178" y="41" type="curve" smooth="yes"/>
      <point x="178" y="4"/>
      <point x="188" y="-34"/>
      <point x="203" y="-58" type="curve" smooth="yes"/>
      <point x="210" y="-69"/>
      <point x="219" y="-77"/>
    </contour>
  </outline>
</glyph>
<glyph name="asterisk" format="1">
  <advance width="440"/>
  <unicode hex="002A"/>
  <outline>
    <contour>
      <point x="320" y="552" type="line"/>
      <point x="305" y="622" type="line"/>
      <point x="303" y="647" type="line"/>
      <point x="303" y="676"/>
      <point x="326" y="698"/>
      <point x="357" y="698" type="curve" smooth="yes"/>
      <point x="381" y="698"/>
      <point x="396" y="685"/>
      <point x="396" y="666" type="curve" smooth="yes"/>
      <point x="396" y="655"/>
      <point x="392" y="643"/>
      <point x="381" y="622" type="curve" smooth="yes"/>
      <point x="344" y="552" type="line"/>
      <point x="358" y="540" type="line"/>
      <point x="416" y="599" type="line" smooth="yes"/>
      <point x="437" y="620"/>
      <point x="452" y="629"/>
      <point x="469" y="629" type="curve" smooth="yes"/>
      <point x="488" y="629"/>
      <point x="505" y="609"/>
      <point x="505" y="586" type="curve" smooth="yes"/>
      <point x="505" y="557"/>
      <point x="485" y="541"/>
      <point x="442" y="533" type="curve" smooth="yes"/>
      <point x="366" y="519" type="line"/>
      <point x="360" y="499" type="line"/>
      <point x="432" y="488" type="line" smooth="yes"/>
      <point x="465" y="482"/>
      <point x="480" y="471"/>
      <point x="480" y="451" type="curve" smooth="yes"/>
      <point x="480" y="423"/>
      <point x="450" y="392"/>
      <point x="423" y="392" type="curve" smooth="yes"/>
      <point x="409" y="392"/>
      <point x="397" y="400"/>
      <point x="383" y="422" type="curve"/>
      <point x="344" y="478" type="line"/>
      <point x="324" y="470" type="line"/>
      <point x="339" y="400" type="line"/>
      <point x="341" y="375" type="line"/>
      <point x="341" y="345"/>
      <point x="318" y="324"/>
      <point x="287" y="324" type="curve" smooth="yes"/>
      <point x="263" y="324"/>
      <point x="248" y="336"/>
      <point x="248" y="356" type="curve" smooth="yes"/>
      <point x="248" y="367"/>
      <point x="253" y="381"/>
      <point x="263" y="400" type="curve" smooth="yes"/>
      <point x="300" y="470" type="line"/>
      <point x="286" y="482" type="line"/>
      <point x="228" y="423" type="line" smooth="yes"/>
      <point x="207" y="402"/>
      <point x="191" y="393"/>
      <point x="174" y="393" type="curve" smooth="yes"/>
      <point x="156" y="393"/>
      <point x="139" y="414"/>
      <point x="139" y="437" type="curve" smooth="yes"/>
      <point x="139" y="465"/>
      <point x="158" y="480"/>
      <point x="202" y="489" type="curve" smooth="yes"/>
      <point x="278" y="503" type="line"/>
      <point x="284" y="523" type="line"/>
      <point x="212" y="534" type="line" smooth="yes"/>
      <point x="179" y="540"/>
      <point x="164" y="551"/>
      <point x="164" y="571" type="curve" smooth="yes"/>
      <point x="164" y="599"/>
      <point x="194" y="630"/>
      <point x="221" y="630" type="curve" smooth="yes"/>
      <point x="235" y="630"/>
      <point x="247" y="621"/>
      <point x="261" y="600" type="curve" smooth="yes"/>
      <point x="300" y="544" type="line"/>
    </contour>
  </outline>
</glyph>
<glyph name="plus" format="1">
  <advance width="600"/>
  <unicode hex="002B"/>
  <outline>
    <contour>
      <point x="595" y="390" type="line"/>
      <point x="595" y="310" type="line"/>
      <point x="382" y="310" type="line"/>
      <point x="382" y="106" type="line"/>
      <point x="304" y="106" type="line"/>
      <point x="304" y="310" type="line"/>
      <point x="91" y="310" type="line"/>
      <point x="91" y="390" type="line"/>
      <point x="304" y="390" type="line"/>
      <point x="304" y="594" type="line"/>
      <point x="382" y="594" type="line"/>
      <point x="382" y="390" type="line"/>
    </contour>
  </outline>
</glyph>
<glyph name="hyphen" format="1">
  <advance width="320"/>
  <unicode hex="002D"/>
  <outline>
    <contour>
      <point x="104" y="285" type="line"/>
      <point x="336" y="285" type="line"/>
      <point x="308" y="232" type="line"/>
      <point x="78" y="232" type="line"/>
    </contour>
  </outline>
</glyph>
<glyph name="zero" format="1">
  <advance width="620"/>
  <unicode hex="0030"/>
  <outline>
    <contour>
      <point x="428" y="695" type="curve" smooth="yes"/>
      <point x="562" y="695"/>
      <point x="646" y="590"/>
      <point x="646" y="423" type="curve" smooth="yes"/>
      <point x="646" y="319"/>
      <point x="615" y="212"/>
      <point x="561" y="132" type="curve" smooth="yes"/>
      <point x="499" y="41"/>
      <point x="404" y="-13"/>
      <point x="306" y="-13" type="curve" smooth="yes"/>
      <point x="173" y="-13"/>
      <point x="86" y="92"/>
      <point x="86" y="252" type="curve" smooth="yes"/>
      <point x="86" y="346"/>
      <point x="119" y="455"/>
      <point x="174" y="541" type="curve"/>
      <point x="237" y="642"/>
      <point x="325" y="695"/>
    </contour>
    <contour>
      <point x="422" y="653" type="curve" smooth="yes"/>
      <point x="365" y="653"/>
      <point x="309" y="619"/>
      <point x="276" y="564" type="curve"/>
      <point x="227" y="479"/>
      <point x="188" y="326"/>
      <point x="188" y="213" type="curve" smooth="yes"/>
      <point x="188" y="102"/>
      <point x="234" y="34"/>
      <point x="309" y="34" type="curve" smooth="yes"/>
      <point x="353" y="34"/>
      <point x="399" y="55"/>
      <point x="436" y="92" type="curve" smooth="yes"/>
      <point x="497" y="154"/>
      <point x="544" y="321"/>
      <point x="544" y="474" type="curve" smooth="yes"/>
      <point x="544" y="589"/>
      <point x="500" y="653"/>
    </contour>
  </outline>
</glyph>
<glyph name="one" format="1">
  <advance width="620"/>
  <unicode hex="0031"/>
  <outline>
    <contour>
      <point x="495" y="681" type="line"/>
      <point x="394" y="127" type="line" smooth="yes"/>
      <point x="392" y="115"/>
      <point x="390" y="94"/>
      <point x="390" y="84" type="curve" smooth="yes"/>
      <point x="390" y="49"/>
      <point x="411" y="35"/>
      <point x="473" y="31" type="curve" smooth="yes"/>
      <point x="500" y="29" type="line"/>
      <point x="495" y="0" type="line"/>
      <point x="154" y="0" type="line"/>
      <point x="159" y="29" type="line"/>
      <point x="197" y="31"/>
      <point x="212" y="33"/>
      <point x="240" y="41" type="curve"/>
      <point x="283" y="55"/>
      <point x="288" y="62"/>
      <point x="299" y="121" type="curve" smooth="yes"/>
      <point x="375" y="540" type="line" smooth="yes"/>
      <point x="377" y="546"/>
      <point x="377" y="552"/>
      <point x="377" y="561" type="curve" smooth="yes"/>
      <point x="377" y="602"/>
      <point x="358" y="614"/>
      <point x="290" y="614" type="curve" smooth="yes"/>
      <point x="266" y="614" type="line"/>
      <point x="271" y="642" type="line"/>
      <point x="372" y="658"/>
      <point x="384" y="661"/>
      <point x="455" y="681" type="curve"/>
    </contour>
  </outline>
</glyph>
<glyph name="two" format="1">
  <advance width="620"/>
  <unicode hex="0032"/>
  <outline>
    <contour>
      <point x="611" y="185" type="line"/>
      <point x="532" y="0" type="line"/>
      <point x="66" y="0" type="line"/>
      <point x="79" y="71" type="line"/>
      <point x="210" y="147"/>
      <point x="253" y="176"/>
      <point x="318" y="231" type="curve"/>
      <point x="379" y="281"/>
      <point x="431" y="336"/>
      <point x="466" y="385" type="curve" smooth="yes"/>
      <point x="509" y="445"/>
      <point x="526" y="489"/>
      <point x="526" y="541" type="curve" smooth="yes"/>
      <point x="526" y="603"/>
      <point x="474" y="647"/>
      <point x="399" y="647" type="curve" smooth="yes"/>
      <point x="317" y="647"/>
      <point x="241" y="599"/>
      <point x="241" y="548" type="curve" smooth="yes"/>
      <point x="241" y="536"/>
      <point x="242" y="532"/>
      <point x="251" y="515" type="curve" smooth="yes"/>
      <point x="256" y="506"/>
      <point x="258" y="498"/>
      <point x="258" y="490" type="curve" smooth="yes"/>
      <point x="258" y="458"/>
      <point x="230" y="432"/>
      <point x="194" y="432" type="curve" smooth="yes"/>
      <point x="163" y="432"/>
      <point x="139" y="456"/>
      <point x="139" y="489" type="curve" smooth="yes"/>
      <point x="139" y="531"/>
      <point x="166" y="580"/>
      <point x="209" y="619" type="curve" smooth="yes"/>
      <point x="266" y="669"/>
      <point x="335" y="694"/>
      <point x="418" y="694" type="curve" smooth="yes"/>
      <point x="547" y="694"/>
      <point x="636" y="630"/>
      <point x="636" y="539" type="curve" smooth="yes"/>
      <point x="636" y="443"/>
      <point x="570" y="349"/>
      <point x="425" y="238" type="curve" smooth="yes"/>
      <point x="348" y="179"/>
      <point x="336" y="172"/>
      <point x="174" y="80" type="curve"/>
      <point x="417" y="80" type="line" smooth="yes"/>
      <point x="492" y="80"/>
      <point x="526" y="105"/>
      <point x="577" y="198" type="curve"/>
    </contour>
  </outline>
</glyph>
<glyph name="four" format="1">
  <advance width="620"/>
  <unicode hex="0034"/>
  <outline>
    <contour>
      <point x="572" y="681" type="line"/>
      <point x="492" y="239" type="line"/>
      <point x="634" y="239" type="line"/>
      <point x="610" y="186" type="line"/>
      <point x="482" y="186" type="line"/>
      <point x="470" y="118" type="line" smooth="yes"/>
      <point x="469" y="111"/>
      <point x="468" y="103"/>
      <point x="468" y="98" type="curve" smooth="yes"/>
      <point x="468" y="60"/>
      <point x="491" y="33"/>
      <point x="523" y="31" type="curve" smooth="yes"/>
      <point x="556" y="29" type="line"/>
      <point x="551" y="0" type="line"/>
      <point x="259" y="0" type="line"/>
      <point x="264" y="29" type="line"/>
      <point x="289" y="31" type="line" smooth="yes"/>
      <point x="339" y="34"/>
      <point x="370" y="68"/>
      <point x="378" y="128" type="curve"/>
      <point x="388" y="186" type="line"/>
      <point x="79" y="186" type="line"/>
      <point x="69" y="226" type="line"/>
      <point x="478" y="681" type="line"/>
    </contour>
    <contour>
      <point x="398" y="239" type="line"/>
      <point x="463" y="599" type="line"/>
      <point x="138" y="239" type="line"/>
    </contour>
  </outline>
</glyph>
<glyph name="five" format="1">
  <advance width="620"/>
  <unicode hex="0035"/>
  <outline>
    <contour>
      <point x="614" y="681" type="line"/>
      <point x="587" y="601" type="line"/>
      <point x="247" y="601" type="line"/>
      <point x="199" y="387" type="line"/>
      <point x="265" y="440"/>
      <point x="326" y="464"/>
      <point x="400" y="464" type="curve" smooth="yes"/>
      <point x="527" y="464"/>
      <point x="611" y="393"/>
      <point x="611" y="285" type="curve" smooth="yes"/>
      <point x="611" y="120"/>
      <point x="462" y="-13"/>
      <point x="277" y="-13" type="curve" smooth="yes"/>
      <point x="157" y="-13"/>
      <point x="70" y="41"/>
      <point x="70" y="116" type="curve" smooth="yes"/>
      <point x="70" y="158"/>
      <point x="105" y="197"/>
      <point x="141" y="197" type="curve" smooth="yes"/>
      <point x="168" y="197"/>
      <point x="188" y="178"/>
      <point x="188" y="152" type="curve" smooth="yes"/>
      <point x="188" y="141"/>
      <point x="187" y="139"/>
      <point x="179" y="114" type="curve" smooth="yes"/>
      <point x="175" y="102"/>
      <point x="172" y="90"/>
      <point x="172" y="84" type="curve" smooth="yes"/>
      <point x="172" y="68"/>
      <point x="181" y="55"/>
      <point x="200" y="46" type="curve" smooth="yes"/>
      <point x="222" y="35"/>
      <point x="251" y="29"/>
      <point x="278" y="29" type="curve" smooth="yes"/>
      <point x="403" y="29"/>
      <point x="501" y="136"/>
      <point x="501" y="273" type="curve" smooth="yes"/>
      <point x="501" y="358"/>
      <point x="448" y="412"/>
      <point x="365" y="412" type="curve" smooth="yes"/>
      <point x="297" y="412"/>
      <point x="242" y="382"/>
      <point x="186" y="313" type="curve"/>
      <point x="136" y="329" type="line"/>
      <point x="209" y="681" type="line"/>
    </contour>
  </outline>
</glyph>
<glyph name="six" format="1">
  <advance width="620"/>
  <unicode hex="0036"/>
  <outline>
    <contour>
      <point x="207" y="333" type="curve"/>
      <point x="265" y="403"/>
      <point x="334" y="436"/>
      <point x="419" y="436" type="curve" smooth="yes"/>
      <point x="542" y="436"/>
      <point x="622" y="365"/>
      <point x="622" y="255" type="curve" smooth="yes"/>
      <point x="622" y="110"/>
      <point x="480" y="-13"/>
      <point x="313" y="-13" type="curve" smooth="yes"/>
      <point x="174" y="-13"/>
      <point x="89" y="79"/>
      <point x="89" y="230" type="curve" smooth="yes"/>
      <point x="89" y="368"/>
      <point x="150" y="518"/>
      <point x="240" y="600" type="curve" smooth="yes"/>
      <point x="306" y="661"/>
      <point x="387" y="694"/>
      <point x="467" y="694" type="curve" smooth="yes"/>
      <point x="569" y="694"/>
      <point x="657" y="641"/>
      <point x="657" y="580" type="curve" smooth="yes"/>
      <point x="657" y="548"/>
      <point x="628" y="519"/>
      <point x="597" y="519" type="curve" smooth="yes"/>
      <point x="567" y="519"/>
      <point x="544" y="541"/>
      <point x="544" y="570" type="curve" smooth="yes"/>
      <point x="544" y="577"/>
      <point x="545" y="583"/>
      <point x="548" y="593" type="curve" smooth="yes"/>
      <point x="549" y="597"/>
      <point x="550" y="601"/>
      <point x="550" y="603" type="curve" smooth="yes"/>
      <point x="550" y="627"/>
      <point x="506" y="647"/>
      <point x="454" y="647" type="curve" smooth="yes"/>
      <point x="357" y="647"/>
      <point x="281" y="579"/>
      <point x="238" y="455" type="curve" smooth="yes"/>
      <point x="223" y="414"/>
      <point x="217" y="387"/>
    </contour>
    <contour>
      <point x="390" y="384" type="curve" smooth="yes"/>
      <point x="327" y="384"/>
      <point x="272" y="357"/>
      <point x="238" y="309" type="curve" smooth="yes"/>
      <point x="209" y="269"/>
      <point x="191" y="213"/>
      <point x="191" y="162" type="curve" smooth="yes"/>
      <point x="191" y="83"/>
      <point x="241" y="34"/>
      <point x="322" y="34" type="curve" smooth="yes"/>
      <point x="376" y="34"/>
      <point x="434" y="62"/>
      <point x="466" y="103" type="curve" smooth="yes"/>
      <point x="496" y="142"/>
      <point x="515" y="200"/>
      <point x="515" y="256" type="curve" smooth="yes"/>
      <point x="515" y="334"/>
      <point x="466" y="384"/>
    </contour>
  </outline>
</glyph>
<glyph name="seven" format="1">
  <advance width="620"/>
  <unicode hex="0037"/>
  <outline>
    <contour>
      <point x="669" y="681" type="line"/>
      <point x="672" y="633" type="line"/>
      <point x="472" y="431"/>
      <point x="337" y="196"/>
      <point x="309" y="0" type="curve"/>
      <point x="178" y="0" type="line"/>
      <point x="219" y="152"/>
      <point x="350" y="361"/>
      <point x="507" y="524" type="curve"/>
      <point x="561" y="578"/>
      <point x="575" y="592"/>
      <point x="582" y="601" type="curve"/>
      <point x="375" y="601" type="line" smooth="yes"/>
      <point x="284" y="601"/>
      <point x="260" y="598"/>
      <point x="235" y="581" type="curve" smooth="yes"/>
      <point x="212" y="566"/>
      <point x="186" y="534"/>
      <point x="176" y="510" type="curve"/>
      <point x="143" y="510" type="line"/>
      <point x="206" y="681" type="line"/>
    </contour>
  </outline>
</glyph>
<glyph name="eight" format="1">
  <advance width="620"/>
  <unicode hex="0038"/>
  <outline>
    <contour>
      <point x="469" y="384" type="curve"/>
      <point x="530" y="358"/>
      <point x="547" y="349"/>
      <point x="567" y="333" type="curve" smooth="yes"/>
      <point x="601" y="305"/>
      <point x="617" y="270"/>
      <point x="617" y="226" type="curve" smooth="yes"/>
      <point x="617" y="92"/>
      <point x="481" y="-13"/>
      <point x="306" y="-13" type="curve" smooth="yes"/>
      <point x="159" y="-13"/>
      <point x="61" y="56"/>
      <point x="61" y="160" type="curve" smooth="yes"/>
      <point x="61" y="257"/>
      <point x="134" y="329"/>
      <point x="264" y="360" type="curve"/>
      <point x="191" y="392"/>
      <point x="163" y="426"/>
      <point x="163" y="484" type="curve" smooth="yes"/>
      <point x="163" y="600"/>
      <point x="287" y="694"/>
      <point x="438" y="694" type="curve" smooth="yes"/>
      <point x="566" y="694"/>
      <point x="655" y="634"/>
      <point x="655" y="547" type="curve" smooth="yes"/>
      <point x="655" y="496"/>
      <point x="624" y="449"/>
      <point x="571" y="419" type="curve" smooth="yes"/>
      <point x="545" y="404"/>
      <point x="520" y="396"/>
    </contour>
    <contour>
      <point x="418" y="404" type="curve"/>
      <point x="513" y="422"/>
      <point x="573" y="480"/>
      <point x="573" y="554" type="curve" smooth="yes"/>
      <point x="573" y="618"/>
      <point x="524" y="657"/>
      <point x="446" y="657" type="curve" smooth="yes"/>
      <point x="348" y="657"/>
      <point x="270" y="596"/>
      <point x="270" y="520" type="curve" smooth="yes"/>
      <point x="270" y="471"/>
      <point x="302" y="446"/>
    </contour>
    <contour>
      <point x="311" y="340" type="curve"/>
      <point x="212" y="315"/>
      <point x="143" y="240"/>
      <point x="143" y="155" type="curve" smooth="yes"/>
      <point x="143" y="78"/>
      <point x="207" y="29"/>
      <point x="309" y="29" type="curve" smooth="yes"/>
      <point x="423" y="29"/>
      <point x="515" y="100"/>
      <point x="515" y="187" type="curve" smooth="yes"/>
      <point x="515" y="219"/>
      <point x="502" y="248"/>
      <point x="479" y="266" type="curve" smooth="yes"/>
      <point x="455" y="285"/>
      <point x="438" y="293"/>
      <point x="364" y="320" type="curve" smooth="yes"/>
      <point x="352" y="325"/>
      <point x="334" y="331"/>
    </contour>
  </outline>
</glyph>
<glyph name="nine" format="1">
  <advance width="620"/>
  <unicode hex="0039"/>
  <outline>
    <contour>
      <point x="533" y="358" type="curve"/>
      <point x="465" y="280"/>
      <point x="402" y="249"/>
      <point x="313" y="249" type="curve" smooth="yes"/>
      <point x="195" y="249"/>
      <point x="111" y="322"/>
      <point x="111" y="425" type="curve" smooth="yes"/>
      <point x="111" y="567"/>
      <point x="258" y="694"/>
      <point x="422" y="694" type="curve" smooth="yes"/>
      <point x="559" y="694"/>
      <point x="649" y="605"/>
      <point x="649" y="468" type="curve" smooth="yes"/>
      <point x="649" y="358"/>
      <point x="612" y="235"/>
      <point x="550" y="141" type="curve" smooth="yes"/>
      <point x="487" y="45"/>
      <point x="381" y="-13"/>
      <point x="269" y="-13" type="curve" smooth="yes"/>
      <point x="167" y="-13"/>
      <point x="77" y="41"/>
      <point x="77" y="103" type="curve" smooth="yes"/>
      <point x="77" y="135"/>
      <point x="104" y="163"/>
      <point x="134" y="163" type="curve" smooth="yes"/>
      <point x="165" y="163"/>
      <point x="188" y="138"/>
      <point x="188" y="104" type="curve" smooth="yes"/>
      <point x="188" y="99"/>
      <point x="187" y="94"/>
      <point x="186" y="88" type="curve" smooth="yes"/>
      <point x="185" y="82"/>
      <point x="184" y="77"/>
      <point x="184" y="74" type="curve" smooth="yes"/>
      <point x="184" y="50"/>
      <point x="228" y="29"/>
      <point x="280" y="29" type="curve" smooth="yes"/>
      <point x="408" y="29"/>
      <point x="495" y="143"/>
    </contour>
    <contour>
      <point x="415" y="652" type="curve" smooth="yes"/>
      <point x="358" y="652"/>
      <point x="300" y="624"/>
      <point x="267" y="580" type="curve" smooth="yes"/>
      <point x="235" y="538"/>
      <point x="213" y="473"/>
      <point x="213" y="419" type="curve" smooth="yes"/>
      <point x="213" y="346"/>
      <point x="266" y="296"/>
      <point x="342" y="296" type="curve" smooth="yes"/>
      <point x="400" y="296"/>
      <point x="460" y="325"/>
      <point x="495" y="370" type="curve" smooth="yes"/>
      <point x="526" y="411"/>
      <point x="547" y="471"/>
      <point x="547" y="524" type="curve" smooth="yes"/>
      <point x="547" y="602"/>
      <point x="496" y="652"/>
    </contour>
  </outline>
</glyph>
<glyph name="equal" format="1">
  <advance width="600"/>
  <unicode hex="003D"/>
  <outline>
    <contour>
      <point x="595" y="488" type="line"/>
      <point x="595" y="408" type="line"/>
      <point x="91" y="408" type="line"/>
      <point x="91" y="488" type="line"/>
    </contour>
    <contour>
      <point x="595" y="292" type="line"/>
      <point x="595" y="212" type="line"/>
      <point x="91" y="212" type="line"/>
      <point x="91" y="292" type="line"/>
    </contour>
  </outline>
</glyph>
<glyph name="question" format="1">
  <advance width="540"/>
  <unicode hex="003F"/>
  <outline>
    <contour>
      <point x="285" y="177" type="curve"/>
      <point x="240" y="177" type="line"/>
      <point x="255" y="296"/>
      <point x="266" y="312"/>
      <point x="379" y="377" type="curve"/>
      <point x="432" y="410"/>
      <point x="444" y="419"/>
      <point x="464" y="448" type="curve" smooth="yes"/>
      <point x="485" y="479"/>
      <point x="497" y="516"/>
      <point x="497" y="553" type="curve" smooth="yes"/>
      <point x="497" y="618"/>
      <point x="449" y="657"/>
      <point x="369" y="657" type="curve" smooth="yes"/>
      <point x="283" y="657"/>
      <point x="216" y="619"/>
      <point x="216" y="571" type="curve" smooth="yes"/>
      <point x="216" y="566"/>
      <point x="218" y="556"/>
      <point x="221" y="548" type="curve" smooth="yes"/>
      <point x="226" y="533"/>
      <point x="226" y="533"/>
      <point x="226" y="528" type="curve" smooth="yes"/>
      <point x="226" y="499"/>
      <point x="196" y="472"/>
      <point x="165" y="472" type="curve" smooth="yes"/>
      <point x="135" y="472"/>
      <point x="114" y="492"/>
      <point x="114" y="522" type="curve" smooth="yes"/>
      <point x="114" y="612"/>
      <point x="238" y="694"/>
      <point x="373" y="694" type="curve" smooth="yes"/>
      <point x="510" y="694"/>
      <point x="604" y="631"/>
      <point x="604" y="538" type="curve" smooth="yes"/>
      <point x="604" y="489"/>
      <point x="582" y="440"/>
      <point x="544" y="400" type="curve" smooth="yes"/>
      <point x="513" y="368"/>
      <point x="484" y="352"/>
      <point x="430" y="335" type="curve"/>
      <point x="330" y="306"/>
      <point x="297" y="269"/>
    </contour>
    <contour>
      <point x="256" y="123" type="curve" smooth="yes"/>
      <point x="289" y="123"/>
      <point x="312" y="99"/>
      <point x="312" y="65" type="curve" smooth="yes"/>
      <point x="312" y="24"/>
      <point x="273" y="-13"/>
      <point x="231" y="-13" type="curve" smooth="yes"/>
      <point x="198" y="-13"/>
      <point x="176" y="9"/>
      <point x="176" y="41" type="curve" smooth="yes"/>
      <point x="176" y="85"/>
      <point x="213" y="123"/>
    </contour>
  </outline>
</glyph>
<glyph name="C" format="1">
  <advance width="720"/>
  <unicode hex="0043"/>
  <outline>
    <contour>
      <point x="734" y="681" type="line"/>
      <point x="746" y="444" type="line"/>
      <point x="708" y="444" type="line"/>
      <point x="660" y="589"/>
      <point x="600" y="647"/>
      <point x="500" y="647" type="curve" smooth="yes"/>
      <point x="425" y="647"/>
      <point x="354" y="609"/>
      <point x="297" y="539" type="curve" smooth="yes"/>
      <point x="233" y="459"/>
      <point x="195" y="354"/>
      <point x="195" y="253" type="curve" smooth="yes"/>
      <point x="195" y="119"/>
      <point x="278" y="34"/>
      <point x="409" y="34" type="curve" smooth="yes"/>
      <point x="523" y="34"/>
      <point x="624" y="95"/>
      <point x="690" y="203" type="curve"/>
      <point x="731" y="183" type="line"/>
      <point x="703" y="130"/>
      <point x="682" y="105"/>
      <point x="637" y="71" type="curve" smooth="yes"/>
      <point x="565" y="16"/>
      <point x="479" y="-13"/>
      <point x="386" y="-13" type="curve" smooth="yes"/>
      <point x="207" y="-13"/>
      <point x="88" y="102"/>
      <point x="88" y="275" type="curve" smooth="yes"/>
      <point x="88" y="503"/>
      <point x="272" y="694"/>
      <point x="493" y="694" type="curve" smooth="yes"/>
      <point x="565" y="694"/>
      <point x="614" y="676"/>
      <point x="673" y="630" type="curve"/>
      <point x="703" y="681" type="line"/>
    </contour>
  </outline>
</glyph>
<glyph name="F" format="1">
  <advance width="620"/>
  <unicode hex="0046"/>
  <outline>
    <contour>
      <point x="698" y="681" type="line"/>
      <point x="743" y="483" type="line"/>
      <point x="705" y="471" type="line"/>
      <point x="650" y="587"/>
      <point x="571" y="638"/>
      <point x="446" y="638" type="curve" smooth="yes"/>
      <point x="378" y="638"/>
      <point x="352" y="632"/>
      <point x="331" y="612" type="curve" smooth="yes"/>
      <point x="322" y="603"/>
      <point x="312" y="575"/>
      <point x="304" y="531" type="curve" smooth="yes"/>
      <point x="276" y="375" type="line"/>
      <point x="357" y="375" type="line" smooth="yes"/>
      <point x="400" y="375"/>
      <point x="425" y="383"/>
      <point x="447" y="402" type="curve" smooth="yes"/>
      <point x="470" y="423"/>
      <point x="471" y="425"/>
      <point x="494" y="495" type="curve"/>
      <point x="496" y="500" type="line"/>
      <point x="529" y="500" type="line"/>
      <point x="476" y="210" type="line"/>
      <point x="444" y="210" type="line"/>
      <point x="444" y="218" type="line"/>
      <point x="445" y="228"/>
      <point x="446" y="236"/>
      <point x="446" y="239" type="curve" smooth="yes"/>
      <point x="446" y="266"/>
      <point x="436" y="297"/>
      <point x="423" y="312" type="curve" smooth="yes"/>
      <point x="411" y="326"/>
      <point x="381" y="335"/>
      <point x="344" y="335" type="curve" smooth="yes"/>
      <point x="269" y="335" type="line"/>
      <point x="231" y="128" type="line" smooth="yes"/>
      <point x="229" y="114"/>
      <point x="227" y="97"/>
      <point x="227" y="86" type="curve" smooth="yes"/>
      <point x="227" y="52"/>
      <point x="247" y="35"/>
      <point x="293" y="31" type="curve" smooth="yes"/>
      <point x="314" y="29" type="line"/>
      <point x="309" y="0" type="line"/>
      <point x="21" y="0" type="line"/>
      <point x="26" y="29" type="line"/>
      <point x="43" y="31" type="line" smooth="yes"/>
      <point x="98" y="38"/>
      <point x="117" y="59"/>
      <point x="131" y="128" type="curve"/>
      <point x="208" y="553" type="line" smooth="yes"/>
      <point x="210" y="561"/>
      <point x="212" y="587"/>
      <point x="212" y="596" type="curve" smooth="yes"/>
      <point x="212" y="628"/>
      <point x="195" y="645"/>
      <point x="155" y="650" type="curve" smooth="yes"/>
      <point x="139" y="652" type="line"/>
      <point x="145" y="681" type="line"/>
    </contour>
  </outline>
</glyph>
<glyph name="Q" format="1">
  <advance width="780"/>
  <unicode hex="0051"/>
  <outline>
    <contour>
      <point x="583" y="32" type="curve"/>
      <point x="512" y="-2"/>
      <point x="463" y="-13"/>
      <point x="390" y="-13" type="curve" smooth="yes"/>
      <point x="206" y="-13"/>
      <point x="80" y="100"/>
      <point x="80" y="266" type="curve" smooth="yes"/>
      <point x="80" y="375"/>
      <point x="124" y="484"/>
      <point x="202" y="566" type="curve" smooth="yes"/>
      <point x="285" y="652"/>
      <point x="384" y="694"/>
      <point x="506" y="694" type="curve" smooth="yes"/>
      <point x="694" y="694"/>
      <point x="812" y="583"/>
      <point x="812" y="406" type="curve" smooth="yes"/>
      <point x="812" y="276"/>
      <point x="752" y="155"/>
      <point x="651" y="78" type="curve"/>
      <point x="669" y="55"/>
      <point x="676" y="33"/>
      <point x="676" y="4" type="curve" smooth="yes"/>
      <point x="676" y="-107"/>
      <point x="537" y="-191"/>
      <point x="351" y="-191" type="curve" smooth="yes"/>
      <point x="251" y="-191"/>
      <point x="164" y="-168"/>
      <point x="107" y="-127" type="curve" smooth="yes"/>
      <point x="79" y="-107"/>
      <point x="61" y="-80"/>
      <point x="61" y="-59" type="curve" smooth="yes"/>
      <point x="61" y="-29"/>
      <point x="91" y="-3"/>
      <point x="125" y="-3" type="curve" smooth="yes"/>
      <point x="153" y="-3"/>
      <point x="176" y="-22"/>
      <point x="176" y="-45" type="curve" smooth="yes"/>
      <point x="176" y="-52"/>
      <point x="175" y="-59"/>
      <point x="173" y="-67" type="curve" smooth="yes"/>
      <point x="172" y="-72"/>
      <point x="171" y="-77"/>
      <point x="171" y="-81" type="curve" smooth="yes"/>
      <point x="171" y="-114"/>
      <point x="253" y="-144"/>
      <point x="344" y="-144" type="curve" smooth="yes"/>
      <point x="411" y="-144"/>
      <point x="465" y="-132"/>
      <point x="512" y="-106" type="curve"/>
      <point x="562" y="-80"/>
      <point x="594" y="-39"/>
      <point x="594" y="-1" type="curve" smooth="yes"/>
      <point x="594" y="6"/>
      <point x="590" y="17"/>
    </contour>
    <contour>
      <point x="600" y="129" type="curve"/>
      <point x="628" y="158"/>
      <point x="649" y="192"/>
      <point x="667" y="241" type="curve"/>
      <point x="686" y="296"/>
      <point x="702" y="384"/>
      <point x="702" y="440" type="curve" smooth="yes"/>
      <point x="702" y="492"/>
      <point x="685" y="546"/>
      <point x="658" y="582" type="curve" smooth="yes"/>
      <point x="627" y="623"/>
      <point x="571" y="647"/>
      <point x="507" y="647" type="curve" smooth="yes"/>
      <point x="414" y="647"/>
      <point x="327" y="599"/>
      <point x="274" y="520" type="curve" smooth="yes"/>
      <point x="221" y="440"/>
      <point x="187" y="331"/>
      <point x="187" y="237" type="curve" smooth="yes"/>
      <point x="187" y="179"/>
      <point x="204" y="124"/>
      <point x="235" y="87" type="curve" smooth="yes"/>
      <point x="265" y="50"/>
      <point x="295" y="33"/>
      <point x="342" y="25" type="curve"/>
      <point x="323" y="42"/>
      <point x="317" y="54"/>
      <point x="317" y="73" type="curve" smooth="yes"/>
      <point x="317" y="127"/>
      <point x="379" y="166"/>
      <point x="465" y="166" type="curve" smooth="yes"/>
      <point x="518" y="166"/>
      <point x="553" y="156"/>
    </contour>
    <contour>
      <point x="547" y="71" type="curve"/>
      <point x="516" y="90"/>
      <point x="486" y="98"/>
      <point x="443" y="98" type="curve" smooth="yes"/>
      <point x="393" y="98"/>
      <point x="360" y="80"/>
      <point x="360" y="54" type="curve" smooth="yes"/>
      <point x="360" y="36"/>
      <point x="383" y="24"/>
      <point x="417" y="24" type="curve" smooth="yes"/>
      <point x="462" y="24"/>
      <point x="512" y="42"/>
    </contour>
  </outline>
</glyph>
<glyph name="R" format="1">
  <advance width="700"/>
  <unicode hex="0052"/>
  <outline>
    <contour>
      <point x="398" y="326" type="line"/>
      <point x="267" y="326" type="line"/>
      <point x="231" y="128" type="line" smooth="yes"/>
      <point x="229" y="115"/>
      <point x="227" y="97"/>
      <point x="227" y="87" type="curve" smooth="yes"/>
      <point x="227" y="53"/>
      <point x="248" y="34"/>
      <point x="285" y="31" type="curve" smooth="yes"/>
      <point x="314" y="29" type="line"/>
      <point x="309" y="0" type="line"/>
      <point x="21" y="0" type="line"/>
      <point x="26" y="29" type="line"/>
      <point x="43" y="31" type="line" smooth="yes"/>
      <point x="98" y="38"/>
      <point x="117" y="59"/>
      <point x="131" y="128" type="curve"/>
      <point x="208" y="553" type="line" smooth="yes"/>
      <point x="210" y="561"/>
      <point x="212" y="586"/>
      <point x="212" y="596" type="curve" smooth="yes"/>
      <point x="212" y="628"/>
      <point x="194" y="645"/>
      <point x="155" y="650" type="curve" smooth="yes"/>
      <point x="139" y="652" type="line"/>
      <point x="145" y="681" type="line"/>
      <point x="514" y="681" type="line" smooth="yes"/>
      <point x="577" y="681"/>
      <point x="636" y="670"/>
      <point x="666" y="653" type="curve" smooth="yes"/>
      <point x="707" y="630"/>
      <point x="731" y="586"/>
      <point x="731" y="533" type="curve" smooth="yes"/>
      <point x="731" y="470"/>
      <point x="697" y="408"/>
      <point x="642" y="370" type="curve" smooth="yes"/>
      <point x="609" y="347"/>
      <point x="573" y="335"/>
      <point x="510" y="326" type="curve"/>
      <point x="630" y="114" type="line" smooth="yes"/>
      <point x="662" y="56"/>
      <point x="674" y="47"/>
      <point x="736" y="29" type="curve"/>
      <point x="731" y="0" type="line"/>
      <point x="567" y="0" type="line"/>
    </contour>
    <contour>
      <point x="274" y="363" type="line"/>
      <point x="399" y="363" type="line" smooth="yes"/>
      <point x="481" y="363"/>
      <point x="522" y="372"/>
      <point x="557" y="398" type="curve" smooth="yes"/>
      <point x="598" y="429"/>
      <point x="624" y="481"/>
      <point x="624" y="531" type="curve" smooth="yes"/>
      <point x="624" y="570"/>
      <point x="604" y="602"/>
      <point x="570" y="621" type="curve"/>
      <point x="548" y="632"/>
      <point x="505" y="639"/>
      <point x="454" y="639" type="curve" smooth="yes"/>
      <point x="353" y="639"/>
      <point x="321" y="624"/>
      <point x="312" y="571" type="curve" smooth="yes"/>
    </contour>
  </outline>
</glyph>
<glyph name="V" format="1">
  <advance width="680"/>
  <unicode hex="0056"/>
  <outline>
    <contour>
      <point x="364" y="681" type="line"/>
      <point x="359" y="652" type="line"/>
      <point x="339" y="650" type="line" smooth="yes"/>
      <point x="301" y="646"/>
      <point x="277" y="625"/>
      <point x="277" y="594" type="curve" smooth="yes"/>
      <point x="277" y="582"/>
      <point x="278" y="568"/>
      <point x="281" y="553" type="curve" smooth="yes"/>
      <point x="368" y="107" type="line"/>
      <point x="622" y="555" type="line" smooth="yes"/>
      <point x="630" y="570"/>
      <point x="636" y="590"/>
      <point x="636" y="603" type="curve" smooth="yes"/>
      <point x="636" y="629"/>
      <point x="614" y="646"/>
      <point x="576" y="650" type="curve" smooth="yes"/>
      <point x="558" y="652" type="line"/>
      <point x="564" y="681" type="line"/>
      <point x="815" y="681" type="line"/>
      <point x="810" y="652" type="line"/>
      <point x="797" y="650" type="line" smooth="yes"/>
      <point x="745" y="642"/>
      <point x="712" y="616"/>
      <point x="678" y="555" type="curve"/>
      <point x="358" y="0" type="line"/>
      <point x="297" y="0" type="line"/>
      <point x="172" y="575" type="line" smooth="yes"/>
      <point x="161" y="626"/>
      <point x="145" y="642"/>
      <point x="100" y="650" type="curve"/>
      <point x="87" y="652" type="line"/>
      <point x="92" y="681" type="line"/>
    </contour>
  </outline>
</glyph>
<glyph name="backslash" format="1">
  <advance width="600"/>
  <unicode hex="005C"/>
  <outline>
    <contour>
      <point x="162" y="717" type="line"/>
      <point x="542" y="0" type="line"/>
      <point x="465" y="0" type="line"/>
      <point x="84" y="717" type="line"/>
    </contour>
  </outline>
</glyph>
<glyph name="grave" format="1">
  <advance width="340"/>
  <unicode hex="0060"/>
  <outline>
    <contour>
      <point x="364" y="538" type="line"/>
      <point x="252" y="583" type="line" smooth="yes"/>
      <point x="201" y="603"/>
      <point x="182" y="620"/>
      <point x="182" y="647" type="curve" smooth="yes"/>
      <point x="182" y="670"/>
      <point x="202" y="689"/>
      <point x="226" y="689" type="curve" smooth="yes"/>
      <point x="246" y="689"/>
      <point x="269" y="674"/>
      <point x="308" y="635" type="curve" smooth="yes"/>
      <point x="377" y="567" type="line"/>
    </contour>
  </outline>
</glyph>
<glyph name="q" format="1">
  <advance width="560"/>
  <unicode hex="0071"/>
  <outline>
    <contour>
      <point x="490" y="425" type="curve"/>
      <point x="529" y="486" type="line"/>
      <point x="584" y="486" type="line"/>
      <point x="476" y="-107" type="line" smooth="yes"/>
      <point x="475" y="-114"/>
      <point x="474" y="-126"/>
      <point x="474" y="-133" type="curve" smooth="yes"/>
      <point x="474" y="-161"/>
      <point x="492" y="-176"/>
      <point x="533" y="-181" type="curve" smooth="yes"/>
      <point x="549" y="-183" type="line"/>
      <point x="543" y="-212" type="line"/>
      <point x="279" y="-212" type="line"/>
      <point x="285" y="-183" type="line"/>
      <point x="301" y="-181" type="line" smooth="yes"/>
      <point x="353" y="-175"/>
      <point x="376" y="-155"/>
      <point x="384" y="-107" type="curve" smooth="yes"/>
      <point x="425" y="118" type="line"/>
      <point x="378" y="36"/>
      <point x="309" y="-9"/>
      <point x="230" y="-9" type="curve" smooth="yes"/>
      <point x="131" y="-9"/>
      <point x="65" y="68"/>
      <point x="65" y="184" type="curve" smooth="yes"/>
      <point x="65" y="350"/>
      <point x="193" y="495"/>
      <point x="338" y="495" type="curve" smooth="yes"/>
      <point x="400" y="495"/>
      <point x="443" y="475"/>
    </contour>
    <contour>
      <point x="476" y="396" type="curve"/>
      <point x="472" y="401"/>
      <point x="467" y="405"/>
      <point x="465" y="408" type="curve" smooth="yes"/>
      <point x="440" y="433"/>
      <point x="401" y="448"/>
      <point x="359" y="448" type="curve" smooth="yes"/>
      <point x="300" y="448"/>
      <point x="249" y="416"/>
      <point x="211" y="354" type="curve" smooth="yes"/>
      <point x="179" y="303"/>
      <point x="158" y="226"/>
      <point x="158" y="159" type="curve" smooth="yes"/>
      <point x="158" y="83"/>
      <point x="193" y="38"/>
      <point x="253" y="38" type="curve" smooth="yes"/>
      <point x="313" y="38"/>
      <point x="375" y="83"/>
      <point x="413" y="154" type="curve" smooth="yes"/>
      <point x="442" y="207"/>
      <point x="453" y="250"/>
    </contour>
  </outline>
</glyph>
<glyph name="braceleft" format="1">
  <advance width="360"/>
  <unicode hex="007B"/>
  <outline>
    <contour>
      <point x="289" y="-125" type="curve"/>
      <point x="283" y="-155" type="line"/>
      <point x="232" y="-155"/>
      <point x="202" y="-146"/>
      <point x="181" y="-127" type="curve" smooth="yes"/>
      <point x="158" y="-107"/>
      <point x="144" y="-75"/>
      <point x="144" y="-42" type="curve" smooth="yes"/>
      <point x="144" y="-30"/>
      <point x="147" y="6"/>
      <point x="150" y="20" type="curve" smooth="yes"/>
      <point x="173" y="150" type="line" smooth="yes"/>
      <point x="176" y="168"/>
      <point x="178" y="189"/>
      <point x="178" y="202" type="curve" smooth="yes"/>
      <point x="178" y="240"/>
      <point x="162" y="265"/>
      <point x="125" y="284" type="curve"/>
      <point x="130" y="312" type="line"/>
      <point x="190" y="333"/>
      <point x="212" y="367"/>
      <point x="225" y="455" type="curve"/>
      <point x="248" y="585" type="line" smooth="yes"/>
      <point x="257" y="638"/>
      <point x="258" y="639"/>
      <point x="271" y="663" type="curve" smooth="yes"/>
      <point x="304" y="725"/>
      <point x="351" y="750"/>
      <point x="435" y="750" type="curve" smooth="yes"/>
      <point x="439" y="750" type="line"/>
      <point x="434" y="719" type="line"/>
      <point x="359" y="720"/>
      <point x="335" y="691"/>
      <point x="318" y="585" type="curve"/>
      <point x="295" y="455" type="line"/>
      <point x="281" y="364"/>
      <point x="256" y="321"/>
      <point x="201" y="298" type="curve"/>
      <point x="235" y="276"/>
      <point x="248" y="251"/>
      <point x="248" y="204" type="curve" smooth="yes"/>
      <point x="248" y="183"/>
      <point x="246" y="163"/>
      <point x="241" y="132" type="curve" smooth="yes"/>
      <point x="220" y="9" type="line" smooth="yes"/>
      <point x="218" y="-7"/>
      <point x="214" y="-48"/>
      <point x="214" y="-61" type="curve" smooth="yes"/>
      <point x="214" y="-103"/>
      <point x="234" y="-120"/>
    </contour>
  </outline>
</glyph>
<glyph name="asciitilde" format="1">
  <advance width="600"/>
  <unicode hex="007E"/>
  <outline>
    <contour>
      <point x="552" y="332" type="curve"/>
      <point x="595" y="285" type="line"/>
      <point x="558" y="214"/>
      <point x="507" y="173"/>
      <point x="455" y="173" type="curve" smooth="yes"/>
      <point x="432" y="173"/>
      <point x="407" y="180"/>
      <point x="362" y="199" type="curve" smooth="yes"/>
      <point x="308" y="221" type="line" smooth="yes"/>
      <point x="265" y="239"/>
      <point x="254" y="242"/>
      <point x="235" y="242" type="curve" smooth="yes"/>
      <point x="209" y="242"/>
      <point x="185" y="229"/>
      <point x="168" y="207" type="curve"/>
      <point x="158" y="192"/>
      <point x="152" y="184"/>
      <point x="133" y="152" type="curve"/>
      <point x="91" y="199" type="line"/>
      <point x="142" y="288"/>
      <point x="179" y="319"/>
      <point x="235" y="319" type="curve" smooth="yes"/>
      <point x="256" y="319"/>
      <point x="282" y="313"/>
      <point x="311" y="300" type="curve" smooth="yes"/>
      <point x="376" y="273" type="line" smooth="yes"/>
      <point x="419" y="255"/>
      <point x="437" y="250"/>
      <point x="456" y="250" type="curve" smooth="yes"/>
      <point x="489" y="250"/>
      <point x="517" y="274"/>
    </contour>
  </outline>
</glyph>
<glyph name="cent" format="1">
  <advance width="620"/>
  <unicode hex="00A2"/>
  <outline>
    <contour>
      <point x="441" y="552" type="curve"/>
      <point x="369" y="158" type="line"/>
      <point x="379" y="158" type="line" smooth="yes"/>
      <point x="426" y="158"/>
      <point x="478" y="189"/>
      <point x="526" y="245" type="curve"/>
      <point x="560" y="225" type="line"/>
      <point x="510" y="156"/>
      <point x="447" y="121"/>
      <point x="361" y="113" type="curve"/>
      <point x="335" y="-29" type="line"/>
      <point x="293" y="-29" type="line"/>
      <point x="319" y="113" type="line"/>
      <point x="265" y="123"/>
      <point x="233" y="135"/>
      <point x="207" y="157" type="curve" smooth="yes"/>
      <point x="168" y="190"/>
      <point x="148" y="241"/>
      <point x="148" y="302" type="curve" smooth="yes"/>
      <point x="148" y="392"/>
      <point x="190" y="482"/>
      <point x="257" y="538" type="curve" smooth="yes"/>
      <point x="298" y="572"/>
      <point x="344" y="590"/>
      <point x="407" y="596" type="curve"/>
      <point x="428" y="715" type="line"/>
      <point x="470" y="715" type="line"/>
      <point x="449" y="596" type="line"/>
      <point x="537" y="587"/>
      <point x="596" y="539"/>
      <point x="596" y="478" type="curve" smooth="yes"/>
      <point x="596" y="439"/>
      <point x="565" y="406"/>
      <point x="529" y="406" type="curve" smooth="yes"/>
      <point x="504" y="406"/>
      <point x="485" y="425"/>
      <point x="485" y="450" type="curve" smooth="yes"/>
      <point x="485" y="459"/>
      <point x="485" y="460"/>
      <point x="494" y="478" type="curve" smooth="yes"/>
      <point x="497" y="484"/>
      <point x="499" y="491"/>
      <point x="499" y="496" type="curve" smooth="yes"/>
      <point x="499" y="525"/>
      <point x="478" y="545"/>
    </contour>
    <contour>
      <point x="329" y="166" type="curve"/>
      <point x="399" y="552" type="line"/>
      <point x="358" y="549"/>
      <point x="329" y="530"/>
      <point x="300" y="487" type="curve" smooth="yes"/>
      <point x="267" y="438"/>
      <point x="245" y="359"/>
      <point x="245" y="289" type="curve" smooth="yes"/>
      <point x="245" y="223"/>
      <point x="272" y="183"/>
    </contour>
  </outline>
</glyph>
<glyph name="brokenbar" format="1">
  <advance width="600"/>
  <unicode hex="00A6"/>
  <outline>
    <contour>
      <point x="372" y="722" type="line"/>
      <point x="372" y="435" type="line"/>
      <point x="294" y="435" type="line"/>
      <point x="294" y="722" type="line"/>
    </contour>
    <contour>
      <point x="372" y="287" type="line"/>
      <point x="372" y="0" type="line"/>
      <point x="294" y="0" type="line"/>
      <point x="294" y="287" type="line"/>
    </contour>
  </outline>
</glyph>
<glyph name="logicalnot" format="1">
  <advance width="600"/>
  <unicode hex="00AC"/>
  <outline>
    <contour>
      <point x="91" y="369" type="line"/>
      <point x="595" y="369" type="line"/>
      <point x="595" y="80" type="line"/>
      <point x="517" y="80" type="line"/>
      <point x="517" y="290" type="line"/>
      <point x="91" y="290" type="line"/>
    </contour>
  </outline>
</glyph>
<glyph name="registered" format="1">
  <advance width="740"/>
  <unicode hex="00AE"/>
  <outline>
    <contour>
      <point x="510" y="361" type="curve"/>
      <point x="599" y="235" type="line"/>
      <point x="616" y="213"/>
      <point x="629" y="206"/>
      <point x="658" y="200" type="curve"/>
      <point x="658" y="178" type="line"/>
      <point x="562" y="178" type="line"/>
      <point x="438" y="354" type="line"/>
      <point x="364" y="354" type="line"/>
      <point x="364" y="260" type="line" smooth="yes"/>
      <point x="364" y="218"/>
      <point x="371" y="205"/>
      <point x="397" y="203" type="curve" smooth="yes"/>
      <point x="419" y="201" type="line"/>
      <point x="419" y="178" type="line"/>
      <point x="254" y="178" type="line"/>
      <point x="254" y="201" type="line"/>
      <point x="270" y="203" type="line" smooth="yes"/>
      <point x="297" y="206"/>
      <point x="303" y="217"/>
      <point x="303" y="260" type="curve" smooth="yes"/>
      <point x="303" y="477" type="line" smooth="yes"/>
      <point x="303" y="520"/>
      <point x="297" y="530"/>
      <point x="270" y="534" type="curve" smooth="yes"/>
      <point x="254" y="536" type="line"/>
      <point x="254" y="558" type="line"/>
      <point x="480" y="558" type="line" smooth="yes"/>
      <point x="561" y="558"/>
      <point x="610" y="522"/>
      <point x="610" y="462" type="curve" smooth="yes"/>
      <point x="610" y="409"/>
      <point x="572" y="371"/>
    </contour>
    <contour>
      <point x="364" y="384" type="line"/>
      <point x="453" y="384" type="line" smooth="yes"/>
      <point x="512" y="384"/>
      <point x="545" y="410"/>
      <point x="545" y="458" type="curve" smooth="yes"/>
      <point x="545" y="506"/>
      <point x="511" y="529"/>
      <point x="441" y="529" type="curve" smooth="yes"/>
      <point x="385" y="529"/>
      <point x="364" y="521"/>
      <point x="364" y="500" type="curve" smooth="yes"/>
    </contour>
    <contour>
      <point x="438" y="700" type="curve" smooth="yes"/>
      <point x="521" y="700"/>
      <point x="616" y="660"/>
      <point x="681" y="597" type="curve" smooth="yes"/>
      <point x="748" y="533"/>
      <point x="784" y="448"/>
      <point x="784" y="353" type="curve" smooth="yes"/>
      <point x="784" y="157"/>
      <point x="628" y="0"/>
      <point x="434" y="0" type="curve" smooth="yes"/>
      <point x="240" y="0"/>
      <point x="84" y="157"/>
      <point x="84" y="352" type="curve" smooth="yes"/>
      <point x="84" y="448"/>
      <point x="120" y="535"/>
      <point x="187" y="597" type="curve" smooth="yes"/>
      <point x="257" y="663"/>
      <point x="347" y="700"/>
    </contour>
    <contour>
      <point x="437" y="658" type="curve" smooth="yes"/>
      <point x="357" y="658"/>
      <point x="277" y="625"/>
      <point x="217" y="568" type="curve" smooth="yes"/>
      <point x="158" y="511"/>
      <point x="127" y="437"/>
      <point x="127" y="352" type="curve" smooth="yes"/>
      <point x="127" y="180"/>
      <point x="264" y="42"/>
      <point x="434" y="42" type="curve" smooth="yes"/>
      <point x="604" y="42"/>
      <point x="741" y="180"/>
      <point x="741" y="353" type="curve" smooth="yes"/>
      <point x="741" y="437"/>
      <point x="709" y="513"/>
      <point x="651" y="568" type="curve" smooth="yes"/>
      <point x="592" y="623"/>
      <point x="510" y="658"/>
    </contour>
  </outline>
</glyph>
<glyph name="macron" format="1">
  <advance width="440"/>
  <unicode hex="00AF"/>
  <outline>
    <contour>
      <point x="197" y="638" type="line"/>
      <point x="484" y="638" type="line"/>
      <point x="465" y="581" type="line"/>
      <point x="178" y="581" type="line"/>
    </contour>
  </outline>
</glyph>
<glyph name="degree" format="1">
  <advance width="400"/>
  <unicode hex="00B0"/>
  <outline>
    <contour>
      <point x="273" y="686" type="curve" smooth="yes"/>
      <point x="356" y="686"/>
      <point x="420" y="619"/>
      <point x="420" y="533" type="curve" smooth="yes"/>
      <point x="420" y="447"/>
      <point x="354" y="380"/>
      <point x="270" y="380" type="curve" smooth="yes"/>
      <point x="186" y="380"/>
      <point x="120" y="448"/>
      <point x="120" y="534" type="curve" smooth="yes"/>
      <point x="120" y="619"/>
      <point x="188" y="686"/>
    </contour>
    <contour>
      <point x="272" y="629" type="curve" smooth="yes"/>
      <point x="218" y="629"/>
      <point x="176" y="586"/>
      <point x="176" y="533" type="curve" smooth="yes"/>
      <point x="176" y="480"/>
      <point x="219" y="437"/>
      <point x="270" y="437" type="curve" smooth="yes"/>
      <point x="322" y="437"/>
      <point x="363" y="479"/>
      <point x="363" y="533" type="curve" smooth="yes"/>
      <point x="363" y="586"/>
      <point x="322" y="629"/>
    </contour>
  </outline>
</glyph>
<glyph name="threesuperior" format="1">
  <advance width="372"/>
  <unicode hex="00B3"/>
  <outline>
    <contour>
      <point x="208" y="476" type="curve"/>
      <point x="215" y="513" type="line"/>
      <point x="226" y="512"/>
      <point x="232" y="512"/>
      <point x="238" y="512" type="curve" smooth="yes"/>
      <point x="314" y="512"/>
      <point x="362" y="546"/>
      <point x="362" y="600" type="curve" smooth="yes"/>
      <point x="362" y="636"/>
      <point x="336" y="656"/>
      <point x="289" y="656" type="curve" smooth="yes"/>
      <point x="243" y="656"/>
      <point x="204" y="637"/>
      <point x="204" y="615" type="curve" smooth="yes"/>
      <point x="204" y="612"/>
      <point x="205" y="609"/>
      <point x="207" y="601" type="curve" smooth="yes"/>
      <point x="208" y="596"/>
      <point x="209" y="591"/>
      <point x="209" y="589" type="curve" smooth="yes"/>
      <point x="209" y="570"/>
      <point x="186" y="550"/>
      <point x="163" y="550" type="curve" smooth="yes"/>
      <point x="142" y="550"/>
      <point x="127" y="564"/>
      <point x="127" y="582" type="curve" smooth="yes"/>
      <point x="127" y="638"/>
      <point x="209" y="689"/>
      <point x="297" y="689" type="curve" smooth="yes"/>
      <point x="383" y="689"/>
      <point x="439" y="653"/>
      <point x="439" y="599" type="curve" smooth="yes"/>
      <point x="439" y="555"/>
      <point x="399" y="515"/>
      <point x="339" y="499" type="curve"/>
      <point x="393" y="488"/>
      <point x="422" y="457"/>
      <point x="422" y="411" type="curve" smooth="yes"/>
      <point x="422" y="328"/>
      <point x="331" y="265"/>
      <point x="210" y="265" type="curve" smooth="yes"/>
      <point x="128" y="265"/>
      <point x="70" y="299"/>
      <point x="70" y="347" type="curve" smooth="yes"/>
      <point x="70" y="376"/>
      <point x="95" y="403"/>
      <point x="122" y="403" type="curve" smooth="yes"/>
      <point x="141" y="403"/>
      <point x="156" y="389"/>
      <point x="156" y="372" type="curve" smooth="yes"/>
      <point x="156" y="364"/>
      <point x="154" y="360"/>
      <point x="147" y="348" type="curve" smooth="yes"/>
      <point x="144" y="343"/>
      <point x="143" y="340"/>
      <point x="143" y="336" type="curve" smooth="yes"/>
      <point x="143" y="314"/>
      <point x="174" y="298"/>
      <point x="219" y="298" type="curve" smooth="yes"/>
      <point x="297" y="298"/>
      <point x="345" y="341"/>
      <point x="345" y="411" type="curve" smooth="yes"/>
      <point x="345" y="459"/>
      <point x="317" y="480"/>
      <point x="256" y="480" type="curve" smooth="yes"/>
      <point x="241" y="480"/>
      <point x="227" y="479"/>
    </contour>
  </outline>
</glyph>
<glyph name="acute" format="1">
  <advance width="320"/>
  <unicode hex="00B4"/>
  <outline>
    <contour>
      <point x="190" y="538" type="line"/>
      <point x="178" y="567" type="line"/>
      <point x="247" y="635" type="line"/>
      <point x="288" y="674"/>
      <point x="310" y="689"/>
      <point x="331" y="689" type="curve" smooth="yes"/>
      <point x="353" y="689"/>
      <point x="373" y="669"/>
      <point x="373" y="646" type="curve" smooth="yes"/>
      <point x="373" y="621"/>
      <point x="352" y="602"/>
      <point x="303" y="583" type="curve" smooth="yes"/>
    </contour>
  </outline>
</glyph>
<glyph name="paragraph" format="1">
  <advance width="620"/>
  <unicode hex="00B6"/>
  <outline>
    <contour>
      <point x="602" y="0" type="line"/>
      <point x="163" y="0" type="line"/>
      <point x="169" y="32" type="line"/>
      <point x="187" y="34" type="line"/>
      <point x="262" y="40"/>
      <point x="272" y="51"/>
      <point x="290" y="137" type="curve"/>
      <point x="319" y="298" type="line"/>
      <point x="265" y="298"/>
      <point x="233" y="303"/>
      <point x="200" y="315" type="curve" smooth="yes"/>
      <point x="147" y="335"/>
      <point x="112" y="391"/>
      <point x="112" y="455" type="curve" smooth="yes"/>
      <point x="112" y="532"/>
      <point x="161" y="611"/>
      <point x="230" y="645" type="curve"/>
      <point x="281" y="669"/>
      <point x="317" y="675"/>
      <point x="420" y="675" type="curve" smooth="yes"/>
      <point x="718" y="675" type="line"/>
      <point x="712" y="645" type="line"/>
      <point x="700" y="643" type="line"/>
      <point x="630" y="634"/>
      <point x="623" y="626"/>
      <point x="609" y="542" type="curve"/>
      <point x="536" y="137" type="line" smooth="yes"/>
      <point x="530" y="104"/>
      <point x="530" y="100"/>
      <point x="530" y="86" type="curve" smooth="yes"/>
      <point x="530" y="53"/>
      <point x="546" y="39"/>
      <point x="590" y="34" type="curve" smooth="yes"/>
      <point x="608" y="32" type="line"/>
    </contour>
    <contour>
      <point x="556" y="635" type="line"/>
      <point x="452" y="635" type="line"/>
      <point x="345" y="46" type="line"/>
      <point x="448" y="46" type="line"/>
    </contour>
  </outline>
</glyph>
<glyph name="onesuperior" format="1">
  <advance width="372"/>
  <unicode hex="00B9"/>
  <outline>
    <contour>
      <point x="333" y="681" type="line"/>
      <point x="273" y="352" type="line" smooth="yes"/>
      <point x="272" y="346"/>
      <point x="270" y="332"/>
      <point x="270" y="328" type="curve" smooth="yes"/>
      <point x="270" y="311"/>
      <point x="282" y="304"/>
      <point x="318" y="302" type="curve"/>
      <point x="339" y="300" type="line"/>
      <point x="334" y="273" type="line"/>
      <point x="114" y="273" type="line"/>
      <point x="119" y="300" type="line"/>
      <point x="188" y="305"/>
      <point x="198" y="310"/>
      <point x="203" y="349" type="curve"/>
      <point x="248" y="593" type="line" smooth="yes"/>
      <point x="249" y="598"/>
      <point x="249" y="602"/>
      <point x="249" y="605" type="curve" smooth="yes"/>
      <point x="249" y="628"/>
      <point x="241" y="631"/>
      <point x="178" y="631" type="curve"/>
      <point x="183" y="658" type="line"/>
      <point x="251" y="668"/>
      <point x="258" y="669"/>
      <point x="302" y="681" type="curve"/>
    </contour>
  </outline>
</glyph>
<glyph name="ordmasculine" format="1">
  <advance width="400"/>
  <unicode hex="00BA"/>
  <outline>
    <contour>
      <point x="330" y="694" type="curve" smooth="yes"/>
      <point x="402" y="694"/>
      <point x="449" y="646"/>
      <point x="449" y="572" type="curve" smooth="yes"/>
      <point x="449" y="471"/>
      <point x="371" y="388"/>
      <point x="275" y="388" type="curve" smooth="yes"/>
      <point x="205" y="388"/>
      <point x="157" y="436"/>
      <point x="157" y="506" type="curve" smooth="yes"/>
      <point x="157" y="609"/>
      <point x="235" y="694"/>
    </contour>
    <contour>
      <point x="327" y="661" type="curve" smooth="yes"/>
      <point x="300" y="661"/>
      <point x="274" y="646"/>
      <point x="257" y="621" type="curve"/>
      <point x="235" y="591"/>
      <point x="219" y="535"/>
      <point x="219" y="492" type="curve" smooth="yes"/>
      <point x="219" y="447"/>
      <point x="241" y="421"/>
      <point x="280" y="421" type="curve" smooth="yes"/>
      <point x="312" y="421"/>
      <point x="340" y="440"/>
      <point x="359" y="474" type="curve" smooth="yes"/>
      <point x="375" y="504"/>
      <point x="387" y="553"/>
      <point x="387" y="587" type="curve" smooth="yes"/>
      <point x="387" y="634"/>
      <point x="365" y="661"/>
    </contour>
    <contour>
      <point x="101" y="341" type="line"/>
      <point x="455" y="341" type="line"/>
      <point x="448" y="304" type="line"/>
      <point x="94" y="304" type="line"/>
    </contour>
  </outline>
</glyph>
<glyph name="onequarter" format="1">
  <advance width="930"/>
  <unicode hex="00BC"/>
  <outline>
    <contour>
      <point x="310" y="681" type="line"/>
      <point x="250" y="352" type="line" smooth="yes"/>
      <point x="249" y="346"/>
      <point x="247" y="332"/>
      <point x="247" y="328" type="curve" smooth="yes"/>
      <point x="247" y="311"/>
      <point x="259" y="304"/>
      <point x="295" y="302" type="curve"/>
      <point x="316" y="300" type="line"/>
      <point x="311" y="273" type="line"/>
      <point x="91" y="273" type="line"/>
      <point x="96" y="300" type="line"/>
      <point x="165" y="305"/>
      <point x="175" y="310"/>
      <point x="180" y="349" type="curve"/>
      <point x="225" y="593" type="line" smooth="yes"/>
      <point x="226" y="598"/>
      <point x="226" y="602"/>
      <point x="226" y="605" type="curve" smooth="yes"/>
      <point x="226" y="628"/>
      <point x="218" y="631"/>
      <point x="155" y="631" type="curve"/>
      <point x="160" y="658" type="line"/>
      <point x="228" y="668"/>
      <point x="235" y="669"/>
      <point x="279" y="681" type="curve"/>
    </contour>
    <contour>
      <point x="765" y="681" type="line"/>
      <point x="270" y="0" type="line"/>
      <point x="214" y="0" type="line"/>
      <point x="709" y="681" type="line"/>
    </contour>
    <contour>
      <point x="870" y="408" type="line"/>
      <point x="824" y="149" type="line"/>
      <point x="913" y="149" type="line"/>
      <point x="894" y="109" type="line"/>
      <point x="816" y="109" type="line"/>
      <point x="810" y="75" type="line" smooth="yes"/>
      <point x="809" y="71"/>
      <point x="809" y="70"/>
      <point x="809" y="64" type="curve" smooth="yes"/>
      <point x="809" y="45"/>
      <point x="822" y="30"/>
      <point x="839" y="29" type="curve" smooth="yes"/>
      <point x="865" y="27" type="line"/>
      <point x="859" y="0" type="line"/>
      <point x="668" y="0" type="line"/>
      <point x="673" y="27" type="line"/>
      <point x="693" y="29" type="line"/>
      <point x="721" y="30"/>
      <point x="738" y="48"/>
      <point x="742" y="81" type="curve"/>
      <point x="747" y="109" type="line"/>
      <point x="557" y="109" type="line"/>
      <point x="549" y="137" type="line"/>
      <point x="804" y="408" type="line"/>
    </contour>
    <contour>
      <point x="755" y="149" type="line"/>
      <point x="789" y="339" type="line"/>
      <point x="610" y="149" type="line"/>
    </contour>
  </outline>
</glyph>
<glyph name="onehalf" format="1">
  <advance width="930"/>
  <unicode hex="00BD"/>
  <outline>
    <contour>
      <point x="310" y="681" type="line"/>
      <point x="250" y="352" type="line" smooth="yes"/>
      <point x="249" y="346"/>
      <point x="247" y="332"/>
      <point x="247" y="328" type="curve" smooth="yes"/>
      <point x="247" y="311"/>
      <point x="259" y="304"/>
      <point x="295" y="302" type="curve"/>
      <point x="316" y="300" type="line"/>
      <point x="311" y="273" type="line"/>
      <point x="91" y="273" type="line"/>
      <point x="96" y="300" type="line"/>
      <point x="165" y="305"/>
      <point x="175" y="310"/>
      <point x="180" y="349" type="curve"/>
      <point x="225" y="593" type="line" smooth="yes"/>
      <point x="226" y="598"/>
      <point x="226" y="602"/>
      <point x="226" y="605" type="curve" smooth="yes"/>
      <point x="226" y="628"/>
      <point x="218" y="631"/>
      <point x="155" y="631" type="curve"/>
      <point x="160" y="658" type="line"/>
      <point x="228" y="668"/>
      <point x="235" y="669"/>
      <point x="279" y="681" type="curve"/>
    </contour>
    <contour>
      <point x="755" y="681" type="line"/>
      <point x="260" y="0" type="line"/>
      <point x="204" y="0" type="line"/>
      <point x="699" y="681" type="line"/>
    </contour>
    <contour>
      <point x="913" y="117" type="line"/>
      <point x="861" y="0" type="line"/>
      <point x="554" y="0" type="line"/>
      <point x="563" y="49" type="line"/>
      <point x="645" y="87"/>
      <point x="698" y="121"/>
      <point x="754" y="174" type="curve" smooth="yes"/>
      <point x="815" y="231"/>
      <point x="843" y="277"/>
      <point x="843" y="319" type="curve" smooth="yes"/>
      <point x="843" y="357"/>
      <point x="815" y="379"/>
      <point x="769" y="379" type="curve" smooth="yes"/>
      <point x="723" y="379"/>
      <point x="679" y="354"/>
      <point x="679" y="327" type="curve" smooth="yes"/>
      <point x="679" y="321"/>
      <point x="680" y="319"/>
      <point x="685" y="310" type="curve" smooth="yes"/>
      <point x="688" y="304"/>
      <point x="690" y="298"/>
      <point x="690" y="293" type="curve" smooth="yes"/>
      <point x="690" y="273"/>
      <point x="666" y="252"/>
      <point x="642" y="252" type="curve" smooth="yes"/>
      <point x="622" y="252"/>
      <point x="606" y="269"/>
      <point x="606" y="290" type="curve" smooth="yes"/>
      <point x="606" y="356"/>
      <point x="691" y="416"/>
      <point x="784" y="416" type="curve" smooth="yes"/>
      <point x="867" y="416"/>
      <point x="925" y="376"/>
      <point x="925" y="320" type="curve" smooth="yes"/>
      <point x="925" y="237"/>
      <point x="836" y="150"/>
      <point x="656" y="57" type="curve"/>
      <point x="787" y="57" type="line" smooth="yes"/>
      <point x="833" y="57"/>
      <point x="852" y="71"/>
      <point x="883" y="128" type="curve"/>
    </contour>
  </outline>
</glyph>
<glyph name="threequarters" format="1">
  <advance width="930"/>
  <unicode hex="00BE"/>
  <outline>
    <contour>
      <point x="237" y="476" type="curve"/>
      <point x="244" y="513" type="line"/>
      <point x="255" y="512"/>
      <point x="261" y="512"/>
      <point x="267" y="512" type="curve" smooth="yes"/>
      <point x="343" y="512"/>
      <point x="391" y="546"/>
      <point x="391" y="600" type="curve" smooth="yes"/>
      <point x="391" y="636"/>
      <point x="365" y="656"/>
      <point x="318" y="656" type="curve" smooth="yes"/>
      <point x="272" y="656"/>
      <point x="233" y="637"/>
      <point x="233" y="615" type="curve" smooth="yes"/>
      <point x="233" y="612"/>
      <point x="234" y="609"/>
      <point x="236" y="601" type="curve" smooth="yes"/>
      <point x="237" y="596"/>
      <point x="238" y="591"/>
      <point x="238" y="589" type="curve" smooth="yes"/>
      <point x="238" y="570"/>
      <point x="215" y="550"/>
      <point x="192" y="550" type="curve" smooth="yes"/>
      <point x="171" y="550"/>
      <point x="156" y="564"/>
      <point x="156" y="582" type="curve" smooth="yes"/>
      <point x="156" y="638"/>
      <point x="238" y="689"/>
      <point x="326" y="689" type="curve" smooth="yes"/>
      <point x="412" y="689"/>
      <point x="468" y="653"/>
      <point x="468" y="599" type="curve" smooth="yes"/>
      <point x="468" y="555"/>
      <point x="428" y="515"/>
      <point x="368" y="499" type="curve"/>
      <point x="422" y="488"/>
      <point x="451" y="457"/>
      <point x="451" y="411" type="curve" smooth="yes"/>
      <point x="451" y="328"/>
      <point x="360" y="265"/>
      <point x="239" y="265" type="curve" smooth="yes"/>
      <point x="157" y="265"/>
      <point x="99" y="299"/>
      <point x="99" y="347" type="curve" smooth="yes"/>
      <point x="99" y="376"/>
      <point x="124" y="403"/>
      <point x="151" y="403" type="curve" smooth="yes"/>
      <point x="170" y="403"/>
      <point x="185" y="389"/>
      <point x="185" y="372" type="curve" smooth="yes"/>
      <point x="185" y="364"/>
      <point x="183" y="360"/>
      <point x="176" y="348" type="curve" smooth="yes"/>
      <point x="173" y="343"/>
      <point x="172" y="340"/>
      <point x="172" y="336" type="curve" smooth="yes"/>
      <point x="172" y="314"/>
      <point x="203" y="298"/>
      <point x="248" y="298" type="curve" smooth="yes"/>
      <point x="326" y="298"/>
      <point x="374" y="341"/>
      <point x="374" y="411" type="curve" smooth="yes"/>
      <point x="374" y="459"/>
      <point x="346" y="480"/>
      <point x="285" y="480" type="curve" smooth="yes"/>
      <point x="270" y="480"/>
      <point x="256" y="479"/>
    </contour>
    <contour>
      <point x="827" y="681" type="line"/>
      <point x="332" y="0" type="line"/>
      <point x="276" y="0" type="line"/>
      <point x="771" y="681" type="line"/>
    </contour>
    <contour>
      <point x="870" y="408" type="line"/>
      <point x="824" y="149" type="line"/>
      <point x="913" y="149" type="line"/>
      <point x="894" y="109" type="line"/>
      <point x="816" y="109" type="line"/>
      <point x="810" y="75" type="line" smooth="yes"/>
      <point x="809" y="71"/>
      <point x="809" y="70"/>
      <point x="809" y="64" type="curve" smooth="yes"/>
      <point x="809" y="45"/>
      <point x="822" y="30"/>
      <point x="839" y="29" type="curve" smooth="yes"/>
      <point x="865" y="27" type="line"/>
      <point x="859" y="0" type="line"/>
      <point x="668" y="0" type="line"/>
      <point x="673" y="27" type="line"/>
      <point x="693" y="29" type="line"/>
      <point x="721" y="30"/>
      <point x="738" y="48"/>
      <point x="742" y="81" type="curve"/>
      <point x="747" y="109" type="line"/>
      <point x="557" y="109" type="line"/>
      <point x="549" y="137" type="line"/>
      <point x="804" y="408" type="line"/>
    </contour>
    <contour>
      <point x="755" y="149" type="line"/>
      <point x="789" y="339" type="line"/>
      <point x="610" y="149" type="line"/>
    </contour>
  </outline>
</glyph>
<glyph name="AE" format="1">
  <advance width="1220"/>
  <unicode hex="00C6"/>
  <outline>
    <contour>
      <point x="700" y="338" type="line"/>
      <point x="454" y="338" type="line"/>
      <point x="266" y="162" type="line" smooth="yes"/>
      <point x="218" y="116"/>
      <point x="198" y="89"/>
      <point x="198" y="68" type="curve" smooth="yes"/>
      <point x="198" y="58"/>
      <point x="202" y="49"/>
      <point x="209" y="44" type="curve" smooth="yes"/>
      <point x="220" y="37"/>
      <point x="220" y="37"/>
      <point x="263" y="31" type="curve" smooth="yes"/>
      <point x="278" y="29" type="line"/>
      <point x="273" y="0" type="line"/>
      <point x="-45" y="0" type="line"/>
      <point x="-40" y="29" type="line"/>
      <point x="44" y="48"/>
      <point x="126" y="95"/>
      <point x="195" y="163" type="curve"/>
      <point x="747" y="681" type="line"/>
      <point x="1231" y="681" type="line"/>
      <point x="1269" y="486" type="line"/>
      <point x="1227" y="475" type="line"/>
      <point x="1172" y="593"/>
      <point x="1098" y="640"/>
      <point x="970" y="640" type="curve" smooth="yes"/>
      <point x="916" y="640"/>
      <point x="877" y="630"/>
      <point x="861" y="613" type="curve" smooth="yes"/>
      <point x="852" y="602"/>
      <point x="843" y="579"/>
      <point x="837" y="543" type="curve" smooth="yes"/>
      <point x="808" y="382" type="line"/>
      <point x="882" y="382" type="line" smooth="yes"/>
      <point x="930" y="382"/>
      <point x="965" y="398"/>
      <point x="987" y="429" type="curve" smooth="yes"/>
      <point x="997" y="442"/>
      <point x="999" y="448"/>
      <point x="1018" y="500" type="curve"/>
      <point x="1049" y="500" type="line"/>
      <point x="998" y="217" type="line"/>
      <point x="966" y="217" type="line"/>
      <point x="968" y="236"/>
      <point x="968" y="244"/>
      <point x="968" y="251" type="curve" smooth="yes"/>
      <point x="968" y="308"/>
      <point x="936" y="338"/>
      <point x="876" y="338" type="curve" smooth="yes"/>
      <point x="800" y="338" type="line"/>
      <point x="762" y="132" type="line"/>
      <point x="757" y="99"/>
      <point x="757" y="99"/>
      <point x="757" y="93" type="curve" smooth="yes"/>
      <point x="757" y="79"/>
      <point x="766" y="64"/>
      <point x="778" y="58" type="curve" smooth="yes"/>
      <point x="794" y="51"/>
      <point x="833" y="45"/>
      <point x="869" y="45" type="curve" smooth="yes"/>
      <point x="937" y="45"/>
      <point x="1022" y="70"/>
      <point x="1083" y="108" type="curve" smooth="yes"/>
      <point x="1127" y="136"/>
      <point x="1161" y="165"/>
      <point x="1208" y="217" type="curve"/>
      <point x="1239" y="205" type="line"/>
      <point x="1141" y="0" type="line"/>
      <point x="551" y="0" type="line"/>
      <point x="557" y="29" type="line"/>
      <point x="573" y="31" type="line" smooth="yes"/>
      <point x="628" y="38"/>
      <point x="647" y="59"/>
      <point x="662" y="128" type="curve"/>
    </contour>
    <contour>
      <point x="708" y="385" type="line"/>
      <point x="751" y="621" type="line"/>
      <point x="501" y="385" type="line"/>
    </contour>
  </outline>
</glyph>
<glyph name="Ccedilla" format="1">
  <advance width="720"/>
  <unicode hex="00C7"/>
  <outline>
    <contour>
      <point x="386" y="-13" type="curve"/>
      <point x="376" y="-43" type="line"/>
      <point x="385" y="-43" type="line"/>
      <point x="395" y="-43" type="line" smooth="yes"/>
      <point x="442" y="-43"/>
      <point x="473" y="-66"/>
      <point x="473" y="-101" type="curve" smooth="yes"/>
      <point x="473" y="-146"/>
      <point x="423" y="-182"/>
      <point x="361" y="-182" type="curve" smooth="yes"/>
      <point x="313" y="-182"/>
      <point x="278" y="-162"/>
      <point x="278" y="-134" type="curve" smooth="yes"/>
      <point x="278" y="-119"/>
      <point x="289" y="-106"/>
      <point x="303" y="-106" type="curve" smooth="yes"/>
      <point x="320" y="-106"/>
      <point x="326" y="-111"/>
      <point x="328" y="-128" type="curve" smooth="yes"/>
      <point x="331" y="-145"/>
      <point x="344" y="-155"/>
      <point x="364" y="-155" type="curve" smooth="yes"/>
      <point x="394" y="-155"/>
      <point x="421" y="-132"/>
      <point x="421" y="-107" type="curve" smooth="yes"/>
      <point x="421" y="-84"/>
      <point x="398" y="-68"/>
      <point x="365" y="-68" type="curve" smooth="yes"/>
      <point x="353" y="-68"/>
      <point x="339" y="-70"/>
      <point x="324" y="-74" type="curve"/>
      <point x="349" y="-11" type="line"/>
      <point x="189" y="4"/>
      <point x="88" y="114"/>
      <point x="88" y="275" type="curve" smooth="yes"/>
      <point x="88" y="503"/>
      <point x="272" y="694"/>
      <point x="493" y="694" type="curve" smooth="yes"/>
      <point x="565" y="694"/>
      <point x="614" y="676"/>
      <point x="673" y="630" type="curve"/>
      <point x="703" y="681" type="line"/>
      <point x="734" y="681" type="line"/>
      <point x="746" y="444" type="line"/>
      <point x="708" y="444" type="line"/>
      <point x="660" y="589"/>
      <point x="600" y="647"/>
      <point x="500" y="647" type="curve" smooth="yes"/>
      <point x="425" y="647"/>
      <point x="354" y="609"/>
      <point x="297" y="539" type="curve" smooth="yes"/>
      <point x="233" y="459"/>
      <point x="195" y="354"/>
      <point x="195" y="253" type="curve" smooth="yes"/>
      <point x="195" y="119"/>
      <point x="278" y="34"/>
      <point x="409" y="34" type="curve" smooth="yes"/>
      <point x="523" y="34"/>
      <point x="624" y="95"/>
      <point x="690" y="203" type="curve"/>
      <point x="731" y="183" type="line"/>
      <point x="678" y="69"/>
      <point x="530" y="-15"/>
    </contour>
  </outline>
</glyph>
<glyph name="Icircumflex" format="1">
  <advance width="320"/>
  <unicode hex="00CE"/>
  <outline>
    <contour>
      <point x="294" y="29" type="line"/>
      <point x="288" y="0" type="line"/>
      <point x="21" y="0" type="line"/>
      <point x="26" y="29" type="line"/>
      <point x="43" y="31" type="line"/>
      <point x="96" y="40"/>
      <point x="114" y="61"/>
      <point x="128" y="128" type="curve"/>
      <point x="205" y="553" type="line" smooth="yes"/>
      <point x="207" y="564"/>
      <point x="209" y="584"/>
      <point x="209" y="594" type="curve" smooth="yes"/>
      <point x="209" y="627"/>
      <point x="191" y="645"/>
      <point x="155" y="650" type="curve" smooth="yes"/>
      <point x="139" y="652" type="line"/>
      <point x="145" y="681" type="line"/>
      <point x="412" y="681" type="line"/>
      <point x="407" y="652" type="line"/>
      <point x="390" y="650" type="line"/>
      <point x="337" y="641"/>
      <point x="319" y="620"/>
      <point x="305" y="553" type="curve"/>
      <point x="228" y="128" type="line" smooth="yes"/>
      <point x="226" y="117"/>
      <point x="224" y="97"/>
      <point x="224" y="87" type="curve" smooth="yes"/>
      <point x="224" y="54"/>
      <point x="242" y="36"/>
      <point x="278" y="31" type="curve" smooth="yes"/>
    </contour>
    <contour>
      <point x="144" y="754" type="line"/>
      <point x="296" y="853" type="line"/>
      <point x="419" y="754" type="line"/>
      <point x="394" y="729" type="line"/>
      <point x="285" y="774" type="line"/>
      <point x="166" y="728" type="line"/>
    </contour>
  </outline>
</glyph>
<glyph name="Otilde" format="1">
  <advance width="760"/>
  <unicode hex="00D5"/>
  <outline>
    <contour>
      <point x="512" y="694" type="curve" smooth="yes"/>
      <point x="681" y="694"/>
      <point x="799" y="576"/>
      <point x="799" y="406" type="curve" smooth="yes"/>
      <point x="799" y="299"/>
      <point x="756" y="193"/>
      <point x="680" y="115" type="curve" smooth="yes"/>
      <point x="598" y="31"/>
      <point x="496" y="-13"/>
      <point x="379" y="-13" type="curve" smooth="yes"/>
      <point x="206" y="-13"/>
      <point x="88" y="105"/>
      <point x="88" y="277" type="curve" smooth="yes"/>
      <point x="88" y="388"/>
      <point x="135" y="497"/>
      <point x="218" y="578" type="curve" smooth="yes"/>
      <point x="294" y="653"/>
      <point x="399" y="694"/>
    </contour>
    <contour>
      <point x="501" y="647" type="curve" smooth="yes"/>
      <point x="424" y="647"/>
      <point x="342" y="603"/>
      <point x="289" y="535" type="curve"/>
      <point x="236" y="464"/>
      <point x="198" y="347"/>
      <point x="198" y="249" type="curve" smooth="yes"/>
      <point x="198" y="119"/>
      <point x="271" y="34"/>
      <point x="383" y="34" type="curve" smooth="yes"/>
      <point x="468" y="34"/>
      <point x="552" y="80"/>
      <point x="607" y="158" type="curve" smooth="yes"/>
      <point x="655" y="227"/>
      <point x="689" y="344"/>
      <point x="689" y="441" type="curve" smooth="yes"/>
      <point x="689" y="564"/>
      <point x="613" y="647"/>
    </contour>
    <contour>
      <point x="658" y="839" type="curve"/>
      <point x="687" y="839" type="line"/>
      <point x="662" y="784"/>
      <point x="623" y="756"/>
      <point x="573" y="756" type="curve" smooth="yes"/>
      <point x="557" y="756"/>
      <point x="554" y="757"/>
      <point x="519" y="766" type="curve" smooth="yes"/>
      <point x="495" y="772"/>
      <point x="466" y="777"/>
      <point x="455" y="777" type="curve" smooth="yes"/>
      <point x="436" y="777"/>
      <point x="420" y="771"/>
      <point x="410" y="761" type="curve"/>
      <point x="379" y="761" type="line"/>
      <point x="400" y="809"/>
      <point x="439" y="837"/>
      <point x="484" y="837" type="curve" smooth="yes"/>
      <point x="501" y="837"/>
      <point x="511" y="835"/>
      <point x="567" y="822" type="curve" smooth="yes"/>
      <point x="586" y="818"/>
      <point x="597" y="816"/>
      <point x="604" y="816" type="curve" smooth="yes"/>
      <point x="623" y="816"/>
      <point x="638" y="823"/>
    </contour>
  </outline>
</glyph>
<glyph name="Oslash" format="1">
  <advance width="760"/>
  <unicode hex="00D8"/>
  <outline>
    <contour>
      <point x="761" y="778" type="line"/>
      <point x="676" y="653" type="line"/>
      <point x="761" y="592"/>
      <point x="799" y="517"/>
      <point x="799" y="409" type="curve" smooth="yes"/>
      <point x="799" y="290"/>
      <point x="751" y="181"/>
      <point x="660" y="98" type="curve" smooth="yes"/>
      <point x="579" y="23"/>
      <point x="486" y="-13"/>
      <point x="375" y="-13" type="curve" smooth="yes"/>
      <point x="322" y="-13"/>
      <point x="291" y="-7"/>
      <point x="240" y="13" type="curve"/>
      <point x="166" y="-95" type="line"/>
      <point x="117" y="-95" type="line"/>
      <point x="204" y="34" type="line"/>
      <point x="168" y="61"/>
      <point x="152" y="78"/>
      <point x="135" y="104" type="curve" smooth="yes"/>
      <point x="105" y="149"/>
      <point x="88" y="211"/>
      <point x="88" y="275" type="curve" smooth="yes"/>
      <point x="88" y="511"/>
      <point x="275" y="694"/>
      <point x="515" y="694" type="curve" smooth="yes"/>
      <point x="563" y="694"/>
      <point x="593" y="689"/>
      <point x="640" y="672" type="curve"/>
      <point x="712" y="778" type="line"/>
    </contour>
    <contour>
      <point x="245" y="95" type="curve"/>
      <point x="604" y="618" type="line"/>
      <point x="567" y="640"/>
      <point x="541" y="647"/>
      <point x="503" y="647" type="curve" smooth="yes"/>
      <point x="421" y="647"/>
      <point x="337" y="603"/>
      <point x="288" y="534" type="curve" smooth="yes"/>
      <point x="232" y="456"/>
      <point x="198" y="347"/>
      <point x="198" y="243" type="curve" smooth="yes"/>
      <point x="198" y="179"/>
      <point x="210" y="141"/>
    </contour>
    <contour>
      <point x="635" y="594" type="curve"/>
      <point x="276" y="67" type="line"/>
      <point x="318" y="42"/>
      <point x="343" y="34"/>
      <point x="382" y="34" type="curve" smooth="yes"/>
      <point x="469" y="34"/>
      <point x="555" y="82"/>
      <point x="610" y="163" type="curve" smooth="yes"/>
      <point x="657" y="232"/>
      <point x="689" y="344"/>
      <point x="689" y="440" type="curve" smooth="yes"/>
      <point x="689" y="504"/>
      <point x="674" y="547"/>
    </contour>
  </outline>
</glyph>
<glyph name="Ucircumflex" format="1">
  <advance width="720"/>
  <unicode hex="00DB"/>
  <outline>
    <contour>
      <point x="842" y="681" type="line"/>
      <point x="837" y="652" type="line"/>
      <point x="820" y="650" type="line" smooth="yes"/>
      <point x="765" y="643"/>
      <point x="746" y="622"/>
      <point x="732" y="553" type="curve"/>
      <point x="675" y="239" type="line" smooth="yes"/>
      <point x="655" y="132"/>
      <point x="634" y="88"/>
      <point x="582" y="48" type="curve" smooth="yes"/>
      <point x="529" y="8"/>
      <point x="452" y="-13"/>
      <point x="356" y="-13" type="curve" smooth="yes"/>
      <point x="268" y="-13"/>
      <point x="207" y="5"/>
      <point x="163" y="45" type="curve" smooth="yes"/>
      <point x="135" y="71"/>
      <point x="118" y="108"/>
      <point x="118" y="145" type="curve" smooth="yes"/>
      <point x="118" y="160"/>
      <point x="122" y="192"/>
      <point x="126" y="217" type="curve" smooth="yes"/>
      <point x="187" y="553" type="line" smooth="yes"/>
      <point x="189" y="562"/>
      <point x="191" y="586"/>
      <point x="191" y="596" type="curve" smooth="yes"/>
      <point x="191" y="628"/>
      <point x="174" y="645"/>
      <point x="134" y="650" type="curve" smooth="yes"/>
      <point x="118" y="652" type="line"/>
      <point x="123" y="681" type="line"/>
      <point x="397" y="681" type="line"/>
      <point x="392" y="652" type="line"/>
      <point x="376" y="650" type="line" smooth="yes"/>
      <point x="321" y="643"/>
      <point x="301" y="622"/>
      <point x="287" y="553" type="curve"/>
      <point x="231" y="246" type="line" smooth="yes"/>
      <point x="228" y="229"/>
      <point x="225" y="185"/>
      <point x="225" y="161" type="curve" smooth="yes"/>
      <point x="225" y="79"/>
      <point x="283" y="34"/>
      <point x="389" y="34" type="curve" smooth="yes"/>
      <point x="462" y="34"/>
      <point x="527" y="57"/>
      <point x="563" y="96" type="curve" smooth="yes"/>
      <point x="593" y="129"/>
      <point x="606" y="164"/>
      <point x="622" y="252" type="curve" smooth="yes"/>
      <point x="677" y="553" type="line" smooth="yes"/>
      <point x="679" y="566"/>
      <point x="681" y="584"/>
      <point x="681" y="594" type="curve" smooth="yes"/>
      <point x="681" y="629"/>
      <point x="664" y="645"/>
      <point x="623" y="650" type="curve" smooth="yes"/>
      <point x="608" y="652" type="line"/>
      <point x="613" y="681" type="line"/>
    </contour>
    <contour>
      <point x="355" y="754" type="line"/>
      <point x="521" y="853" type="line"/>
      <point x="658" y="754" type="line"/>
      <point x="633" y="729" type="line"/>
      <point x="510" y="774" type="line"/>
      <point x="377" y="728" type="line"/>
    </contour>
  </outline>
</glyph>
<glyph name="aring" format="1">
  <advance width="620"/>
  <unicode hex="00E5"/>
  <outline>
    <contour>
      <point x="605" y="486" type="line"/>
      <point x="546" y="160" type="line" smooth="yes"/>
      <point x="541" y="134"/>
      <point x="539" y="117"/>
      <point x="539" y="105" type="curve" smooth="yes"/>
      <point x="539" y="75"/>
      <point x="563" y="51"/>
      <point x="592" y="51" type="curve" smooth="yes"/>
      <point x="616" y="51"/>
      <point x="644" y="66"/>
      <point x="664" y="90" type="curve"/>
      <point x="686" y="69" type="line"/>
      <point x="656" y="25"/>
      <point x="592" y="-9"/>
      <point x="540" y="-9" type="curve" smooth="yes"/>
      <point x="513" y="-9"/>
      <point x="486" y="3"/>
      <point x="471" y="21" type="curve" smooth="yes"/>
      <point x="456" y="40"/>
      <point x="444" y="73"/>
      <point x="444" y="96" type="curve" smooth="yes"/>
      <point x="444" y="99"/>
      <point x="444" y="105"/>
      <point x="445" y="112" type="curve"/>
      <point x="384" y="29"/>
      <point x="321" y="-9"/>
      <point x="243" y="-9" type="curve" smooth="yes"/>
      <point x="140" y="-9"/>
      <point x="71" y="65"/>
      <point x="71" y="176" type="curve" smooth="yes"/>
      <point x="71" y="347"/>
      <point x="204" y="495"/>
      <point x="359" y="495" type="curve" smooth="yes"/>
      <point x="417" y="495"/>
      <point x="470" y="473"/>
      <point x="504" y="435" type="curve"/>
      <point x="513" y="486" type="line"/>
    </contour>
    <contour>
      <point x="496" y="393" type="curve"/>
      <point x="460" y="433"/>
      <point x="428" y="448"/>
      <point x="381" y="448" type="curve" smooth="yes"/>
      <point x="320" y="448"/>
      <point x="265" y="413"/>
      <point x="223" y="347" type="curve" smooth="yes"/>
      <point x="191" y="296"/>
      <point x="168" y="215"/>
      <point x="168" y="151" type="curve" smooth="yes"/>
      <point x="168" y="84"/>
      <point x="205" y="38"/>
      <point x="261" y="38" type="curve" smooth="yes"/>
      <point x="315" y="38"/>
      <point x="378" y="78"/>
      <point x="415" y="137" type="curve" smooth="yes"/>
      <point x="451" y="194"/>
      <point x="470" y="252"/>
    </contour>
    <contour>
      <point x="429" y="691" type="curve" smooth="yes"/>
      <point x="466" y="691"/>
      <point x="493" y="664"/>
      <point x="493" y="626" type="curve" smooth="yes"/>
      <point x="493" y="578"/>
      <point x="448" y="534"/>
      <point x="398" y="534" type="curve" smooth="yes"/>
      <point x="362" y="534"/>
      <point x="337" y="561"/>
      <point x="337" y="600" type="curve" smooth="yes"/>
      <point x="337" y="650"/>
      <point x="379" y="691"/>
    </contour>
    <contour>
      <point x="424" y="658" type="curve" smooth="yes"/>
      <point x="397" y="658"/>
      <point x="374" y="634"/>
      <point x="374" y="606" type="curve" smooth="yes"/>
      <point x="374" y="582"/>
      <point x="386" y="567"/>
      <point x="404" y="567" type="curve" smooth="yes"/>
      <point x="431" y="567"/>
      <point x="456" y="593"/>
      <point x="456" y="621" type="curve" smooth="yes"/>
      <point x="456" y="643"/>
      <point x="443" y="658"/>
    </contour>
  </outline>
</glyph>
<glyph name="ae" format="1">
  <advance width="880"/>
  <unicode hex="00E6"/>
  <outline>
    <contour>
      <point x="847" y="112" type="curve"/>
      <point x="870" y="84" type="line"/>
      <point x="788" y="20"/>
      <point x="714" y="-9"/>
      <point x="633" y="-9" type="curve" smooth="yes"/>
      <point x="581" y="-9"/>
      <point x="532" y="5"/>
      <point x="493" y="32" type="curve" smooth="yes"/>
      <point x="467" y="51"/>
      <point x="454" y="67"/>
      <point x="438" y="101" type="curve"/>
      <point x="408" y="67"/>
      <point x="391" y="51"/>
      <point x="366" y="35" type="curve" smooth="yes"/>
      <point x="322" y="8"/>
      <point x="261" y="-9"/>
      <point x="203" y="-9" type="curve" smooth="yes"/>
      <point x="123" y="-9"/>
      <point x="71" y="31"/>
      <point x="71" y="92" type="curve" smooth="yes"/>
      <point x="71" y="162"/>
      <point x="138" y="230"/>
      <point x="236" y="261" type="curve" smooth="yes"/>
      <point x="297" y="280"/>
      <point x="352" y="288"/>
      <point x="449" y="293" type="curve"/>
      <point x="458" y="343"/>
      <point x="461" y="370"/>
      <point x="461" y="388" type="curve" smooth="yes"/>
      <point x="461" y="433"/>
      <point x="424" y="458"/>
      <point x="358" y="458" type="curve" smooth="yes"/>
      <point x="320" y="458"/>
      <point x="283" y="445"/>
      <point x="262" y="424" type="curve" smooth="yes"/>
      <point x="254" y="415"/>
      <point x="253" y="411"/>
      <point x="250" y="389" type="curve"/>
      <point x="247" y="355"/>
      <point x="218" y="328"/>
      <point x="187" y="328" type="curve" smooth="yes"/>
      <point x="165" y="328"/>
      <point x="148" y="344"/>
      <point x="148" y="363" type="curve" smooth="yes"/>
      <point x="148" y="382"/>
      <point x="158" y="402"/>
      <point x="177" y="421" type="curve" smooth="yes"/>
      <point x="224" y="470"/>
      <point x="293" y="495"/>
      <point x="377" y="495" type="curve" smooth="yes"/>
      <point x="430" y="495"/>
      <point x="474" y="485"/>
      <point x="506" y="467" type="curve" smooth="yes"/>
      <point x="523" y="457"/>
      <point x="532" y="447"/>
      <point x="543" y="424" type="curve"/>
      <point x="620" y="474"/>
      <point x="682" y="495"/>
      <point x="754" y="495" type="curve" smooth="yes"/>
      <point x="851" y="495"/>
      <point x="918" y="450"/>
      <point x="918" y="386" type="curve" smooth="yes"/>
      <point x="918" y="335"/>
      <point x="877" y="293"/>
      <point x="801" y="267" type="curve" smooth="yes"/>
      <point x="743" y="247"/>
      <point x="647" y="233"/>
      <point x="570" y="234" type="curve"/>
      <point x="565" y="234" type="line"/>
      <point x="530" y="234" type="line"/>
      <point x="526" y="205"/>
      <point x="525" y="193"/>
      <point x="525" y="174" type="curve" smooth="yes"/>
      <point x="525" y="91"/>
      <point x="577" y="38"/>
      <point x="658" y="38" type="curve" smooth="yes"/>
      <point x="717" y="38"/>
      <point x="771" y="59"/>
    </contour>
    <contour>
      <point x="443" y="258" type="curve"/>
      <point x="422" y="258"/>
      <point x="370" y="253"/>
      <point x="345" y="248" type="curve" smooth="yes"/>
      <point x="235" y="229"/>
      <point x="168" y="177"/>
      <point x="168" y="112" type="curve" smooth="yes"/>
      <point x="168" y="69"/>
      <point x="202" y="38"/>
      <point x="250" y="38" type="curve" smooth="yes"/>
      <point x="311" y="38"/>
      <point x="376" y="76"/>
      <point x="406" y="128" type="curve" smooth="yes"/>
      <point x="423" y="157"/>
      <point x="434" y="195"/>
    </contour>
    <contour>
      <point x="534" y="266" type="curve"/>
      <point x="554" y="266" type="line" smooth="yes"/>
      <point x="629" y="266"/>
      <point x="678" y="272"/>
      <point x="721" y="286" type="curve" smooth="yes"/>
      <point x="784" y="307"/>
      <point x="825" y="348"/>
      <point x="825" y="389" type="curve" smooth="yes"/>
      <point x="825" y="428"/>
      <point x="788" y="458"/>
      <point x="738" y="458" type="curve" smooth="yes"/>
      <point x="646" y="458"/>
      <point x="564" y="382"/>
    </contour>
  </outline>
</glyph>
<glyph name="ccedilla" format="1">
  <advance width="480"/>
  <unicode hex="00E7"/>
  <outline>
    <contour>
      <point x="271" y="-9" type="curve"/>
      <point x="260" y="-43" type="line"/>
      <point x="269" y="-43" type="line"/>
      <point x="279" y="-43" type="line" smooth="yes"/>
      <point x="326" y="-43"/>
      <point x="357" y="-66"/>
      <point x="357" y="-101" type="curve" smooth="yes"/>
      <point x="357" y="-146"/>
      <point x="307" y="-182"/>
      <point x="245" y="-182" type="curve" smooth="yes"/>
      <point x="197" y="-182"/>
      <point x="162" y="-162"/>
      <point x="162" y="-134" type="curve" smooth="yes"/>
      <point x="162" y="-119"/>
      <point x="173" y="-106"/>
      <point x="187" y="-106" type="curve" smooth="yes"/>
      <point x="204" y="-106"/>
      <point x="210" y="-111"/>
      <point x="212" y="-128" type="curve" smooth="yes"/>
      <point x="215" y="-145"/>
      <point x="228" y="-155"/>
      <point x="248" y="-155" type="curve" smooth="yes"/>
      <point x="278" y="-155"/>
      <point x="305" y="-132"/>
      <point x="305" y="-107" type="curve" smooth="yes"/>
      <point x="305" y="-84"/>
      <point x="282" y="-68"/>
      <point x="249" y="-68" type="curve" smooth="yes"/>
      <point x="237" y="-68"/>
      <point x="223" y="-70"/>
      <point x="208" y="-74" type="curve"/>
      <point x="234" y="-7" type="line"/>
      <point x="131" y="7"/>
      <point x="65" y="83"/>
      <point x="65" y="190" type="curve" smooth="yes"/>
      <point x="65" y="351"/>
      <point x="208" y="495"/>
      <point x="368" y="495" type="curve" smooth="yes"/>
      <point x="455" y="495"/>
      <point x="522" y="448"/>
      <point x="522" y="387" type="curve" smooth="yes"/>
      <point x="522" y="352"/>
      <point x="498" y="326"/>
      <point x="464" y="326" type="curve" smooth="yes"/>
      <point x="442" y="326"/>
      <point x="426" y="340"/>
      <point x="426" y="360" type="curve" smooth="yes"/>
      <point x="426" y="363"/>
      <point x="427" y="369"/>
      <point x="428" y="376" type="curve" smooth="yes"/>
      <point x="429" y="382"/>
      <point x="429" y="387"/>
      <point x="429" y="391" type="curve" smooth="yes"/>
      <point x="429" y="430"/>
      <point x="398" y="458"/>
      <point x="354" y="458" type="curve" smooth="yes"/>
      <point x="312" y="458"/>
      <point x="268" y="431"/>
      <point x="234" y="384" type="curve" smooth="yes"/>
      <point x="195" y="332"/>
      <point x="167" y="243"/>
      <point x="167" y="176" type="curve" smooth="yes"/>
      <point x="167" y="95"/>
      <point x="219" y="38"/>
      <point x="295" y="38" type="curve" smooth="yes"/>
      <point x="349" y="38"/>
      <point x="406" y="64"/>
      <point x="472" y="119" type="curve"/>
      <point x="494" y="94" type="line"/>
      <point x="453" y="40"/>
      <point x="344" y="-10"/>
    </contour>
  </outline>
</glyph>
<glyph name="eth" format="1">
  <advance width="540"/>
  <unicode hex="00F0"/>
  <outline>
    <contour>
      <point x="413" y="580" type="curve"/>
      <point x="246" y="548" type="line"/>
      <point x="238" y="587" type="line"/>
      <point x="387" y="615" type="line"/>
      <point x="359" y="647"/>
      <point x="331" y="668"/>
      <point x="283" y="691" type="curve"/>
      <point x="305" y="717" type="line"/>
      <point x="373" y="694"/>
      <point x="412" y="671"/>
      <point x="457" y="628" type="curve"/>
      <point x="634" y="662" type="line"/>
      <point x="642" y="624" type="line"/>
      <point x="488" y="595" type="line"/>
      <point x="547" y="521"/>
      <point x="573" y="443"/>
      <point x="573" y="336" type="curve" smooth="yes"/>
      <point x="573" y="211"/>
      <point x="545" y="132"/>
      <point x="479" y="72" type="curve" smooth="yes"/>
      <point x="424" y="21"/>
      <point x="348" y="-9"/>
      <point x="274" y="-9" type="curve" smooth="yes"/>
      <point x="149" y="-9"/>
      <point x="65" y="71"/>
      <point x="65" y="191" type="curve" smooth="yes"/>
      <point x="65" y="354"/>
      <point x="201" y="495"/>
      <point x="357" y="495" type="curve" smooth="yes"/>
      <point x="399" y="495"/>
      <point x="431" y="487"/>
      <point x="460" y="468" type="curve"/>
      <point x="450" y="513"/>
      <point x="437" y="542"/>
    </contour>
    <contour>
      <point x="358" y="453" type="curve" smooth="yes"/>
      <point x="309" y="453"/>
      <point x="264" y="429"/>
      <point x="231" y="385" type="curve" smooth="yes"/>
      <point x="190" y="331"/>
      <point x="162" y="246"/>
      <point x="162" y="176" type="curve" smooth="yes"/>
      <point x="162" y="85"/>
      <point x="205" y="33"/>
      <point x="281" y="33" type="curve" smooth="yes"/>
      <point x="339" y="33"/>
      <point x="388" y="65"/>
      <point x="422" y="125" type="curve" smooth="yes"/>
      <point x="449" y="174"/>
      <point x="470" y="255"/>
      <point x="470" y="314" type="curve" smooth="yes"/>
      <point x="470" y="357"/>
      <point x="460" y="395"/>
      <point x="442" y="417" type="curve" smooth="yes"/>
      <point x="425" y="437"/>
      <point x="389" y="453"/>
    </contour>
  </outline>
</glyph>
<glyph name="thorn" format="1">
  <advance width="600"/>
  <unicode hex="00FE"/>
  <outline>
    <contour>
      <point x="322" y="715" type="line"/>
      <point x="257" y="353" type="line"/>
      <point x="296" y="440"/>
      <point x="374" y="495"/>
      <point x="458" y="495" type="curve" smooth="yes"/>
      <point x="555" y="495"/>
      <point x="620" y="423"/>
      <point x="620" y="314" type="curve" smooth="yes"/>
      <point x="620" y="143"/>
      <point x="490" y="-9"/>
      <point x="345" y="-9" type="curve" smooth="yes"/>
      <point x="288" y="-9"/>
      <point x="236" y="14"/>
      <point x="202" y="55" type="curve"/>
      <point x="173" y="-107" type="line" smooth="yes"/>
      <point x="172" y="-112"/>
      <point x="171" y="-127"/>
      <point x="171" y="-133" type="curve" smooth="yes"/>
      <point x="171" y="-161"/>
      <point x="189" y="-176"/>
      <point x="230" y="-181" type="curve" smooth="yes"/>
      <point x="245" y="-183" type="line"/>
      <point x="240" y="-212" type="line"/>
      <point x="-24" y="-212" type="line"/>
      <point x="-19" y="-183" type="line"/>
      <point x="-2" y="-181" type="line" smooth="yes"/>
      <point x="50" y="-175"/>
      <point x="72" y="-155"/>
      <point x="81" y="-107" type="curve" smooth="yes"/>
      <point x="207" y="587" type="line" smooth="yes"/>
      <point x="209" y="596"/>
      <point x="210" y="607"/>
      <point x="210" y="612" type="curve" smooth="yes"/>
      <point x="210" y="642"/>
      <point x="195" y="654"/>
      <point x="151" y="662" type="curve" smooth="yes"/>
      <point x="139" y="664" type="line"/>
      <point x="144" y="693" type="line"/>
      <point x="212" y="699"/>
      <point x="228" y="702"/>
      <point x="284" y="715" type="curve"/>
    </contour>
    <contour>
      <point x="216" y="122" type="curve" smooth="yes"/>
      <point x="210" y="95" type="line"/>
      <point x="236" y="58"/>
      <point x="276" y="38"/>
      <point x="324" y="38" type="curve" smooth="yes"/>
      <point x="376" y="38"/>
      <point x="424" y="67"/>
      <point x="462" y="120" type="curve" smooth="yes"/>
      <point x="500" y="173"/>
      <point x="527" y="264"/>
      <point x="527" y="339" type="curve" smooth="yes"/>
      <point x="527" y="404"/>
      <point x="492" y="448"/>
      <point x="440" y="448" type="curve" smooth="yes"/>
      <point x="393" y="448"/>
      <point x="344" y="419"/>
      <point x="305" y="369" type="curve" smooth="yes"/>
      <point x="282" y="338"/>
      <point x="259" y="292"/>
      <point x="245" y="244" type="curve" smooth="yes"/>
      <point x="239" y="226"/>
      <point x="232" y="194"/>
    </contour>
  </outline>
</glyph>
<glyph name="dcroat" format="1">
  <advance width="640"/>
  <unicode hex="0111"/>
  <outline>
    <contour>
      <point x="535" y="585" type="line"/>
      <point x="535" y="600" type="line" smooth="yes"/>
      <point x="535" y="633"/>
      <point x="520" y="645"/>
      <point x="473" y="651" type="curve" smooth="yes"/>
      <point x="457" y="653" type="line"/>
      <point x="463" y="682" type="line"/>
      <point x="532" y="689"/>
      <point x="565" y="697"/>
      <point x="610" y="715" type="curve"/>
      <point x="651" y="715" type="line"/>
      <point x="627" y="585" type="line"/>
      <point x="724" y="585" type="line"/>
      <point x="717" y="548" type="line"/>
      <point x="620" y="548" type="line"/>
      <point x="551" y="165" type="line"/>
      <point x="540" y="113"/>
      <point x="540" y="113"/>
      <point x="540" y="96" type="curve" smooth="yes"/>
      <point x="540" y="64"/>
      <point x="561" y="43"/>
      <point x="594" y="43" type="curve" smooth="yes"/>
      <point x="620" y="43"/>
      <point x="637" y="53"/>
      <point x="672" y="87" type="curve"/>
      <point x="695" y="66" type="line"/>
      <point x="650" y="16"/>
      <point x="600" y="-9"/>
      <point x="544" y="-9" type="curve" smooth="yes"/>
      <point x="490" y="-9"/>
      <point x="446" y="31"/>
      <point x="446" y="81" type="curve" smooth="yes"/>
      <point x="446" y="90"/>
      <point x="447" y="97"/>
      <point x="451" y="122" type="curve"/>
      <point x="414" y="70"/>
      <point x="393" y="48"/>
      <point x="355" y="25" type="curve" smooth="yes"/>
      <point x="320" y="4"/>
      <point x="276" y="-9"/>
      <point x="238" y="-9" type="curve" smooth="yes"/>
      <point x="134" y="-9"/>
      <point x="65" y="66"/>
      <point x="65" y="179" type="curve" smooth="yes"/>
      <point x="65" y="350"/>
      <point x="198" y="495"/>
      <point x="355" y="495" type="curve" smooth="yes"/>
      <point x="417" y="495"/>
      <point x="461" y="477"/>
      <point x="508" y="433" type="curve"/>
      <point x="528" y="548" type="line"/>
      <point x="350" y="548" type="line"/>
      <point x="357" y="585" type="line"/>
    </contour>
    <contour>
      <point x="492" y="347" type="curve" smooth="yes"/>
      <point x="500" y="389" type="line"/>
      <point x="469" y="419"/>
      <point x="428" y="435"/>
      <point x="379" y="435" type="curve" smooth="yes"/>
      <point x="328" y="435"/>
      <point x="279" y="411"/>
      <point x="246" y="370" type="curve" smooth="yes"/>
      <point x="199" y="313"/>
      <point x="172" y="234"/>
      <point x="172" y="158" type="curve" smooth="yes"/>
      <point x="172" y="90"/>
      <point x="206" y="51"/>
      <point x="265" y="51" type="curve" smooth="yes"/>
      <point x="320" y="51"/>
      <point x="377" y="86"/>
      <point x="419" y="147" type="curve" smooth="yes"/>
      <point x="449" y="190"/>
      <point x="477" y="268"/>
    </contour>
  </outline>
</glyph>
<glyph name="Gbreve" format="1">
  <advance width="760"/>
  <unicode hex="011E"/>
  <outline>
    <contour>
      <point x="541" y="324" type="line"/>
      <point x="813" y="324" type="line"/>
      <point x="808" y="295" type="line"/>
      <point x="794" y="293" type="line" smooth="yes"/>
      <point x="745" y="286"/>
      <point x="718" y="255"/>
      <point x="710" y="196" type="curve"/>
      <point x="674" y="0" type="line"/>
      <point x="620" y="0" type="line"/>
      <point x="604" y="74" type="line"/>
      <point x="546" y="20"/>
      <point x="454" y="-13"/>
      <point x="362" y="-13" type="curve" smooth="yes"/>
      <point x="200" y="-13"/>
      <point x="88" y="105"/>
      <point x="88" y="275" type="curve" smooth="yes"/>
      <point x="88" y="505"/>
      <point x="262" y="694"/>
      <point x="474" y="694" type="curve" smooth="yes"/>
      <point x="549" y="694"/>
      <point x="619" y="671"/>
      <point x="660" y="633" type="curve"/>
      <point x="685" y="681" type="line"/>
      <point x="715" y="681" type="line"/>
      <point x="736" y="467" type="line"/>
      <point x="705" y="467" type="line"/>
      <point x="642" y="590"/>
      <point x="571" y="647"/>
      <point x="479" y="647" type="curve" smooth="yes"/>
      <point x="397" y="647"/>
      <point x="324" y="601"/>
      <point x="270" y="515" type="curve" smooth="yes"/>
      <point x="222" y="439"/>
      <point x="195" y="347"/>
      <point x="195" y="258" type="curve" smooth="yes"/>
      <point x="195" y="196"/>
      <point x="209" y="146"/>
      <point x="235" y="110" type="curve" smooth="yes"/>
      <point x="269" y="62"/>
      <point x="326" y="34"/>
      <point x="388" y="34" type="curve" smooth="yes"/>
      <point x="514" y="34"/>
      <point x="614" y="120"/>
      <point x="614" y="227" type="curve" smooth="yes"/>
      <point x="614" y="266"/>
      <point x="595" y="284"/>
      <point x="547" y="293" type="curve" smooth="yes"/>
      <point x="536" y="295" type="line"/>
    </contour>
    <contour>
      <point x="351" y="836" type="curve"/>
      <point x="375" y="848" type="line"/>
      <point x="401" y="820"/>
      <point x="441" y="807"/>
      <point x="505" y="807" type="curve" smooth="yes"/>
      <point x="563" y="807"/>
      <point x="607" y="820"/>
      <point x="638" y="847" type="curve"/>
      <point x="660" y="837" type="line"/>
      <point x="623" y="768"/>
      <point x="577" y="740"/>
      <point x="501" y="740" type="curve" smooth="yes"/>
      <point x="431" y="740"/>
      <point x="380" y="772"/>
    </contour>
  </outline>
</glyph>
<glyph name="Itilde" format="1">
  <advance width="320"/>
  <unicode hex="0128"/>
  <outline>
    <contour>
      <point x="430" y="864" type="curve"/>
      <point x="459" y="864" type="line"/>
      <point x="434" y="809"/>
      <point x="395" y="781"/>
      <point x="345" y="781" type="curve" smooth="yes"/>
      <point x="329" y="781"/>
      <point x="326" y="782"/>
      <point x="291" y="791" type="curve" smooth="yes"/>
      <point x="267" y="797"/>
      <point x="238" y="802"/>
      <point x="227" y="802" type="curve" smooth="yes"/>
      <point x="208" y="802"/>
      <point x="192" y="796"/>
      <point x="182" y="786" type="curve"/>
      <point x="151" y="786" type="line"/>
      <point x="172" y="834"/>
      <point x="211" y="862"/>
      <point x="256" y="862" type="curve" smooth="yes"/>
      <point x="273" y="862"/>
      <point x="283" y="860"/>
      <point x="339" y="847" type="curve" smooth="yes"/>
      <point x="358" y="843"/>
      <point x="369" y="841"/>
      <point x="376" y="841" type="curve" smooth="yes"/>
      <point x="395" y="841"/>
      <point x="410" y="848"/>
    </contour>
    <contour>
      <point x="294" y="29" type="line"/>
      <point x="288" y="0" type="line"/>
      <point x="21" y="0" type="line"/>
      <point x="26" y="29" type="line"/>
      <point x="43" y="31" type="line"/>
      <point x="96" y="40"/>
      <point x="114" y="61"/>
      <point x="128" y="128" type="curve"/>
      <point x="205" y="553" type="line" smooth="yes"/>
      <point x="207" y="564"/>
      <point x="209" y="584"/>
      <point x="209" y="594" type="curve" smooth="yes"/>
      <point x="209" y="627"/>
      <point x="191" y="645"/>
      <point x="155" y="650" type="curve" smooth="yes"/>
      <point x="139" y="652" type="line"/>
      <point x="145" y="681" type="line"/>
      <point x="412" y="681" type="line"/>
      <point x="407" y="652" type="line"/>
      <point x="390" y="650" type="line"/>
      <point x="337" y="641"/>
      <point x="319" y="620"/>
      <point x="305" y="553" type="curve"/>
      <point x="228" y="128" type="line" smooth="yes"/>
      <point x="226" y="117"/>
      <point x="224" y="97"/>
      <point x="224" y="87" type="curve" smooth="yes"/>
      <point x="224" y="54"/>
      <point x="242" y="36"/>
      <point x="278" y="31" type="curve" smooth="yes"/>
    </contour>
  </outline>
</glyph>
<glyph name="Ibreve" format="1">
  <advance width="320"/>
  <unicode hex="012C"/>
  <outline>
    <contour>
      <point x="160" y="877" type="curve"/>
      <point x="184" y="889" type="line"/>
      <point x="210" y="861"/>
      <point x="250" y="848"/>
      <point x="313" y="848" type="curve" smooth="yes"/>
      <point x="372" y="848"/>
      <point x="416" y="861"/>
      <point x="447" y="888" type="curve"/>
      <point x="469" y="878" type="line"/>
      <point x="432" y="809"/>
      <point x="386" y="781"/>
      <point x="310" y="781" type="curve" smooth="yes"/>
      <point x="240" y="781"/>
      <point x="189" y="813"/>
    </contour>
    <contour>
      <point x="294" y="29" type="line"/>
      <point x="288" y="0" type="line"/>
      <point x="21" y="0" type="line"/>
      <point x="26" y="29" type="line"/>
      <point x="43" y="31" type="line"/>
      <point x="96" y="40"/>
      <point x="114" y="61"/>
      <point x="128" y="128" type="curve"/>
      <point x="205" y="553" type="line" smooth="yes"/>
      <point x="207" y="564"/>
      <point x="209" y="584"/>
      <point x="209" y="594" type="curve" smooth="yes"/>
      <point x="209" y="627"/>
      <point x="191" y="645"/>
      <point x="155" y="650" type="curve" smooth="yes"/>
      <point x="139" y="652" type="line"/>
      <point x="145" y="681" type="line"/>
      <point x="412" y="681" type="line"/>
      <point x="407" y="652" type="line"/>
      <point x="390" y="650" type="line"/>
      <point x="337" y="641"/>
      <point x="319" y="620"/>
      <point x="305" y="553" type="curve"/>
      <point x="228" y="128" type="line" smooth="yes"/>
      <point x="226" y="117"/>
      <point x="224" y="97"/>
      <point x="224" y="87" type="curve" smooth="yes"/>
      <point x="224" y="54"/>
      <point x="242" y="36"/>
      <point x="278" y="31" type="curve" smooth="yes"/>
    </contour>
  </outline>
</glyph>
<glyph name="Idotaccent" format="1">
  <advance width="320"/>
  <unicode hex="0130"/>
  <outline>
    <contour>
      <point x="294" y="29" type="line"/>
      <point x="288" y="0" type="line"/>
      <point x="21" y="0" type="line"/>
      <point x="26" y="29" type="line"/>
      <point x="43" y="31" type="line"/>
      <point x="96" y="40"/>
      <point x="114" y="61"/>
      <point x="128" y="128" type="curve"/>
      <point x="205" y="553" type="line" smooth="yes"/>
      <point x="207" y="564"/>
      <point x="209" y="584"/>
      <point x="209" y="594" type="curve" smooth="yes"/>
      <point x="209" y="627"/>
      <point x="191" y="645"/>
      <point x="155" y="650" type="curve" smooth="yes"/>
      <point x="139" y="652" type="line"/>
      <point x="145" y="681" type="line"/>
      <point x="412" y="681" type="line"/>
      <point x="407" y="652" type="line"/>
      <point x="390" y="650" type="line"/>
      <point x="337" y="641"/>
      <point x="319" y="620"/>
      <point x="305" y="553" type="curve"/>
      <point x="228" y="128" type="line" smooth="yes"/>
      <point x="226" y="117"/>
      <point x="224" y="97"/>
      <point x="224" y="87" type="curve" smooth="yes"/>
      <point x="224" y="54"/>
      <point x="242" y="36"/>
      <point x="278" y="31" type="curve" smooth="yes"/>
    </contour>
    <contour>
      <point x="310" y="859" type="curve" smooth="yes"/>
      <point x="339" y="859"/>
      <point x="359" y="838"/>
      <point x="359" y="809" type="curve" smooth="yes"/>
      <point x="359" y="772"/>
      <point x="325" y="739"/>
      <point x="287" y="739" type="curve" smooth="yes"/>
      <point x="258" y="739"/>
      <point x="239" y="760"/>
      <point x="239" y="791" type="curve" smooth="yes"/>
      <point x="239" y="827"/>
      <point x="272" y="859"/>
    </contour>
  </outline>
</glyph>
<glyph name="IJ" format="1">
  <advance width="876"/>
  <unicode hex="0132"/>
  <outline>
    <contour>
      <point x="687" y="652" type="line"/>
      <point x="692" y="681" type="line"/>
      <point x="966" y="681" type="line"/>
      <point x="961" y="652" type="line"/>
      <point x="944" y="650" type="line" smooth="yes"/>
      <point x="889" y="643"/>
      <point x="870" y="622"/>
      <point x="856" y="553" type="curve"/>
      <point x="802" y="255" type="line" smooth="yes"/>
      <point x="782" y="146"/>
      <point x="771" y="115"/>
      <point x="739" y="80" type="curve" smooth="yes"/>
      <point x="689" y="24"/>
      <point x="597" y="-13"/>
      <point x="509" y="-13" type="curve" smooth="yes"/>
      <point x="383" y="-13"/>
      <point x="298" y="57"/>
      <point x="298" y="159" type="curve" smooth="yes"/>
      <point x="298" y="225"/>
      <point x="336" y="276"/>
      <point x="386" y="276" type="curve" smooth="yes"/>
      <point x="414" y="276"/>
      <point x="434" y="259"/>
      <point x="434" y="233" type="curve" smooth="yes"/>
      <point x="434" y="211"/>
      <point x="426" y="198"/>
      <point x="397" y="172" type="curve" smooth="yes"/>
      <point x="381" y="158"/>
      <point x="375" y="145"/>
      <point x="375" y="126" type="curve" smooth="yes"/>
      <point x="375" y="75"/>
      <point x="429" y="34"/>
      <point x="498" y="34" type="curve" smooth="yes"/>
      <point x="559" y="34"/>
      <point x="615" y="59"/>
      <point x="649" y="101" type="curve" smooth="yes"/>
      <point x="674" y="133"/>
      <point x="685" y="166"/>
      <point x="700" y="246" type="curve" smooth="yes"/>
      <point x="756" y="553" type="line" smooth="yes"/>
      <point x="758" y="566"/>
      <point x="760" y="584"/>
      <point x="760" y="594" type="curve" smooth="yes"/>
      <point x="760" y="629"/>
      <point x="743" y="645"/>
      <point x="702" y="650" type="curve" smooth="yes"/>
    </contour>
    <contour>
      <point x="294" y="29" type="line"/>
      <point x="288" y="0" type="line"/>
      <point x="21" y="0" type="line"/>
      <point x="26" y="29" type="line"/>
      <point x="43" y="31" type="line"/>
      <point x="96" y="40"/>
      <point x="114" y="61"/>
      <point x="128" y="128" type="curve"/>
      <point x="205" y="553" type="line" smooth="yes"/>
      <point x="207" y="564"/>
      <point x="209" y="584"/>
      <point x="209" y="594" type="curve" smooth="yes"/>
      <point x="209" y="627"/>
      <point x="191" y="645"/>
      <point x="155" y="650" type="curve" smooth="yes"/>
      <point x="139" y="652" type="line"/>
      <point x="145" y="681" type="line"/>
      <point x="412" y="681" type="line"/>
      <point x="407" y="652" type="line"/>
      <point x="390" y="650" type="line"/>
      <point x="337" y="641"/>
      <point x="319" y="620"/>
      <point x="305" y="553" type="curve"/>
      <point x="228" y="128" type="line" smooth="yes"/>
      <point x="226" y="117"/>
      <point x="224" y="97"/>
      <point x="224" y="87" type="curve" smooth="yes"/>
      <point x="224" y="54"/>
      <point x="242" y="36"/>
      <point x="278" y="31" type="curve" smooth="yes"/>
    </contour>
  </outline>
</glyph>
<glyph name="ij" format="1">
  <advance width="544"/>
  <unicode hex="0133"/>
  <outline>
    <contour>
      <point x="391" y="435" type="line"/>
      <point x="396" y="464" type="line"/>
      <point x="463" y="470"/>
      <point x="479" y="473"/>
      <point x="536" y="486" type="curve"/>
      <point x="574" y="486" type="line"/>
      <point x="491" y="31" type="line" smooth="yes"/>
      <point x="474" y="-65"/>
      <point x="464" y="-94"/>
      <point x="437" y="-130" type="curve" smooth="yes"/>
      <point x="395" y="-184"/>
      <point x="313" y="-221"/>
      <point x="235" y="-221" type="curve" smooth="yes"/>
      <point x="159" y="-221"/>
      <point x="100" y="-190"/>
      <point x="100" y="-151" type="curve" smooth="yes"/>
      <point x="100" y="-124"/>
      <point x="123" y="-104"/>
      <point x="155" y="-104" type="curve" smooth="yes"/>
      <point x="180" y="-104"/>
      <point x="197" y="-115"/>
      <point x="215" y="-144" type="curve" smooth="yes"/>
      <point x="234" y="-176"/>
      <point x="246" y="-184"/>
      <point x="270" y="-184" type="curve" smooth="yes"/>
      <point x="303" y="-184"/>
      <point x="336" y="-165"/>
      <point x="356" y="-135" type="curve" smooth="yes"/>
      <point x="373" y="-108"/>
      <point x="377" y="-93"/>
      <point x="400" y="36" type="curve" smooth="yes"/>
      <point x="460" y="362" type="line" smooth="yes"/>
      <point x="461" y="369"/>
      <point x="461" y="372"/>
      <point x="461" y="381" type="curve" smooth="yes"/>
      <point x="461" y="412"/>
      <point x="446" y="425"/>
      <point x="402" y="433" type="curve" smooth="yes"/>
    </contour>
    <contour>
      <point x="557" y="665" type="curve" smooth="yes"/>
      <point x="586" y="665"/>
      <point x="608" y="645"/>
      <point x="608" y="617" type="curve" smooth="yes"/>
      <point x="608" y="578"/>
      <point x="573" y="543"/>
      <point x="535" y="543" type="curve" smooth="yes"/>
      <point x="507" y="543"/>
      <point x="486" y="565"/>
      <point x="486" y="594" type="curve" smooth="yes"/>
      <point x="486" y="630"/>
      <point x="521" y="665"/>
    </contour>
    <contour>
      <point x="328" y="86" type="curve"/>
      <point x="351" y="65" type="line"/>
      <point x="305" y="15"/>
      <point x="258" y="-9"/>
      <point x="207" y="-9" type="curve" smooth="yes"/>
      <point x="148" y="-9"/>
      <point x="111" y="30"/>
      <point x="111" y="93" type="curve" smooth="yes"/>
      <point x="111" y="104"/>
      <point x="112" y="117"/>
      <point x="114" y="128" type="curve" smooth="yes"/>
      <point x="156" y="358" type="line" smooth="yes"/>
      <point x="158" y="367"/>
      <point x="158" y="372"/>
      <point x="158" y="383" type="curve" smooth="yes"/>
      <point x="158" y="412"/>
      <point x="142" y="426"/>
      <point x="100" y="433" type="curve" smooth="yes"/>
      <point x="88" y="435" type="line"/>
      <point x="93" y="464" type="line"/>
      <point x="161" y="470"/>
      <point x="176" y="473"/>
      <point x="233" y="486" type="curve"/>
      <point x="271" y="486" type="line"/>
      <point x="206" y="128" type="line" smooth="yes"/>
      <point x="205" y="119"/>
      <point x="204" y="112"/>
      <point x="204" y="102" type="curve" smooth="yes"/>
      <point x="204" y="67"/>
      <point x="225" y="43"/>
      <point x="257" y="43" type="curve" smooth="yes"/>
      <point x="277" y="43"/>
      <point x="298" y="55"/>
    </contour>
    <contour>
      <point x="268" y="666" type="curve" smooth="yes"/>
      <point x="298" y="666"/>
      <point x="320" y="646"/>
      <point x="320" y="618" type="curve" smooth="yes"/>
      <point x="320" y="578"/>
      <point x="285" y="543"/>
      <point x="246" y="543" type="curve" smooth="yes"/>
      <point x="218" y="543"/>
      <point x="197" y="565"/>
      <point x="197" y="595" type="curve" smooth="yes"/>
      <point x="197" y="631"/>
      <point x="232" y="666"/>
    </contour>
  </outline>
</glyph>
<glyph name="jcircumflex" format="1">
  <advance width="280"/>
  <unicode hex="0135"/>
  <outline>
    <contour>
      <point x="91" y="435" type="line"/>
      <point x="96" y="464" type="line"/>
      <point x="163" y="470"/>
      <point x="179" y="473"/>
      <point x="236" y="486" type="curve"/>
      <point x="274" y="486" type="line"/>
      <point x="191" y="31" type="line" smooth="yes"/>
      <point x="174" y="-65"/>
      <point x="164" y="-94"/>
      <point x="137" y="-130" type="curve" smooth="yes"/>
      <point x="95" y="-184"/>
      <point x="13" y="-221"/>
      <point x="-65" y="-221" type="curve" smooth="yes"/>
      <point x="-141" y="-221"/>
      <point x="-200" y="-190"/>
      <point x="-200" y="-151" type="curve" smooth="yes"/>
      <point x="-200" y="-124"/>
      <point x="-177" y="-104"/>
      <point x="-145" y="-104" type="curve" smooth="yes"/>
      <point x="-120" y="-104"/>
      <point x="-103" y="-115"/>
      <point x="-85" y="-144" type="curve" smooth="yes"/>
      <point x="-66" y="-176"/>
      <point x="-54" y="-184"/>
      <point x="-30" y="-184" type="curve" smooth="yes"/>
      <point x="3" y="-184"/>
      <point x="36" y="-165"/>
      <point x="56" y="-135" type="curve" smooth="yes"/>
      <point x="73" y="-108"/>
      <point x="77" y="-93"/>
      <point x="100" y="36" type="curve" smooth="yes"/>
      <point x="160" y="362" type="line" smooth="yes"/>
      <point x="161" y="369"/>
      <point x="161" y="372"/>
      <point x="161" y="381" type="curve" smooth="yes"/>
      <point x="161" y="412"/>
      <point x="146" y="425"/>
      <point x="102" y="433" type="curve" smooth="yes"/>
    </contour>
    <contour>
      <point x="76" y="630" type="line"/>
      <point x="242" y="729" type="line"/>
      <point x="379" y="630" type="line"/>
      <point x="354" y="605" type="line"/>
      <point x="231" y="650" type="line"/>
      <point x="98" y="604" type="line"/>
    </contour>
  </outline>
</glyph>
<glyph name="lacute" format="1">
  <advance width="280"/>
  <unicode hex="013A"/>
  <outline>
    <contour>
      <point x="319" y="85" type="curve"/>
      <point x="342" y="64" type="line"/>
      <point x="301" y="17"/>
      <point x="247" y="-9"/>
      <point x="192" y="-9" type="curve" smooth="yes"/>
      <point x="140" y="-9"/>
      <point x="100" y="32"/>
      <point x="100" y="85" type="curve" smooth="yes"/>
      <point x="100" y="101"/>
      <point x="103" y="125"/>
      <point x="108" y="153" type="curve" smooth="yes"/>
      <point x="185" y="577" type="line" smooth="yes"/>
      <point x="186" y="585"/>
      <point x="187" y="593"/>
      <point x="187" y="599" type="curve" smooth="yes"/>
      <point x="187" y="633"/>
      <point x="172" y="645"/>
      <point x="124" y="651" type="curve" smooth="yes"/>
      <point x="109" y="653" type="line"/>
      <point x="114" y="682" type="line"/>
      <point x="183" y="689"/>
      <point x="216" y="697"/>
      <point x="261" y="715" type="curve"/>
      <point x="302" y="715" type="line"/>
      <point x="202" y="164" type="line" smooth="yes"/>
      <point x="193" y="116"/>
      <point x="193" y="114"/>
      <point x="193" y="101" type="curve" smooth="yes"/>
      <point x="193" y="71"/>
      <point x="216" y="48"/>
      <point x="248" y="48" type="curve" smooth="yes"/>
      <point x="270" y="48"/>
      <point x="289" y="58"/>
    </contour>
    <contour>
      <point x="170" y="725" type="line"/>
      <point x="158" y="754" type="line"/>
      <point x="227" y="822" type="line"/>
      <point x="268" y="861"/>
      <point x="290" y="876"/>
      <point x="311" y="876" type="curve" smooth="yes"/>
      <point x="333" y="876"/>
      <point x="353" y="856"/>
      <point x="353" y="833" type="curve" smooth="yes"/>
      <point x="353" y="808"/>
      <point x="332" y="789"/>
      <point x="283" y="770" type="curve" smooth="yes"/>
    </contour>
  </outline>
</glyph>
<glyph name="Lcommaaccent" format="1">
  <advance width="580"/>
  <unicode hex="013B"/>
  <outline>
    <contour>
      <point x="656" y="209" type="line"/>
      <point x="559" y="0" type="line"/>
      <point x="21" y="0" type="line"/>
      <point x="26" y="29" type="line"/>
      <point x="43" y="31" type="line" smooth="yes"/>
      <point x="98" y="38"/>
      <point x="117" y="59"/>
      <point x="131" y="128" type="curve"/>
      <point x="208" y="553" type="line" smooth="yes"/>
      <point x="210" y="561"/>
      <point x="212" y="587"/>
      <point x="212" y="596" type="curve" smooth="yes"/>
      <point x="212" y="628"/>
      <point x="195" y="645"/>
      <point x="155" y="650" type="curve" smooth="yes"/>
      <point x="139" y="652" type="line"/>
      <point x="145" y="681" type="line"/>
      <point x="419" y="681" type="line"/>
      <point x="413" y="652" type="line"/>
      <point x="397" y="650" type="line" smooth="yes"/>
      <point x="342" y="643"/>
      <point x="322" y="622"/>
      <point x="308" y="553" type="curve"/>
      <point x="233" y="139" type="line"/>
      <point x="227" y="100"/>
      <point x="226" y="96"/>
      <point x="226" y="85" type="curve" smooth="yes"/>
      <point x="226" y="53"/>
      <point x="251" y="39"/>
      <point x="305" y="39" type="curve" smooth="yes"/>
      <point x="379" y="39"/>
      <point x="450" y="64"/>
      <point x="519" y="115" type="curve" smooth="yes"/>
      <point x="558" y="143"/>
      <point x="583" y="169"/>
      <point x="627" y="223" type="curve"/>
    </contour>
    <contour>
      <point x="198" y="-281" type="curve"/>
      <point x="189" y="-263" type="line"/>
      <point x="239" y="-235"/>
      <point x="269" y="-201"/>
      <point x="281" y="-157" type="curve"/>
      <point x="267" y="-169"/>
      <point x="255" y="-174"/>
      <point x="241" y="-174" type="curve" smooth="yes"/>
      <point x="217" y="-174"/>
      <point x="200" y="-154"/>
      <point x="200" y="-126" type="curve" smooth="yes"/>
      <point x="200" y="-86"/>
      <point x="234" y="-53"/>
      <point x="275" y="-53" type="curve" smooth="yes"/>
      <point x="306" y="-53"/>
      <point x="329" y="-80"/>
      <point x="329" y="-117" type="curve" smooth="yes"/>
      <point x="329" y="-183"/>
      <point x="275" y="-251"/>
    </contour>
  </outline>
</glyph>
<glyph name="lcaron" format="1">
  <advance width="380"/>
  <unicode hex="013E"/>
  <outline>
    <contour>
      <point x="319" y="85" type="curve"/>
      <point x="342" y="64" type="line"/>
      <point x="301" y="17"/>
      <point x="247" y="-9"/>
      <point x="192" y="-9" type="curve" smooth="yes"/>
      <point x="140" y="-9"/>
      <point x="100" y="32"/>
      <point x="100" y="85" type="curve" smooth="yes"/>
      <point x="100" y="101"/>
      <point x="103" y="125"/>
      <point x="108" y="153" type="curve" smooth="yes"/>
      <point x="185" y="577" type="line" smooth="yes"/>
      <point x="186" y="585"/>
      <point x="187" y="593"/>
      <point x="187" y="599" type="curve" smooth="yes"/>
      <point x="187" y="633"/>
      <point x="172" y="645"/>
      <point x="124" y="651" type="curve" smooth="yes"/>
      <point x="109" y="653" type="line"/>
      <point x="114" y="682" type="line"/>
      <point x="183" y="689"/>
      <point x="216" y="697"/>
      <point x="261" y="715" type="curve"/>
      <point x="302" y="715" type="line"/>
      <point x="202" y="164" type="line" smooth="yes"/>
      <point x="193" y="116"/>
      <point x="193" y="114"/>
      <point x="193" y="101" type="curve" smooth="yes"/>
      <point x="193" y="71"/>
      <point x="216" y="48"/>
      <point x="248" y="48" type="curve" smooth="yes"/>
      <point x="270" y="48"/>
      <point x="289" y="58"/>
    </contour>
    <contour>
      <point x="309" y="496" type="curve"/>
      <point x="300" y="514" type="line"/>
      <point x="350" y="542"/>
      <point x="380" y="576"/>
      <point x="392" y="619" type="curve"/>
      <point x="378" y="607"/>
      <point x="367" y="602"/>
      <point x="352" y="602" type="curve" smooth="yes"/>
      <point x="328" y="602"/>
      <point x="311" y="622"/>
      <point x="311" y="650" type="curve" smooth="yes"/>
      <point x="311" y="690"/>
      <point x="345" y="723"/>
      <point x="386" y="723" type="curve" smooth="yes"/>
      <point x="417" y="723"/>
      <point x="440" y="696"/>
      <point x="440" y="659" type="curve" smooth="yes"/>
      <point x="440" y="593"/>
      <point x="386" y="526"/>
    </contour>
  </outline>
</glyph>
<glyph name="ldot" format="1">
  <advance width="450"/>
  <unicode hex="0140"/>
  <outline>
    <contour>
      <point x="370" y="382" type="curve" smooth="yes"/>
      <point x="403" y="382"/>
      <point x="426" y="358"/>
      <point x="426" y="324" type="curve" smooth="yes"/>
      <point x="426" y="284"/>
      <point x="387" y="247"/>
      <point x="345" y="247" type="curve" smooth="yes"/>
      <point x="313" y="247"/>
      <point x="291" y="269"/>
      <point x="291" y="301" type="curve" smooth="yes"/>
      <point x="291" y="344"/>
      <point x="328" y="382"/>
    </contour>
    <contour>
      <point x="319" y="85" type="curve"/>
      <point x="342" y="64" type="line"/>
      <point x="301" y="17"/>
      <point x="247" y="-9"/>
      <point x="192" y="-9" type="curve" smooth="yes"/>
      <point x="140" y="-9"/>
      <point x="100" y="32"/>
      <point x="100" y="85" type="curve" smooth="yes"/>
      <point x="100" y="101"/>
      <point x="103" y="125"/>
      <point x="108" y="153" type="curve" smooth="yes"/>
      <point x="185" y="577" type="line" smooth="yes"/>
      <point x="186" y="585"/>
      <point x="187" y="593"/>
      <point x="187" y="599" type="curve" smooth="yes"/>
      <point x="187" y="633"/>
      <point x="172" y="645"/>
      <point x="124" y="651" type="curve" smooth="yes"/>
      <point x="109" y="653" type="line"/>
      <point x="114" y="682" type="line"/>
      <point x="183" y="689"/>
      <point x="216" y="697"/>
      <point x="261" y="715" type="curve"/>
      <point x="302" y="715" type="line"/>
      <point x="202" y="164" type="line" smooth="yes"/>
      <point x="193" y="116"/>
      <point x="193" y="114"/>
      <point x="193" y="101" type="curve" smooth="yes"/>
      <point x="193" y="71"/>
      <point x="216" y="48"/>
      <point x="248" y="48" type="curve" smooth="yes"/>
      <point x="270" y="48"/>
      <point x="289" y="58"/>
    </contour>
  </outline>
</glyph>
<glyph name="lslash" format="1">
  <advance width="340"/>
  <unicode hex="0142"/>
  <outline>
    <contour>
      <point x="175" y="378" type="line"/>
      <point x="211" y="577" type="line" smooth="yes"/>
      <point x="212" y="585"/>
      <point x="213" y="594"/>
      <point x="213" y="599" type="curve" smooth="yes"/>
      <point x="213" y="633"/>
      <point x="198" y="645"/>
      <point x="150" y="651" type="curve" smooth="yes"/>
      <point x="135" y="653" type="line"/>
      <point x="140" y="682" type="line"/>
      <point x="209" y="689"/>
      <point x="242" y="697"/>
      <point x="287" y="715" type="curve"/>
      <point x="328" y="715" type="line"/>
      <point x="274" y="417" type="line"/>
      <point x="398" y="477" type="line"/>
      <point x="389" y="430" type="line"/>
      <point x="265" y="370" type="line"/>
      <point x="228" y="164" type="line" smooth="yes"/>
      <point x="219" y="116"/>
      <point x="219" y="114"/>
      <point x="219" y="101" type="curve" smooth="yes"/>
      <point x="219" y="71"/>
      <point x="242" y="48"/>
      <point x="274" y="48" type="curve" smooth="yes"/>
      <point x="296" y="48"/>
      <point x="315" y="58"/>
      <point x="345" y="85" type="curve"/>
      <point x="368" y="64" type="line"/>
      <point x="327" y="17"/>
      <point x="273" y="-9"/>
      <point x="218" y="-9" type="curve" smooth="yes"/>
      <point x="166" y="-9"/>
      <point x="126" y="32"/>
      <point x="126" y="85" type="curve" smooth="yes"/>
      <point x="126" y="101"/>
      <point x="129" y="126"/>
      <point x="134" y="153" type="curve" smooth="yes"/>
      <point x="166" y="331" type="line"/>
      <point x="50" y="275" type="line"/>
      <point x="58" y="321" type="line"/>
    </contour>
  </outline>
</glyph>
<glyph name="Nacute" format="1">
  <advance width="720"/>
  <unicode hex="0143"/>
  <outline>
    <contour>
      <point x="360" y="681" type="line"/>
      <point x="581" y="130" type="line"/>
      <point x="658" y="553" type="line" smooth="yes"/>
      <point x="659" y="560"/>
      <point x="661" y="587"/>
      <point x="661" y="596" type="curve" smooth="yes"/>
      <point x="661" y="628"/>
      <point x="644" y="645"/>
      <point x="604" y="650" type="curve" smooth="yes"/>
      <point x="589" y="652" type="line"/>
      <point x="594" y="681" type="line"/>
      <point x="823" y="681" type="line"/>
      <point x="818" y="652" type="line"/>
      <point x="801" y="650" type="line" smooth="yes"/>
      <point x="746" y="643"/>
      <point x="727" y="621"/>
      <point x="713" y="553" type="curve"/>
      <point x="612" y="0" type="line"/>
      <point x="526" y="0" type="line"/>
      <point x="273" y="622" type="line"/>
      <point x="183" y="128" type="line" smooth="yes"/>
      <point x="181" y="115"/>
      <point x="179" y="97"/>
      <point x="179" y="87" type="curve" smooth="yes"/>
      <point x="179" y="53"/>
      <point x="196" y="36"/>
      <point x="237" y="31" type="curve" smooth="yes"/>
      <point x="252" y="29" type="line"/>
      <point x="247" y="0" type="line"/>
      <point x="18" y="0" type="line"/>
      <point x="23" y="29" type="line"/>
      <point x="40" y="31" type="line" smooth="yes"/>
      <point x="95" y="38"/>
      <point x="114" y="59"/>
      <point x="128" y="128" type="curve"/>
      <point x="205" y="553" type="line" smooth="yes"/>
      <point x="207" y="561"/>
      <point x="209" y="587"/>
      <point x="209" y="596" type="curve" smooth="yes"/>
      <point x="209" y="628"/>
      <point x="192" y="645"/>
      <point x="152" y="650" type="curve" smooth="yes"/>
      <point x="136" y="652" type="line"/>
      <point x="142" y="681" type="line"/>
    </contour>
    <contour>
      <point x="430" y="725" type="line"/>
      <point x="418" y="754" type="line"/>
      <point x="487" y="822" type="line"/>
      <point x="528" y="861"/>
      <point x="550" y="876"/>
      <point x="571" y="876" type="curve" smooth="yes"/>
      <point x="593" y="876"/>
      <point x="613" y="856"/>
      <point x="613" y="833" type="curve" smooth="yes"/>
      <point x="613" y="808"/>
      <point x="592" y="789"/>
      <point x="543" y="770" type="curve" smooth="yes"/>
    </contour>
  </outline>
</glyph>
<glyph name="nacute" format="1">
  <advance width="620"/>
  <unicode hex="0144"/>
  <outline>
    <contour>
      <point x="249" y="367" type="curve"/>
      <point x="183" y="0" type="line"/>
      <point x="91" y="0" type="line"/>
      <point x="156" y="358" type="line" smooth="yes"/>
      <point x="157" y="367"/>
      <point x="158" y="373"/>
      <point x="158" y="383" type="curve" smooth="yes"/>
      <point x="158" y="412"/>
      <point x="142" y="426"/>
      <point x="100" y="433" type="curve" smooth="yes"/>
      <point x="88" y="435" type="line"/>
      <point x="93" y="464" type="line"/>
      <point x="161" y="470"/>
      <point x="176" y="473"/>
      <point x="233" y="486" type="curve"/>
      <point x="271" y="486" type="line"/>
      <point x="258" y="414" type="line"/>
      <point x="339" y="471"/>
      <point x="401" y="495"/>
      <point x="468" y="495" type="curve" smooth="yes"/>
      <point x="545" y="495"/>
      <point x="592" y="459"/>
      <point x="592" y="401" type="curve" smooth="yes"/>
      <point x="592" y="380"/>
      <point x="592" y="380"/>
      <point x="580" y="318" type="curve" smooth="yes"/>
      <point x="550" y="154" type="line" smooth="yes"/>
      <point x="545" y="125"/>
      <point x="543" y="112"/>
      <point x="543" y="99" type="curve" smooth="yes"/>
      <point x="543" y="68"/>
      <point x="564" y="43"/>
      <point x="591" y="43" type="curve" smooth="yes"/>
      <point x="610" y="43"/>
      <point x="624" y="52"/>
      <point x="653" y="81" type="curve"/>
      <point x="673" y="59" type="line"/>
      <point x="637" y="15"/>
      <point x="591" y="-9"/>
      <point x="543" y="-9" type="curve" smooth="yes"/>
      <point x="490" y="-9"/>
      <point x="450" y="32"/>
      <point x="450" y="86" type="curve" smooth="yes"/>
      <point x="450" y="105"/>
      <point x="452" y="124"/>
      <point x="461" y="172" type="curve" smooth="yes"/>
      <point x="490" y="329" type="line"/>
      <point x="490" y="329"/>
      <point x="492" y="343"/>
      <point x="495" y="354" type="curve"/>
      <point x="497" y="368"/>
      <point x="499" y="381"/>
      <point x="499" y="389" type="curve" smooth="yes"/>
      <point x="499" y="425"/>
      <point x="472" y="448"/>
      <point x="430" y="448" type="curve" smooth="yes"/>
      <point x="376" y="448"/>
      <point x="325" y="425"/>
    </contour>
    <contour>
      <point x="340" y="538" type="line"/>
      <point x="328" y="567" type="line"/>
      <point x="397" y="635" type="line"/>
      <point x="438" y="674"/>
      <point x="460" y="689"/>
      <point x="481" y="689" type="curve" smooth="yes"/>
      <point x="503" y="689"/>
      <point x="523" y="669"/>
      <point x="523" y="646" type="curve" smooth="yes"/>
      <point x="523" y="621"/>
      <point x="502" y="602"/>
      <point x="453" y="583" type="curve" smooth="yes"/>
    </contour>
  </outline>
</glyph>
<glyph name="ncommaaccent" format="1">
  <advance width="620"/>
  <unicode hex="0146"/>
  <outline>
    <contour>
      <point x="249" y="367" type="curve"/>
      <point x="183" y="0" type="line"/>
      <point x="91" y="0" type="line"/>
      <point x="156" y="358" type="line" smooth="yes"/>
      <point x="157" y="367"/>
      <point x="158" y="373"/>
      <point x="158" y="383" type="curve" smooth="yes"/>
      <point x="158" y="412"/>
      <point x="142" y="426"/>
      <point x="100" y="433" type="curve" smooth="yes"/>
      <point x="88" y="435" type="line"/>
      <point x="93" y="464" type="line"/>
      <point x="161" y="470"/>
      <point x="176" y="473"/>
      <point x="233" y="486" type="curve"/>
      <point x="271" y="486" type="line"/>
      <point x="258" y="414" type="line"/>
      <point x="339" y="471"/>
      <point x="401" y="495"/>
      <point x="468" y="495" type="curve" smooth="yes"/>
      <point x="545" y="495"/>
      <point x="592" y="459"/>
      <point x="592" y="401" type="curve" smooth="yes"/>
      <point x="592" y="380"/>
      <point x="592" y="380"/>
      <point x="580" y="318" type="curve" smooth="yes"/>
      <point x="550" y="154" type="line" smooth="yes"/>
      <point x="545" y="125"/>
      <point x="543" y="112"/>
      <point x="543" y="99" type="curve" smooth="yes"/>
      <point x="543" y="68"/>
      <point x="564" y="43"/>
      <point x="591" y="43" type="curve" smooth="yes"/>
      <point x="610" y="43"/>
      <point x="624" y="52"/>
      <point x="653" y="81" type="curve"/>
      <point x="673" y="59" type="line"/>
      <point x="637" y="15"/>
      <point x="591" y="-9"/>
      <point x="543" y="-9" type="curve" smooth="yes"/>
      <point x="490" y="-9"/>
      <point x="450" y="32"/>
      <point x="450" y="86" type="curve" smooth="yes"/>
      <point x="450" y="105"/>
      <point x="452" y="124"/>
      <point x="461" y="172" type="curve" smooth="yes"/>
      <point x="490" y="329" type="line"/>
      <point x="490" y="329"/>
      <point x="492" y="343"/>
      <point x="495" y="354" type="curve"/>
      <point x="497" y="368"/>
      <point x="499" y="381"/>
      <point x="499" y="389" type="curve" smooth="yes"/>
      <point x="499" y="425"/>
      <point x="472" y="448"/>
      <point x="430" y="448" type="curve" smooth="yes"/>
      <point x="376" y="448"/>
      <point x="325" y="425"/>
    </contour>
    <contour>
      <point x="219" y="-279" type="curve"/>
      <point x="210" y="-261" type="line"/>
      <point x="260" y="-233"/>
      <point x="290" y="-199"/>
      <point x="302" y="-155" type="curve"/>
      <point x="288" y="-167"/>
      <point x="276" y="-172"/>
      <point x="262" y="-172" type="curve" smooth="yes"/>
      <point x="238" y="-172"/>
      <point x="221" y="-152"/>
      <point x="221" y="-124" type="curve" smooth="yes"/>
      <point x="221" y="-84"/>
      <point x="255" y="-51"/>
      <point x="296" y="-51" type="curve" smooth="yes"/>
      <point x="327" y="-51"/>
      <point x="350" y="-78"/>
      <point x="350" y="-115" type="curve" smooth="yes"/>
      <point x="350" y="-181"/>
      <point x="296" y="-248"/>
    </contour>
  </outline>
</glyph>
<glyph name="oe" format="1">
  <advance width="900"/>
  <unicode hex="0153"/>
  <outline>
    <contour>
      <point x="874" y="113" type="curve"/>
      <point x="896" y="85" type="line"/>
      <point x="827" y="25"/>
      <point x="742" y="-9"/>
      <point x="659" y="-9" type="curve" smooth="yes"/>
      <point x="585" y="-9"/>
      <point x="524" y="18"/>
      <point x="479" y="71" type="curve"/>
      <point x="411" y="15"/>
      <point x="347" y="-9"/>
      <point x="269" y="-9" type="curve" smooth="yes"/>
      <point x="152" y="-9"/>
      <point x="65" y="77"/>
      <point x="65" y="193" type="curve" smooth="yes"/>
      <point x="65" y="364"/>
      <point x="192" y="495"/>
      <point x="357" y="495" type="curve" smooth="yes"/>
      <point x="440" y="495"/>
      <point x="494" y="467"/>
      <point x="539" y="401" type="curve"/>
      <point x="623" y="468"/>
      <point x="692" y="495"/>
      <point x="779" y="495" type="curve" smooth="yes"/>
      <point x="878" y="495"/>
      <point x="948" y="449"/>
      <point x="948" y="385" type="curve" smooth="yes"/>
      <point x="948" y="345"/>
      <point x="922" y="309"/>
      <point x="874" y="283" type="curve"/>
      <point x="816" y="250"/>
      <point x="691" y="227"/>
      <point x="576" y="227" type="curve" smooth="yes"/>
      <point x="560" y="227" type="line"/>
      <point x="554" y="205"/>
      <point x="553" y="193"/>
      <point x="553" y="172" type="curve" smooth="yes"/>
      <point x="553" y="91"/>
      <point x="603" y="38"/>
      <point x="680" y="38" type="curve" smooth="yes"/>
      <point x="739" y="38"/>
      <point x="798" y="61"/>
    </contour>
    <contour>
      <point x="354" y="458" type="curve" smooth="yes"/>
      <point x="303" y="458"/>
      <point x="256" y="434"/>
      <point x="227" y="395" type="curve"/>
      <point x="188" y="340"/>
      <point x="162" y="254"/>
      <point x="162" y="174" type="curve" smooth="yes"/>
      <point x="162" y="133"/>
      <point x="170" y="99"/>
      <point x="186" y="77" type="curve"/>
      <point x="203" y="51"/>
      <point x="241" y="33"/>
      <point x="279" y="33" type="curve" smooth="yes"/>
      <point x="342" y="33"/>
      <point x="394" y="67"/>
      <point x="426" y="129" type="curve" smooth="yes"/>
      <point x="453" y="180"/>
      <point x="471" y="255"/>
      <point x="471" y="312" type="curve" smooth="yes"/>
      <point x="471" y="407"/>
      <point x="430" y="458"/>
    </contour>
    <contour>
      <point x="568" y="262" type="curve"/>
      <point x="577" y="262" type="line"/>
      <point x="581" y="262" type="line"/>
      <point x="627" y="261"/>
      <point x="692" y="270"/>
      <point x="735" y="283" type="curve" smooth="yes"/>
      <point x="813" y="307"/>
      <point x="855" y="346"/>
      <point x="855" y="393" type="curve" smooth="yes"/>
      <point x="855" y="432"/>
      <point x="816" y="462"/>
      <point x="766" y="462" type="curve" smooth="yes"/>
      <point x="707" y="462"/>
      <point x="652" y="427"/>
      <point x="612" y="365" type="curve" smooth="yes"/>
      <point x="595" y="340"/>
      <point x="583" y="312"/>
    </contour>
  </outline>
</glyph>
<glyph name="Sacute" format="1">
  <advance width="640"/>
  <unicode hex="015A"/>
  <outline>
    <contour>
      <point x="637" y="681" type="line"/>
      <point x="668" y="486" type="line"/>
      <point x="633" y="486" type="line"/>
      <point x="606" y="542"/>
      <point x="593" y="564"/>
      <point x="571" y="587" type="curve" smooth="yes"/>
      <point x="532" y="628"/>
      <point x="473" y="652"/>
      <point x="414" y="652" type="curve" smooth="yes"/>
      <point x="320" y="652"/>
      <point x="243" y="592"/>
      <point x="243" y="520" type="curve" smooth="yes"/>
      <point x="243" y="482"/>
      <point x="268" y="457"/>
      <point x="325" y="438" type="curve" smooth="yes"/>
      <point x="351" y="429"/>
      <point x="391" y="418"/>
      <point x="512" y="385" type="curve" smooth="yes"/>
      <point x="619" y="356"/>
      <point x="663" y="311"/>
      <point x="663" y="231" type="curve" smooth="yes"/>
      <point x="663" y="97"/>
      <point x="522" y="-13"/>
      <point x="350" y="-13" type="curve" smooth="yes"/>
      <point x="268" y="-13"/>
      <point x="206" y="6"/>
      <point x="147" y="50" type="curve"/>
      <point x="119" y="0" type="line"/>
      <point x="83" y="0" type="line"/>
      <point x="61" y="247" type="line"/>
      <point x="100" y="247" type="line"/>
      <point x="138" y="112"/>
      <point x="229" y="34"/>
      <point x="349" y="34" type="curve" smooth="yes"/>
      <point x="462" y="34"/>
      <point x="556" y="109"/>
      <point x="556" y="200" type="curve" smooth="yes"/>
      <point x="556" y="231"/>
      <point x="544" y="251"/>
      <point x="517" y="267" type="curve" smooth="yes"/>
      <point x="490" y="282"/>
      <point x="472" y="288"/>
      <point x="381" y="312" type="curve" smooth="yes"/>
      <point x="288" y="336"/>
      <point x="254" y="348"/>
      <point x="216" y="367" type="curve" smooth="yes"/>
      <point x="166" y="392"/>
      <point x="136" y="439"/>
      <point x="136" y="491" type="curve" smooth="yes"/>
      <point x="136" y="605"/>
      <point x="257" y="694"/>
      <point x="411" y="694" type="curve" smooth="yes"/>
      <point x="479" y="694"/>
      <point x="528" y="680"/>
      <point x="586" y="644" type="curve"/>
      <point x="605" y="681" type="line"/>
    </contour>
    <contour>
      <point x="350" y="725" type="line"/>
      <point x="338" y="754" type="line"/>
      <point x="407" y="822" type="line"/>
      <point x="448" y="861"/>
      <point x="470" y="876"/>
      <point x="491" y="876" type="curve" smooth="yes"/>
      <point x="513" y="876"/>
      <point x="533" y="856"/>
      <point x="533" y="833" type="curve" smooth="yes"/>
      <point x="533" y="808"/>
      <point x="512" y="789"/>
      <point x="463" y="770" type="curve" smooth="yes"/>
    </contour>
  </outline>
</glyph>
<glyph name="Scedilla" format="1">
  <advance width="640"/>
  <unicode hex="015E"/>
  <outline>
    <contour>
      <point x="333" y="-13" type="line"/>
      <point x="323" y="-43" type="line"/>
      <point x="331" y="-43" type="line"/>
      <point x="342" y="-43" type="line" smooth="yes"/>
      <point x="389" y="-43"/>
      <point x="420" y="-66"/>
      <point x="420" y="-101" type="curve" smooth="yes"/>
      <point x="420" y="-146"/>
      <point x="370" y="-182"/>
      <point x="308" y="-182" type="curve" smooth="yes"/>
      <point x="260" y="-182"/>
      <point x="225" y="-162"/>
      <point x="225" y="-134" type="curve" smooth="yes"/>
      <point x="225" y="-119"/>
      <point x="236" y="-106"/>
      <point x="250" y="-106" type="curve" smooth="yes"/>
      <point x="267" y="-106"/>
      <point x="273" y="-111"/>
      <point x="275" y="-128" type="curve" smooth="yes"/>
      <point x="278" y="-145"/>
      <point x="291" y="-155"/>
      <point x="311" y="-155" type="curve" smooth="yes"/>
      <point x="341" y="-155"/>
      <point x="368" y="-132"/>
      <point x="368" y="-107" type="curve" smooth="yes"/>
      <point x="368" y="-84"/>
      <point x="345" y="-68"/>
      <point x="312" y="-68" type="curve" smooth="yes"/>
      <point x="299" y="-68"/>
      <point x="286" y="-70"/>
      <point x="271" y="-74" type="curve"/>
      <point x="297" y="-10" type="line"/>
      <point x="233" y="0"/>
      <point x="189" y="17"/>
      <point x="147" y="50" type="curve"/>
      <point x="119" y="0" type="line"/>
      <point x="83" y="0" type="line"/>
      <point x="61" y="247" type="line"/>
      <point x="100" y="247" type="line"/>
      <point x="138" y="112"/>
      <point x="229" y="34"/>
      <point x="349" y="34" type="curve" smooth="yes"/>
      <point x="462" y="34"/>
      <point x="556" y="109"/>
      <point x="556" y="200" type="curve" smooth="yes"/>
      <point x="556" y="231"/>
      <point x="544" y="251"/>
      <point x="517" y="267" type="curve" smooth="yes"/>
      <point x="490" y="282"/>
      <point x="472" y="288"/>
      <point x="381" y="312" type="curve" smooth="yes"/>
      <point x="288" y="336"/>
      <point x="254" y="348"/>
      <point x="216" y="367" type="curve" smooth="yes"/>
      <point x="166" y="392"/>
      <point x="136" y="439"/>
      <point x="136" y="491" type="curve" smooth="yes"/>
      <point x="136" y="605"/>
      <point x="257" y="694"/>
      <point x="411" y="694" type="curve" smooth="yes"/>
      <point x="479" y="694"/>
      <point x="528" y="680"/>
      <point x="586" y="644" type="curve"/>
      <point x="605" y="681" type="line"/>
      <point x="637" y="681" type="line"/>
      <point x="668" y="486" type="line"/>
      <point x="633" y="486" type="line"/>
      <point x="606" y="542"/>
      <point x="593" y="564"/>
      <point x="571" y="587" type="curve" smooth="yes"/>
      <point x="532" y="628"/>
      <point x="473" y="652"/>
      <point x="414" y="652" type="curve" smooth="yes"/>
      <point x="320" y="652"/>
      <point x="243" y="592"/>
      <point x="243" y="520" type="curve" smooth="yes"/>
      <point x="243" y="482"/>
      <point x="268" y="457"/>
      <point x="325" y="438" type="curve" smooth="yes"/>
      <point x="351" y="429"/>
      <point x="391" y="418"/>
      <point x="512" y="385" type="curve" smooth="yes"/>
      <point x="619" y="356"/>
      <point x="663" y="311"/>
      <point x="663" y="231" type="curve" smooth="yes"/>
      <point x="663" y="98"/>
      <point x="522" y="-13"/>
      <point x="353" y="-13" type="curve" smooth="yes"/>
    </contour>
  </outline>
</glyph>
<glyph name="Tcaron" format="1">
  <advance width="600"/>
  <unicode hex="0164"/>
  <outline>
    <contour>
      <point x="700" y="681" type="line"/>
      <point x="725" y="484" type="line"/>
      <point x="693" y="484" type="line"/>
      <point x="673" y="531"/>
      <point x="660" y="553"/>
      <point x="638" y="578" type="curve" smooth="yes"/>
      <point x="599" y="620"/>
      <point x="556" y="639"/>
      <point x="502" y="639" type="curve" smooth="yes"/>
      <point x="468" y="639"/>
      <point x="460" y="632"/>
      <point x="453" y="594" type="curve" smooth="yes"/>
      <point x="369" y="128" type="line" smooth="yes"/>
      <point x="367" y="120"/>
      <point x="365" y="93"/>
      <point x="365" y="84" type="curve" smooth="yes"/>
      <point x="365" y="53"/>
      <point x="387" y="34"/>
      <point x="426" y="31" type="curve" smooth="yes"/>
      <point x="456" y="29" type="line"/>
      <point x="451" y="0" type="line"/>
      <point x="141" y="0" type="line"/>
      <point x="146" y="29" type="line"/>
      <point x="176" y="31" type="line"/>
      <point x="234" y="36"/>
      <point x="255" y="59"/>
      <point x="269" y="128" type="curve"/>
      <point x="354" y="599" type="line" smooth="yes"/>
      <point x="356" y="605"/>
      <point x="356" y="610"/>
      <point x="356" y="617" type="curve" smooth="yes"/>
      <point x="356" y="633"/>
      <point x="346" y="639"/>
      <point x="317" y="639" type="curve" smooth="yes"/>
      <point x="231" y="639"/>
      <point x="156" y="590"/>
      <point x="84" y="486" type="curve"/>
      <point x="50" y="486" type="line"/>
      <point x="134" y="681" type="line"/>
    </contour>
    <contour>
      <point x="588" y="828" type="line"/>
      <point x="422" y="728" type="line"/>
      <point x="285" y="827" type="line"/>
      <point x="310" y="852" type="line"/>
      <point x="433" y="807" type="line"/>
      <point x="566" y="853" type="line"/>
    </contour>
  </outline>
</glyph>
<glyph name="Utilde" format="1">
  <advance width="720"/>
  <unicode hex="0168"/>
  <outline>
    <contour>
      <point x="634" y="864" type="curve"/>
      <point x="663" y="864" type="line"/>
      <point x="638" y="809"/>
      <point x="599" y="781"/>
      <point x="549" y="781" type="curve" smooth="yes"/>
      <point x="533" y="781"/>
      <point x="530" y="782"/>
      <point x="495" y="791" type="curve" smooth="yes"/>
      <point x="471" y="797"/>
      <point x="442" y="802"/>
      <point x="431" y="802" type="curve" smooth="yes"/>
      <point x="412" y="802"/>
      <point x="396" y="796"/>
      <point x="386" y="786" type="curve"/>
      <point x="355" y="786" type="line"/>
      <point x="376" y="834"/>
      <point x="415" y="862"/>
      <point x="460" y="862" type="curve" smooth="yes"/>
      <point x="477" y="862"/>
      <point x="487" y="860"/>
      <point x="543" y="847" type="curve" smooth="yes"/>
      <point x="562" y="843"/>
      <point x="573" y="841"/>
      <point x="580" y="841" type="curve" smooth="yes"/>
      <point x="599" y="841"/>
      <point x="614" y="848"/>
    </contour>
    <contour>
      <point x="842" y="681" type="line"/>
      <point x="837" y="652" type="line"/>
      <point x="820" y="650" type="line" smooth="yes"/>
      <point x="765" y="643"/>
      <point x="746" y="622"/>
      <point x="732" y="553" type="curve"/>
      <point x="675" y="239" type="line" smooth="yes"/>
      <point x="655" y="132"/>
      <point x="634" y="88"/>
      <point x="582" y="48" type="curve" smooth="yes"/>
      <point x="529" y="8"/>
      <point x="452" y="-13"/>
      <point x="356" y="-13" type="curve" smooth="yes"/>
      <point x="268" y="-13"/>
      <point x="207" y="5"/>
      <point x="163" y="45" type="curve" smooth="yes"/>
      <point x="135" y="71"/>
      <point x="118" y="108"/>
      <point x="118" y="145" type="curve" smooth="yes"/>
      <point x="118" y="160"/>
      <point x="122" y="192"/>
      <point x="126" y="217" type="curve" smooth="yes"/>
      <point x="187" y="553" type="line" smooth="yes"/>
      <point x="189" y="562"/>
      <point x="191" y="586"/>
      <point x="191" y="596" type="curve" smooth="yes"/>
      <point x="191" y="628"/>
      <point x="174" y="645"/>
      <point x="134" y="650" type="curve" smooth="yes"/>
      <point x="118" y="652" type="line"/>
      <point x="123" y="681" type="line"/>
      <point x="397" y="681" type="line"/>
      <point x="392" y="652" type="line"/>
      <point x="376" y="650" type="line" smooth="yes"/>
      <point x="321" y="643"/>
      <point x="301" y="622"/>
      <point x="287" y="553" type="curve"/>
      <point x="231" y="246" type="line" smooth="yes"/>
      <point x="228" y="229"/>
      <point x="225" y="185"/>
      <point x="225" y="161" type="curve" smooth="yes"/>
      <point x="225" y="79"/>
      <point x="283" y="34"/>
      <point x="389" y="34" type="curve" smooth="yes"/>
      <point x="462" y="34"/>
      <point x="527" y="57"/>
      <point x="563" y="96" type="curve" smooth="yes"/>
      <point x="593" y="129"/>
      <point x="606" y="164"/>
      <point x="622" y="252" type="curve" smooth="yes"/>
      <point x="677" y="553" type="line" smooth="yes"/>
      <point x="679" y="566"/>
      <point x="681" y="584"/>
      <point x="681" y="594" type="curve" smooth="yes"/>
      <point x="681" y="629"/>
      <point x="664" y="645"/>
      <point x="623" y="650" type="curve" smooth="yes"/>
      <point x="608" y="652" type="line"/>
      <point x="613" y="681" type="line"/>
    </contour>
  </outline>
</glyph>
<glyph name="utilde" format="1">
  <advance width="620"/>
  <unicode hex="0169"/>
  <outline>
    <contour>
      <point x="583" y="682" type="curve"/>
      <point x="612" y="682" type="line"/>
      <point x="587" y="627"/>
      <point x="548" y="599"/>
      <point x="498" y="599" type="curve" smooth="yes"/>
      <point x="482" y="599"/>
      <point x="479" y="600"/>
      <point x="444" y="609" type="curve" smooth="yes"/>
      <point x="420" y="615"/>
      <point x="391" y="620"/>
      <point x="380" y="620" type="curve" smooth="yes"/>
      <point x="361" y="620"/>
      <point x="345" y="614"/>
      <point x="335" y="604" type="curve"/>
      <point x="304" y="604" type="line"/>
      <point x="325" y="652"/>
      <point x="364" y="680"/>
      <point x="409" y="680" type="curve" smooth="yes"/>
      <point x="426" y="680"/>
      <point x="436" y="678"/>
      <point x="492" y="665" type="curve" smooth="yes"/>
      <point x="511" y="661"/>
      <point x="522" y="659"/>
      <point x="529" y="659" type="curve" smooth="yes"/>
      <point x="548" y="659"/>
      <point x="563" y="666"/>
    </contour>
    <contour>
      <point x="607" y="486" type="line"/>
      <point x="548" y="159" type="line" smooth="yes"/>
      <point x="540" y="111"/>
      <point x="540" y="111"/>
      <point x="540" y="103" type="curve" smooth="yes"/>
      <point x="540" y="69"/>
      <point x="562" y="43"/>
      <point x="591" y="43" type="curve" smooth="yes"/>
      <point x="614" y="43"/>
      <point x="643" y="61"/>
      <point x="663" y="87" type="curve"/>
      <point x="686" y="66" type="line"/>
      <point x="644" y="17"/>
      <point x="595" y="-9"/>
      <point x="545" y="-9" type="curve" smooth="yes"/>
      <point x="488" y="-9"/>
      <point x="450" y="25"/>
      <point x="442" y="83" type="curve"/>
      <point x="424" y="66"/>
      <point x="398" y="47"/>
      <point x="362" y="28" type="curve" smooth="yes"/>
      <point x="313" y="2"/>
      <point x="271" y="-9"/>
      <point x="223" y="-9" type="curve" smooth="yes"/>
      <point x="152" y="-9"/>
      <point x="111" y="26"/>
      <point x="111" y="84" type="curve" smooth="yes"/>
      <point x="111" y="101"/>
      <point x="113" y="121"/>
      <point x="117" y="144" type="curve" smooth="yes"/>
      <point x="156" y="358" type="line" smooth="yes"/>
      <point x="158" y="367"/>
      <point x="158" y="372"/>
      <point x="158" y="382" type="curve" smooth="yes"/>
      <point x="158" y="412"/>
      <point x="142" y="426"/>
      <point x="100" y="433" type="curve" smooth="yes"/>
      <point x="88" y="435" type="line"/>
      <point x="93" y="464" type="line"/>
      <point x="161" y="470"/>
      <point x="176" y="473"/>
      <point x="233" y="486" type="curve"/>
      <point x="271" y="486" type="line"/>
      <point x="209" y="143" type="line" smooth="yes"/>
      <point x="205" y="121"/>
      <point x="204" y="113"/>
      <point x="204" y="103" type="curve" smooth="yes"/>
      <point x="204" y="66"/>
      <point x="227" y="43"/>
      <point x="265" y="43" type="curve" smooth="yes"/>
      <point x="319" y="43"/>
      <point x="368" y="64"/>
      <point x="449" y="123" type="curve"/>
      <point x="515" y="486" type="line"/>
    </contour>
  </outline>
</glyph>
<glyph name="Ubreve" format="1">
  <advance width="720"/>
  <unicode hex="016C"/>
  <outline>
    <contour>
      <point x="364" y="877" type="curve"/>
      <point x="388" y="889" type="line"/>
      <point x="414" y="861"/>
      <point x="454" y="848"/>
      <point x="517" y="848" type="curve" smooth="yes"/>
      <point x="576" y="848"/>
      <point x="620" y="861"/>
      <point x="651" y="888" type="curve"/>
      <point x="673" y="878" type="line"/>
      <point x="636" y="809"/>
      <point x="590" y="781"/>
      <point x="514" y="781" type="curve" smooth="yes"/>
      <point x="444" y="781"/>
      <point x="393" y="813"/>
    </contour>
    <contour>
      <point x="842" y="681" type="line"/>
      <point x="837" y="652" type="line"/>
      <point x="820" y="650" type="line" smooth="yes"/>
      <point x="765" y="643"/>
      <point x="746" y="622"/>
      <point x="732" y="553" type="curve"/>
      <point x="675" y="239" type="line" smooth="yes"/>
      <point x="655" y="132"/>
      <point x="634" y="88"/>
      <point x="582" y="48" type="curve" smooth="yes"/>
      <point x="529" y="8"/>
      <point x="452" y="-13"/>
      <point x="356" y="-13" type="curve" smooth="yes"/>
      <point x="268" y="-13"/>
      <point x="207" y="5"/>
      <point x="163" y="45" type="curve" smooth="yes"/>
      <point x="135" y="71"/>
      <point x="118" y="108"/>
      <point x="118" y="145" type="curve" smooth="yes"/>
      <point x="118" y="160"/>
      <point x="122" y="192"/>
      <point x="126" y="217" type="curve" smooth="yes"/>
      <point x="187" y="553" type="line" smooth="yes"/>
      <point x="189" y="562"/>
      <point x="191" y="586"/>
      <point x="191" y="596" type="curve" smooth="yes"/>
      <point x="191" y="628"/>
      <point x="174" y="645"/>
      <point x="134" y="650" type="curve" smooth="yes"/>
      <point x="118" y="652" type="line"/>
      <point x="123" y="681" type="line"/>
      <point x="397" y="681" type="line"/>
      <point x="392" y="652" type="line"/>
      <point x="376" y="650" type="line" smooth="yes"/>
      <point x="321" y="643"/>
      <point x="301" y="622"/>
      <point x="287" y="553" type="curve"/>
      <point x="231" y="246" type="line" smooth="yes"/>
      <point x="228" y="229"/>
      <point x="225" y="185"/>
      <point x="225" y="161" type="curve" smooth="yes"/>
      <point x="225" y="79"/>
      <point x="283" y="34"/>
      <point x="389" y="34" type="curve" smooth="yes"/>
      <point x="462" y="34"/>
      <point x="527" y="57"/>
      <point x="563" y="96" type="curve" smooth="yes"/>
      <point x="593" y="129"/>
      <point x="606" y="164"/>
      <point x="622" y="252" type="curve" smooth="yes"/>
      <point x="677" y="553" type="line" smooth="yes"/>
      <point x="679" y="566"/>
      <point x="681" y="584"/>
      <point x="681" y="594" type="curve" smooth="yes"/>
      <point x="681" y="629"/>
      <point x="664" y="645"/>
      <point x="623" y="650" type="curve" smooth="yes"/>
      <point x="608" y="652" type="line"/>
      <point x="613" y="681" type="line"/>
    </contour>
  </outline>
</glyph>
<glyph name="uogonek" format="1">
  <advance width="620"/>
  <unicode hex="0173"/>
  <outline>
    <contour>
      <point x="515" y="486" type="line"/>
      <point x="607" y="486" type="line"/>
      <point x="548" y="159" type="line" smooth="yes"/>
      <point x="540" y="111"/>
      <point x="540" y="111"/>
      <point x="540" y="103" type="curve" smooth="yes"/>
      <point x="540" y="69"/>
      <point x="562" y="43"/>
      <point x="591" y="43" type="curve" smooth="yes"/>
      <point x="614" y="43"/>
      <point x="643" y="61"/>
      <point x="663" y="87" type="curve"/>
      <point x="686" y="66" type="line"/>
      <point x="649" y="24"/>
      <point x="631" y="6"/>
      <point x="588" y="-33" type="curve" smooth="yes"/>
      <point x="561" y="-58"/>
      <point x="550" y="-76"/>
      <point x="550" y="-95" type="curve" smooth="yes"/>
      <point x="550" y="-118"/>
      <point x="570" y="-136"/>
      <point x="596" y="-136" type="curve" smooth="yes"/>
      <point x="604" y="-136"/>
      <point x="611" y="-135"/>
      <point x="623" y="-130" type="curve"/>
      <point x="617" y="-166" type="line"/>
      <point x="603" y="-168"/>
      <point x="596" y="-169"/>
      <point x="586" y="-169" type="curve" smooth="yes"/>
      <point x="533" y="-169"/>
      <point x="498" y="-141"/>
      <point x="498" y="-98" type="curve" smooth="yes"/>
      <point x="498" y="-60"/>
      <point x="518" y="-37"/>
      <point x="577" y="-5" type="curve"/>
      <point x="562" y="-8"/>
      <point x="555" y="-9"/>
      <point x="545" y="-9" type="curve" smooth="yes"/>
      <point x="488" y="-9"/>
      <point x="450" y="25"/>
      <point x="442" y="83" type="curve"/>
      <point x="424" y="66"/>
      <point x="398" y="47"/>
      <point x="362" y="28" type="curve" smooth="yes"/>
      <point x="313" y="2"/>
      <point x="271" y="-9"/>
      <point x="223" y="-9" type="curve" smooth="yes"/>
      <point x="152" y="-9"/>
      <point x="111" y="26"/>
      <point x="111" y="84" type="curve" smooth="yes"/>
      <point x="111" y="101"/>
      <point x="113" y="121"/>
      <point x="117" y="144" type="curve" smooth="yes"/>
      <point x="156" y="358" type="line" smooth="yes"/>
      <point x="158" y="367"/>
      <point x="158" y="372"/>
      <point x="158" y="382" type="curve" smooth="yes"/>
      <point x="158" y="412"/>
      <point x="142" y="426"/>
      <point x="100" y="433" type="curve" smooth="yes"/>
      <point x="88" y="435" type="line"/>
      <point x="93" y="464" type="line"/>
      <point x="161" y="470"/>
      <point x="176" y="473"/>
      <point x="233" y="486" type="curve"/>
      <point x="271" y="486" type="line"/>
      <point x="209" y="143" type="line" smooth="yes"/>
      <point x="205" y="121"/>
      <point x="204" y="113"/>
      <point x="204" y="103" type="curve" smooth="yes"/>
      <point x="204" y="66"/>
      <point x="227" y="43"/>
      <point x="265" y="43" type="curve" smooth="yes"/>
      <point x="319" y="43"/>
      <point x="368" y="64"/>
      <point x="449" y="123" type="curve"/>
    </contour>
  </outline>
</glyph>
<glyph name="Zdotaccent" format="1">
  <advance width="580"/>
  <unicode hex="017B"/>
  <outline>
    <contour>
      <point x="643" y="194" type="line"/>
      <point x="557" y="0" type="line"/>
      <point x="24" y="0" type="line"/>
      <point x="8" y="35" type="line"/>
      <point x="550" y="628" type="line"/>
      <point x="510" y="636"/>
      <point x="487" y="638"/>
      <point x="449" y="638" type="curve" smooth="yes"/>
      <point x="318" y="638"/>
      <point x="239" y="598"/>
      <point x="144" y="482" type="curve"/>
      <point x="114" y="495" type="line"/>
      <point x="200" y="681" type="line"/>
      <point x="683" y="681" type="line"/>
      <point x="695" y="642" type="line"/>
      <point x="155" y="49" type="line"/>
      <point x="197" y="45"/>
      <point x="221" y="44"/>
      <point x="257" y="44" type="curve" smooth="yes"/>
      <point x="359" y="44"/>
      <point x="430" y="59"/>
      <point x="494" y="95" type="curve" smooth="yes"/>
      <point x="541" y="121"/>
      <point x="570" y="148"/>
      <point x="615" y="209" type="curve"/>
    </contour>
    <contour>
      <point x="480" y="859" type="curve" smooth="yes"/>
      <point x="509" y="859"/>
      <point x="529" y="838"/>
      <point x="529" y="809" type="curve" smooth="yes"/>
      <point x="529" y="772"/>
      <point x="495" y="739"/>
      <point x="457" y="739" type="curve" smooth="yes"/>
      <point x="428" y="739"/>
      <point x="409" y="760"/>
      <point x="409" y="791" type="curve" smooth="yes"/>
      <point x="409" y="827"/>
      <point x="442" y="859"/>
    </contour>
  </outline>
</glyph>
<glyph name="Zcaron" format="1">
  <advance width="580"/>
  <unicode hex="017D"/>
  <outline>
    <contour>
      <point x="643" y="194" type="line"/>
      <point x="557" y="0" type="line"/>
      <point x="24" y="0" type="line"/>
      <point x="8" y="35" type="line"/>
      <point x="550" y="628" type="line"/>
      <point x="510" y="636"/>
      <point x="487" y="638"/>
      <point x="449" y="638" type="curve" smooth="yes"/>
      <point x="318" y="638"/>
      <point x="239" y="598"/>
      <point x="144" y="482" type="curve"/>
      <point x="114" y="495" type="line"/>
      <point x="200" y="681" type="line"/>
      <point x="683" y="681" type="line"/>
      <point x="695" y="642" type="line"/>
      <point x="155" y="49" type="line"/>
      <point x="197" y="45"/>
      <point x="221" y="44"/>
      <point x="257" y="44" type="curve" smooth="yes"/>
      <point x="359" y="44"/>
      <point x="430" y="59"/>
      <point x="494" y="95" type="curve" smooth="yes"/>
      <point x="541" y="121"/>
      <point x="570" y="148"/>
      <point x="615" y="209" type="curve"/>
    </contour>
    <contour>
      <point x="603" y="828" type="line"/>
      <point x="437" y="728" type="line"/>
      <point x="300" y="827" type="line"/>
      <point x="325" y="852" type="line"/>
      <point x="448" y="807" type="line"/>
      <point x="581" y="853" type="line"/>
    </contour>
  </outline>
</glyph>
<glyph name="breve" format="1">
  <advance width="440"/>
  <unicode hex="02D8"/>
  <outline>
    <contour>
      <point x="191" y="649" type="curve"/>
      <point x="215" y="661" type="line"/>
      <point x="241" y="633"/>
      <point x="281" y="620"/>
      <point x="344" y="620" type="curve" smooth="yes"/>
      <point x="403" y="620"/>
      <point x="447" y="633"/>
      <point x="478" y="660" type="curve"/>
      <point x="500" y="650" type="line"/>
      <point x="463" y="581"/>
      <point x="417" y="553"/>
      <point x="341" y="553" type="curve" smooth="yes"/>
      <point x="271" y="553"/>
      <point x="220" y="585"/>
    </contour>
  </outline>
</glyph>
<glyph name="ring" format="1">
  <advance width="300"/>
  <unicode hex="02DA"/>
  <outline>
    <contour>
      <point x="270" y="691" type="curve" smooth="yes"/>
      <point x="307" y="691"/>
      <point x="334" y="664"/>
      <point x="334" y="626" type="curve" smooth="yes"/>
      <point x="334" y="578"/>
      <point x="289" y="534"/>
      <point x="239" y="534" type="curve" smooth="yes"/>
      <point x="203" y="534"/>
      <point x="178" y="561"/>
      <point x="178" y="600" type="curve" smooth="yes"/>
      <point x="178" y="650"/>
      <point x="220" y="691"/>
    </contour>
    <contour>
      <point x="265" y="658" type="curve" smooth="yes"/>
      <point x="238" y="658"/>
      <point x="215" y="634"/>
      <point x="215" y="606" type="curve" smooth="yes"/>
      <point x="215" y="582"/>
      <point x="227" y="567"/>
      <point x="245" y="567" type="curve" smooth="yes"/>
      <point x="272" y="567"/>
      <point x="297" y="593"/>
      <point x="297" y="621" type="curve" smooth="yes"/>
      <point x="297" y="643"/>
      <point x="284" y="658"/>
    </contour>
  </outline>
</glyph>
<glyph name="ogonek" format="1">
  <advance width="260"/>
  <unicode hex="02DB"/>
  <outline>
    <contour>
      <point x="141" y="0" type="curve"/>
      <point x="184" y="0" type="line"/>
      <point x="172" y="-9" type="line"/>
      <point x="117" y="-52"/>
      <point x="103" y="-69"/>
      <point x="103" y="-96" type="curve" smooth="yes"/>
      <point x="103" y="-118"/>
      <point x="123" y="-136"/>
      <point x="149" y="-136" type="curve" smooth="yes"/>
      <point x="157" y="-136"/>
      <point x="164" y="-135"/>
      <point x="176" y="-130" type="curve"/>
      <point x="170" y="-166" type="line"/>
      <point x="156" y="-168"/>
      <point x="149" y="-169"/>
      <point x="139" y="-169" type="curve" smooth="yes"/>
      <point x="86" y="-169"/>
      <point x="51" y="-141"/>
      <point x="51" y="-98" type="curve" smooth="yes"/>
      <point x="51" y="-58"/>
      <point x="71" y="-36"/>
    </contour>
  </outline>
</glyph>
<glyph name="afii10051" format="1">
  <advance width="852"/>
  <unicode hex="0402"/>
  <outline>
    <contour>
      <point x="543" y="-143" type="line"/>
      <point x="550" y="-106" type="line"/>
      <point x="604" y="-106"/>
      <point x="627" y="-90"/>
      <point x="641" y="-12" type="curve" smooth="yes"/>
      <point x="695" y="290" type="line" smooth="yes"/>
      <point x="709" y="369"/>
      <point x="658" y="384"/>
      <point x="604" y="384" type="curve" smooth="yes"/>
      <point x="536" y="384"/>
      <point x="470" y="353"/>
      <point x="404" y="317" type="curve"/>
      <point x="369" y="128" type="line" smooth="yes"/>
      <point x="367" y="120"/>
      <point x="365" y="93"/>
      <point x="365" y="84" type="curve" smooth="yes"/>
      <point x="365" y="53"/>
      <point x="387" y="34"/>
      <point x="426" y="31" type="curve" smooth="yes"/>
      <point x="456" y="29" type="line"/>
      <point x="451" y="0" type="line"/>
      <point x="141" y="0" type="line"/>
      <point x="146" y="29" type="line"/>
      <point x="176" y="31" type="line"/>
      <point x="234" y="36"/>
      <point x="256" y="57"/>
      <point x="269" y="128" type="curve" smooth="yes"/>
      <point x="354" y="599" type="line" smooth="yes"/>
      <point x="356" y="605"/>
      <point x="356" y="610"/>
      <point x="356" y="617" type="curve" smooth="yes"/>
      <point x="356" y="633"/>
      <point x="346" y="639"/>
      <point x="317" y="639" type="curve" smooth="yes"/>
      <point x="231" y="639"/>
      <point x="156" y="590"/>
      <point x="84" y="486" type="curve"/>
      <point x="50" y="486" type="line"/>
      <point x="134" y="681" type="line"/>
      <point x="700" y="681" type="line"/>
      <point x="725" y="484" type="line"/>
      <point x="693" y="484" type="line"/>
      <point x="673" y="531"/>
      <point x="660" y="553"/>
      <point x="638" y="578" type="curve" smooth="yes"/>
      <point x="599" y="620"/>
      <point x="556" y="639"/>
      <point x="502" y="639" type="curve" smooth="yes"/>
      <point x="468" y="639"/>
      <point x="459" y="631"/>
      <point x="453" y="594" type="curve" smooth="yes"/>
      <point x="412" y="357" type="line"/>
      <point x="479" y="396"/>
      <point x="532" y="424"/>
      <point x="620" y="424" type="curve" smooth="yes"/>
      <point x="732" y="424"/>
      <point x="814" y="383"/>
      <point x="797" y="293" type="curve" smooth="yes"/>
      <point x="741" y="-12" type="line" smooth="yes"/>
      <point x="724" y="-100"/>
      <point x="676" y="-143"/>
      <point x="564" y="-143" type="curve" smooth="yes"/>
    </contour>
  </outline>
</glyph>
<glyph name="afii10052" format="1">
  <advance width="620"/>
  <unicode hex="0403"/>
  <outline>
    <contour>
      <point x="398" y="720" type="line"/>
      <point x="386" y="749" type="line"/>
      <point x="455" y="817" type="line"/>
      <point x="496" y="856"/>
      <point x="518" y="871"/>
      <point x="539" y="871" type="curve" smooth="yes"/>
      <point x="561" y="871"/>
      <point x="581" y="851"/>
      <point x="581" y="828" type="curve" smooth="yes"/>
      <point x="581" y="803"/>
      <point x="560" y="784"/>
      <point x="511" y="765" type="curve" smooth="yes"/>
    </contour>
    <contour>
      <point x="698" y="681" type="line"/>
      <point x="743" y="483" type="line"/>
      <point x="705" y="471" type="line"/>
      <point x="650" y="587"/>
      <point x="571" y="638"/>
      <point x="446" y="638" type="curve" smooth="yes"/>
      <point x="378" y="638"/>
      <point x="352" y="632"/>
      <point x="331" y="612" type="curve" smooth="yes"/>
      <point x="322" y="603"/>
      <point x="312" y="575"/>
      <point x="304" y="531" type="curve" smooth="yes"/>
      <point x="231" y="128" type="line" smooth="yes"/>
      <point x="229" y="114"/>
      <point x="227" y="97"/>
      <point x="227" y="86" type="curve" smooth="yes"/>
      <point x="227" y="52"/>
      <point x="247" y="35"/>
      <point x="293" y="31" type="curve" smooth="yes"/>
      <point x="314" y="29" type="line"/>
      <point x="309" y="0" type="line"/>
      <point x="21" y="0" type="line"/>
      <point x="26" y="29" type="line"/>
      <point x="43" y="31" type="line" smooth="yes"/>
      <point x="98" y="38"/>
      <point x="117" y="59"/>
      <point x="131" y="128" type="curve"/>
      <point x="208" y="553" type="line" smooth="yes"/>
      <point x="210" y="561"/>
      <point x="212" y="587"/>
      <point x="212" y="596" type="curve" smooth="yes"/>
      <point x="212" y="628"/>
      <point x="195" y="645"/>
      <point x="155" y="650" type="curve" smooth="yes"/>
      <point x="139" y="652" type="line"/>
      <point x="145" y="681" type="line"/>
    </contour>
  </outline>
</glyph>
<glyph name="afii10057" format="1">
  <advance width="560"/>
  <unicode hex="0408"/>
  <outline>
    <contour>
      <point x="387" y="652" type="line"/>
      <point x="392" y="681" type="line"/>
      <point x="666" y="681" type="line"/>
      <point x="661" y="652" type="line"/>
      <point x="644" y="650" type="line" smooth="yes"/>
      <point x="589" y="643"/>
      <point x="570" y="622"/>
      <point x="556" y="553" type="curve"/>
      <point x="502" y="255" type="line" smooth="yes"/>
      <point x="482" y="146"/>
      <point x="471" y="115"/>
      <point x="439" y="80" type="curve" smooth="yes"/>
      <point x="389" y="24"/>
      <point x="297" y="-13"/>
      <point x="209" y="-13" type="curve" smooth="yes"/>
      <point x="83" y="-13"/>
      <point x="-2" y="57"/>
      <point x="-2" y="159" type="curve" smooth="yes"/>
      <point x="-2" y="225"/>
      <point x="36" y="276"/>
      <point x="86" y="276" type="curve" smooth="yes"/>
      <point x="114" y="276"/>
      <point x="134" y="259"/>
      <point x="134" y="233" type="curve" smooth="yes"/>
      <point x="134" y="211"/>
      <point x="126" y="198"/>
      <point x="97" y="172" type="curve" smooth="yes"/>
      <point x="81" y="158"/>
      <point x="75" y="145"/>
      <point x="75" y="126" type="curve" smooth="yes"/>
      <point x="75" y="75"/>
      <point x="129" y="34"/>
      <point x="198" y="34" type="curve" smooth="yes"/>
      <point x="259" y="34"/>
      <point x="315" y="59"/>
      <point x="349" y="101" type="curve" smooth="yes"/>
      <point x="374" y="133"/>
      <point x="385" y="166"/>
      <point x="400" y="246" type="curve" smooth="yes"/>
      <point x="456" y="553" type="line" smooth="yes"/>
      <point x="458" y="566"/>
      <point x="460" y="584"/>
      <point x="460" y="594" type="curve" smooth="yes"/>
      <point x="460" y="629"/>
      <point x="443" y="645"/>
      <point x="402" y="650" type="curve" smooth="yes"/>
    </contour>
  </outline>
</glyph>
<glyph name="afii10058" format="1">
  <advance width="1130"/>
  <unicode hex="0409"/>
  <outline>
    <contour>
      <point x="826" y="650" type="line"/>
      <point x="807" y="650" type="line"/>
      <point x="752" y="643"/>
      <point x="732" y="621"/>
      <point x="718" y="553" type="curve"/>
      <point x="687" y="383" type="line"/>
      <point x="815" y="383" type="line" smooth="yes"/>
      <point x="1036" y="383"/>
      <point x="1054" y="351"/>
      <point x="1077" y="332" type="curve" smooth="yes"/>
      <point x="1111" y="305"/>
      <point x="1130" y="267"/>
      <point x="1130" y="227" type="curve" smooth="yes"/>
      <point x="1130" y="162"/>
      <point x="1094" y="95"/>
      <point x="1036" y="55" type="curve" smooth="yes"/>
      <point x="975" y="13"/>
      <point x="916" y="0"/>
      <point x="785" y="0" type="curve" smooth="yes"/>
      <point x="431" y="0" type="line"/>
      <point x="436" y="31" type="line"/>
      <point x="462" y="34" type="line" smooth="yes"/>
      <point x="515" y="40"/>
      <point x="532" y="62"/>
      <point x="546" y="144" type="curve" smooth="yes"/>
      <point x="616" y="536" type="line" smooth="yes"/>
      <point x="631" y="622"/>
      <point x="627" y="638"/>
      <point x="594" y="638" type="curve" smooth="yes"/>
      <point x="469" y="638" type="line" smooth="yes"/>
      <point x="446" y="638"/>
      <point x="432" y="618"/>
      <point x="421" y="578" type="curve" smooth="yes"/>
      <point x="372" y="385"/>
      <point x="343" y="270"/>
      <point x="262" y="106" type="curve" smooth="yes"/>
      <point x="224" y="30"/>
      <point x="151" y="-14"/>
      <point x="88" y="-14" type="curve" smooth="yes"/>
      <point x="42" y="-14"/>
      <point x="-12" y="0"/>
      <point x="0" y="66" type="curve" smooth="yes"/>
      <point x="7" y="108"/>
      <point x="39" y="140"/>
      <point x="78" y="140" type="curve" smooth="yes"/>
      <point x="112" y="140"/>
      <point x="132" y="128"/>
      <point x="137" y="110" type="curve" smooth="yes"/>
      <point x="144" y="88"/>
      <point x="138" y="72"/>
      <point x="165" y="72" type="curve" smooth="yes"/>
      <point x="221" y="72"/>
      <point x="316" y="356"/>
      <point x="347" y="537" type="curve"/>
      <point x="362" y="618"/>
      <point x="352" y="641"/>
      <point x="301" y="647" type="curve" smooth="yes"/>
      <point x="277" y="650" type="line"/>
      <point x="282" y="681" type="line"/>
      <point x="831" y="681" type="line"/>
    </contour>
    <contour>
      <point x="681" y="346" type="line"/>
      <point x="640" y="121" type="line" smooth="yes"/>
      <point x="638" y="111"/>
      <point x="637" y="101"/>
      <point x="637" y="94" type="curve" smooth="yes"/>
      <point x="637" y="56"/>
      <point x="670" y="40"/>
      <point x="748" y="40" type="curve" smooth="yes"/>
      <point x="847" y="40"/>
      <point x="902" y="53"/>
      <point x="947" y="86" type="curve" smooth="yes"/>
      <point x="991" y="118"/>
      <point x="1020" y="177"/>
      <point x="1020" y="235" type="curve" smooth="yes"/>
      <point x="1020" y="320"/>
      <point x="971" y="346"/>
      <point x="811" y="346" type="curve" smooth="yes"/>
    </contour>
  </outline>
</glyph>
<glyph name="afii10059" format="1">
  <advance width="1177"/>
  <unicode hex="040A"/>
  <outline>
    <contour>
      <point x="478" y="0" type="line"/>
      <point x="484" y="29" type="line"/>
      <point x="512" y="31" type="line"/>
      <point x="567" y="38"/>
      <point x="587" y="60"/>
      <point x="601" y="128" type="curve"/>
      <point x="640" y="347" type="line"/>
      <point x="271" y="347" type="line"/>
      <point x="231" y="128" type="line" smooth="yes"/>
      <point x="229" y="115"/>
      <point x="227" y="97"/>
      <point x="227" y="87" type="curve" smooth="yes"/>
      <point x="227" y="53"/>
      <point x="247" y="34"/>
      <point x="285" y="31" type="curve" smooth="yes"/>
      <point x="312" y="29" type="line"/>
      <point x="307" y="0" type="line"/>
      <point x="21" y="0" type="line"/>
      <point x="26" y="29" type="line"/>
      <point x="43" y="31" type="line" smooth="yes"/>
      <point x="98" y="38"/>
      <point x="117" y="59"/>
      <point x="131" y="128" type="curve"/>
      <point x="208" y="553" type="line" smooth="yes"/>
      <point x="210" y="561"/>
      <point x="212" y="587"/>
      <point x="212" y="596" type="curve" smooth="yes"/>
      <point x="212" y="628"/>
      <point x="195" y="645"/>
      <point x="155" y="650" type="curve" smooth="yes"/>
      <point x="139" y="652" type="line"/>
      <point x="145" y="681" type="line"/>
      <point x="431" y="681" type="line"/>
      <point x="425" y="652" type="line"/>
      <point x="397" y="650" type="line"/>
      <point x="342" y="643"/>
      <point x="322" y="621"/>
      <point x="308" y="553" type="curve"/>
      <point x="278" y="387" type="line"/>
      <point x="648" y="387" type="line"/>
      <point x="678" y="553" type="line" smooth="yes"/>
      <point x="680" y="566"/>
      <point x="682" y="584"/>
      <point x="682" y="594" type="curve" smooth="yes"/>
      <point x="682" y="628"/>
      <point x="662" y="647"/>
      <point x="624" y="650" type="curve" smooth="yes"/>
      <point x="597" y="652" type="line"/>
      <point x="602" y="681" type="line"/>
      <point x="888" y="681" type="line"/>
      <point x="882" y="652" type="line"/>
      <point x="854" y="650" type="line"/>
      <point x="799" y="643"/>
      <point x="779" y="621"/>
      <point x="765" y="553" type="curve"/>
      <point x="734" y="383" type="line"/>
      <point x="862" y="383" type="line" smooth="yes"/>
      <point x="1083" y="383"/>
      <point x="1101" y="351"/>
      <point x="1124" y="332" type="curve" smooth="yes"/>
      <point x="1158" y="305"/>
      <point x="1177" y="267"/>
      <point x="1177" y="227" type="curve" smooth="yes"/>
      <point x="1177" y="162"/>
      <point x="1141" y="95"/>
      <point x="1083" y="55" type="curve" smooth="yes"/>
      <point x="1022" y="13"/>
      <point x="963" y="0"/>
      <point x="832" y="0" type="curve" smooth="yes"/>
    </contour>
    <contour>
      <point x="728" y="346" type="line"/>
      <point x="687" y="121" type="line" smooth="yes"/>
      <point x="685" y="111"/>
      <point x="684" y="101"/>
      <point x="684" y="94" type="curve" smooth="yes"/>
      <point x="684" y="56"/>
      <point x="717" y="40"/>
      <point x="795" y="40" type="curve" smooth="yes"/>
      <point x="894" y="40"/>
      <point x="949" y="53"/>
      <point x="994" y="86" type="curve" smooth="yes"/>
      <point x="1038" y="118"/>
      <point x="1067" y="177"/>
      <point x="1067" y="235" type="curve" smooth="yes"/>
      <point x="1067" y="320"/>
      <point x="1018" y="346"/>
      <point x="858" y="346" type="curve" smooth="yes"/>
    </contour>
  </outline>
</glyph>
<glyph name="afii10060" format="1">
  <advance width="852"/>
  <unicode hex="040B"/>
  <outline>
    <contour>
      <point x="453" y="594" type="curve" smooth="yes"/>
      <point x="412" y="357" type="line"/>
      <point x="479" y="396"/>
      <point x="532" y="424"/>
      <point x="620" y="424" type="curve" smooth="yes"/>
      <point x="732" y="424"/>
      <point x="814" y="383"/>
      <point x="797" y="293" type="curve" smooth="yes"/>
      <point x="766" y="128" type="line" smooth="yes"/>
      <point x="764" y="120"/>
      <point x="762" y="94"/>
      <point x="762" y="85" type="curve" smooth="yes"/>
      <point x="762" y="53"/>
      <point x="779" y="36"/>
      <point x="819" y="31" type="curve" smooth="yes"/>
      <point x="835" y="29" type="line"/>
      <point x="829" y="0" type="line"/>
      <point x="543" y="0" type="line"/>
      <point x="549" y="29" type="line"/>
      <point x="577" y="31" type="line"/>
      <point x="632" y="38"/>
      <point x="654" y="60"/>
      <point x="666" y="128" type="curve" smooth="yes"/>
      <point x="695" y="290" type="line" smooth="yes"/>
      <point x="709" y="369"/>
      <point x="658" y="384"/>
      <point x="604" y="384" type="curve" smooth="yes"/>
      <point x="536" y="384"/>
      <point x="470" y="353"/>
      <point x="404" y="317" type="curve"/>
      <point x="369" y="128" type="line" smooth="yes"/>
      <point x="367" y="120"/>
      <point x="365" y="93"/>
      <point x="365" y="84" type="curve" smooth="yes"/>
      <point x="365" y="53"/>
      <point x="387" y="34"/>
      <point x="426" y="31" type="curve" smooth="yes"/>
      <point x="456" y="29" type="line"/>
      <point x="451" y="0" type="line"/>
      <point x="141" y="0" type="line"/>
      <point x="146" y="29" type="line"/>
      <point x="176" y="31" type="line"/>
      <point x="234" y="36"/>
      <point x="256" y="57"/>
      <point x="269" y="128" type="curve" smooth="yes"/>
      <point x="354" y="599" type="line" smooth="yes"/>
      <point x="356" y="605"/>
      <point x="356" y="610"/>
      <point x="356" y="617" type="curve" smooth="yes"/>
      <point x="356" y="633"/>
      <point x="346" y="639"/>
      <point x="317" y="639" type="curve" smooth="yes"/>
      <point x="231" y="639"/>
      <point x="156" y="590"/>
      <point x="84" y="486" type="curve"/>
      <point x="50" y="486" type="line"/>
      <point x="134" y="681" type="line"/>
      <point x="700" y="681" type="line"/>
      <point x="725" y="484" type="line"/>
      <point x="693" y="484" type="line"/>
      <point x="673" y="531"/>
      <point x="660" y="553"/>
      <point x="638" y="578" type="curve" smooth="yes"/>
      <point x="599" y="620"/>
      <point x="556" y="639"/>
      <point x="502" y="639" type="curve" smooth="yes"/>
      <point x="468" y="639"/>
      <point x="459" y="631"/>
    </contour>
  </outline>
</glyph>
<glyph name="afii10145" format="1">
  <advance width="800"/>
  <unicode hex="040F"/>
  <outline>
    <contour>
      <point x="348" y="0" type="line"/>
      <point x="21" y="0" type="line"/>
      <point x="26" y="29" type="line"/>
      <point x="43" y="31" type="line" smooth="yes"/>
      <point x="98" y="37"/>
      <point x="117" y="59"/>
      <point x="131" y="128" type="curve"/>
      <point x="208" y="553" type="line" smooth="yes"/>
      <point x="210" y="561"/>
      <point x="212" y="587"/>
      <point x="212" y="596" type="curve" smooth="yes"/>
      <point x="212" y="628"/>
      <point x="195" y="645"/>
      <point x="155" y="650" type="curve" smooth="yes"/>
      <point x="139" y="652" type="line"/>
      <point x="145" y="681" type="line"/>
      <point x="431" y="681" type="line"/>
      <point x="425" y="652" type="line"/>
      <point x="397" y="650" type="line"/>
      <point x="342" y="643"/>
      <point x="322" y="621"/>
      <point x="308" y="553" type="curve"/>
      <point x="232" y="137" type="line" smooth="yes"/>
      <point x="230" y="124"/>
      <point x="228" y="106"/>
      <point x="228" y="96" type="curve" smooth="yes"/>
      <point x="228" y="62"/>
      <point x="248" y="40"/>
      <point x="286" y="40" type="curve" smooth="yes"/>
      <point x="513" y="40" type="line"/>
      <point x="567" y="41"/>
      <point x="592" y="85"/>
      <point x="602" y="137" type="curve" smooth="yes"/>
      <point x="678" y="553" type="line" smooth="yes"/>
      <point x="680" y="566"/>
      <point x="682" y="584"/>
      <point x="682" y="594" type="curve" smooth="yes"/>
      <point x="682" y="628"/>
      <point x="662" y="647"/>
      <point x="624" y="650" type="curve" smooth="yes"/>
      <point x="597" y="652" type="line"/>
      <point x="602" y="681" type="line"/>
      <point x="888" y="681" type="line"/>
      <point x="883" y="652" type="line"/>
      <point x="866" y="650" type="line" smooth="yes"/>
      <point x="811" y="644"/>
      <point x="792" y="622"/>
      <point x="778" y="553" type="curve"/>
      <point x="701" y="128" type="line" smooth="yes"/>
      <point x="699" y="120"/>
      <point x="697" y="94"/>
      <point x="697" y="85" type="curve" smooth="yes"/>
      <point x="697" y="53"/>
      <point x="714" y="36"/>
      <point x="754" y="31" type="curve" smooth="yes"/>
      <point x="770" y="29" type="line"/>
      <point x="764" y="0" type="line"/>
      <point x="448" y="0" type="line"/>
      <point x="421" y="-154" type="line"/>
      <point x="321" y="-154" type="line"/>
    </contour>
  </outline>
</glyph>
<glyph name="afii10021" format="1">
  <advance width="760"/>
  <unicode hex="0414"/>
  <outline>
    <contour>
      <point x="268" y="43" type="curve" smooth="yes"/>
      <point x="495" y="43" type="line" smooth="yes"/>
      <point x="525" y="43"/>
      <point x="527" y="44"/>
      <point x="545" y="144" type="curve" smooth="yes"/>
      <point x="614" y="536" type="line" smooth="yes"/>
      <point x="629" y="622"/>
      <point x="626" y="638"/>
      <point x="593" y="638" type="curve" smooth="yes"/>
      <point x="468" y="638" type="line" smooth="yes"/>
      <point x="445" y="638"/>
      <point x="431" y="618"/>
      <point x="419" y="578" type="curve"/>
      <point x="371" y="385"/>
      <point x="341" y="270"/>
      <point x="260" y="106" type="curve"/>
      <point x="229" y="50"/>
      <point x="242" y="43"/>
    </contour>
    <contour>
      <point x="555" y="0" type="curve" smooth="yes"/>
      <point x="225" y="0" type="line" smooth="yes"/>
      <point x="104" y="0"/>
      <point x="121" y="-18"/>
      <point x="45" y="-135" type="curve"/>
      <point x="13" y="-128" type="line"/>
      <point x="75" y="39" type="line"/>
      <point x="139" y="39"/>
      <point x="153" y="37"/>
      <point x="187" y="98" type="curve" smooth="yes"/>
      <point x="260" y="228"/>
      <point x="300" y="360"/>
      <point x="345" y="537" type="curve"/>
      <point x="361" y="618"/>
      <point x="351" y="641"/>
      <point x="300" y="647" type="curve" smooth="yes"/>
      <point x="275" y="650" type="line"/>
      <point x="281" y="681" type="line"/>
      <point x="830" y="681" type="line"/>
      <point x="824" y="650" type="line"/>
      <point x="799" y="647" type="line" smooth="yes"/>
      <point x="745" y="641"/>
      <point x="729" y="619"/>
      <point x="714" y="537" type="curve" smooth="yes"/>
      <point x="646" y="144" type="line" smooth="yes"/>
      <point x="629" y="49"/>
      <point x="649" y="38"/>
      <point x="717" y="40" type="curve"/>
      <point x="708" y="-128" type="line"/>
      <point x="674" y="-128" type="line"/>
      <point x="670" y="-27"/>
      <point x="676" y="0"/>
    </contour>
  </outline>
</glyph>
<glyph name="afii10027" format="1">
  <advance width="800"/>
  <unicode hex="0419"/>
  <outline>
    <contour>
      <point x="378" y="836" type="curve"/>
      <point x="402" y="848" type="line"/>
      <point x="428" y="820"/>
      <point x="468" y="807"/>
      <point x="532" y="807" type="curve" smooth="yes"/>
      <point x="590" y="807"/>
      <point x="634" y="820"/>
      <point x="665" y="847" type="curve"/>
      <point x="687" y="837" type="line"/>
      <point x="650" y="768"/>
      <point x="604" y="740"/>
      <point x="528" y="740" type="curve" smooth="yes"/>
      <point x="458" y="740"/>
      <point x="407" y="772"/>
    </contour>
    <contour>
      <point x="662" y="466" type="line"/>
      <point x="237" y="161" type="line"/>
      <point x="231" y="128" type="line" smooth="yes"/>
      <point x="229" y="115"/>
      <point x="227" y="97"/>
      <point x="227" y="87" type="curve" smooth="yes"/>
      <point x="227" y="53"/>
      <point x="247" y="34"/>
      <point x="285" y="31" type="curve" smooth="yes"/>
      <point x="312" y="29" type="line"/>
      <point x="307" y="0" type="line"/>
      <point x="21" y="0" type="line"/>
      <point x="26" y="29" type="line"/>
      <point x="43" y="31" type="line" smooth="yes"/>
      <point x="98" y="37"/>
      <point x="117" y="59"/>
      <point x="131" y="128" type="curve"/>
      <point x="208" y="553" type="line" smooth="yes"/>
      <point x="210" y="561"/>
      <point x="212" y="587"/>
      <point x="212" y="596" type="curve" smooth="yes"/>
      <point x="212" y="628"/>
      <point x="195" y="645"/>
      <point x="155" y="650" type="curve" smooth="yes"/>
      <point x="139" y="652" type="line"/>
      <point x="145" y="681" type="line"/>
      <point x="431" y="681" type="line"/>
      <point x="425" y="652" type="line"/>
      <point x="397" y="650" type="line"/>
      <point x="342" y="643"/>
      <point x="322" y="621"/>
      <point x="308" y="553" type="curve"/>
      <point x="246" y="214" type="line"/>
      <point x="672" y="518" type="line"/>
      <point x="678" y="553" type="line" smooth="yes"/>
      <point x="680" y="566"/>
      <point x="682" y="584"/>
      <point x="682" y="594" type="curve" smooth="yes"/>
      <point x="682" y="628"/>
      <point x="662" y="647"/>
      <point x="624" y="650" type="curve" smooth="yes"/>
      <point x="597" y="652" type="line"/>
      <point x="602" y="681" type="line"/>
      <point x="888" y="681" type="line"/>
      <point x="883" y="652" type="line"/>
      <point x="866" y="650" type="line" smooth="yes"/>
      <point x="811" y="644"/>
      <point x="792" y="622"/>
      <point x="778" y="553" type="curve"/>
      <point x="701" y="128" type="line" smooth="yes"/>
      <point x="699" y="120"/>
      <point x="697" y="94"/>
      <point x="697" y="85" type="curve" smooth="yes"/>
      <point x="697" y="53"/>
      <point x="714" y="36"/>
      <point x="754" y="31" type="curve" smooth="yes"/>
      <point x="770" y="29" type="line"/>
      <point x="764" y="0" type="line"/>
      <point x="478" y="0" type="line"/>
      <point x="484" y="29" type="line"/>
      <point x="512" y="31" type="line"/>
      <point x="567" y="38"/>
      <point x="587" y="60"/>
      <point x="601" y="128" type="curve"/>
    </contour>
  </outline>
</glyph>
